<?xml version="1.0" encoding="UTF-8" standalone="no"?>
<!-- Created with Inkscape (http://www.inkscape.org/) -->

<svg
   version="1.1"
   id="svg1"
   width="413"
   height="434"
   viewBox="0 0 413 434"
   sodipodi:docname="banner_bend_5.svg"
   inkscape:version="1.3.2 (091e20ef0f, 2023-11-25)"
   xmlns:inkscape="http://www.inkscape.org/namespaces/inkscape"
   xmlns:sodipodi="http://sodipodi.sourceforge.net/DTD/sodipodi-0.dtd"
   xmlns="http://www.w3.org/2000/svg"
   xmlns:svg="http://www.w3.org/2000/svg">
  <defs
     id="defs1">
    <linearGradient
       id="swatch9"
       inkscape:swatch="solid">
      <stop
         style="stop-color:#000000;stop-opacity:1;"
         offset="0"
         id="stop9" />
    </linearGradient>
    <inkscape:path-effect
       effect="bspline"
       id="path-effect2"
       is_visible="true"
       lpeversion="1.3"
       weight="33.333333"
       steps="2"
       helper_size="0"
       apply_no_weight="true"
       apply_with_weight="true"
       only_selected="false"
       uniform="false" />
    <clipPath
       clipPathUnits="userSpaceOnUse"
       id="clipPath4">
      <g
         id="g5">
        <g
           inkscape:label="Clip"
           id="use4"
           clip-path="url(#clipPath4)">
          <g
             id="g34"
             inkscape:label="g2941">
            <path
               style="display:inline;opacity:1;fill:none;fill-opacity:0.119748;fill-rule:nonzero;stroke:#471d1d;stroke-width:0.5;stroke-linecap:round;stroke-linejoin:round;stroke-dasharray:none;stroke-dashoffset:0;stroke-opacity:1"
               d="m 294.55888,155.55134 c -5.71099,-5.59677 -5.95218,-5.93872 -7.3628,-9.11843 -1.01486,-2.25108 -1.03236,-8.37201 -0.21705,-11.11643 1.11405,-3.70272 0.91035,-5.19698 9.62309,-13.84142 0.63492,0.38115 -0.51719,0.71449 1.25635,2.32728 3.58527,3.2603 6.36864,10.2375 6.52122,12.04144 0.21929,3.77811 0.32019,5.94816 -0.19775,8.83215 -0.50674,2.40553 -2.88924,6.65563 -5.18641,7.90372 -1.86834,1.0151 -2.24982,1.34904 -4.43666,2.97169 z"
               id="path33"
               sodipodi:nodetypes="ccccsccscc"
               inkscape:label="Outer cut" />
            <path
               style="display:inline;opacity:1;fill:none;fill-opacity:0;fill-rule:nonzero;stroke:#471d1d;stroke-width:0.5;stroke-linejoin:round;stroke-dasharray:none;stroke-dashoffset:0;stroke-opacity:1"
               d="m 295.54755,152.4535 c -0.73645,-0.60431 -2.3119,-1.97713 -3.07786,-2.99315 -1.77198,-2.35048 -2.87171,-6.62488 -2.9281,-7.04278 -0.23438,-2.70237 -0.2416,-1.89407 0.13984,-4.59644 1.86783,-6.34821 3.22323,-10.55589 7.86084,-14.32349 l -2.02201,1.88081 c 0.711,0.68811 1.15723,1.83718 2.8615,2.02865 0.76692,0.26677 2.19975,1.21441 3.75696,8.83215 0.49097,2.45363 0.44018,4.13384 0.26366,6.2616 0.0768,0.13215 -0.0703,3.13886 -3.92408,7.05254 -1.86597,0.59148 -1.94193,1.85211 -2.93074,2.90011 z"
               id="path34"
               sodipodi:nodetypes="cscccccccccc"
               inkscape:label="Inner cut" />
          </g>
        </g>
      </g>
    </clipPath>
  </defs>
  <sodipodi:namedview
     id="namedview1"
     pagecolor="#ffffff"
     bordercolor="#ffffff"
     borderopacity="1"
     inkscape:showpageshadow="0"
     inkscape:pageopacity="0"
     inkscape:pagecheckerboard="0"
     inkscape:deskcolor="#505050"
     inkscape:zoom="2.8284272"
     inkscape:cx="218.31921"
     inkscape:cy="230.16325"
     inkscape:window-width="2560"
     inkscape:window-height="1368"
     inkscape:window-x="0"
     inkscape:window-y="0"
     inkscape:window-maximized="1"
     inkscape:current-layer="layer3"
     showguides="false" />
  <g
     inkscape:groupmode="layer"
     id="layer3"
     inkscape:label="SVG"
     inkscape:highlight-color="#ffffff"
     style="display:inline">
    <path
       id="path29"
       style="display:inline;color:#000000;fill:#5e5d60;stroke-linecap:round;stroke-linejoin:round;-inkscape-stroke:none"
       d="M 50.568897 167.02734 C 55.814643 175.48503 62.781684 175.98306 67.254444 177.31836 C 67.856055 177.37382 68.359542 177.46069 68.904834 177.61133 L 68.904834 177.62109 C 71.454619 178.29576 73.73428 179.83126 75.465381 181.70508 C 77.573915 183.98744 78.917506 186.68448 78.811084 189.33203 C 78.704662 191.97958 76.930036 194.60453 75.244678 197.00781 C 73.559777 199.41045 71.982716 201.60143 71.887256 203.70312 C 71.736505 207.32155 71.996638 209.13329 72.277881 210.3418 C 72.55913 211.5503 72.895529 212.23823 72.951709 213.05469 C 72.986736 213.56374 73.032247 213.84824 73.076709 214.18359 C 69.291354 208.88724 61.739573 204.97316 55.088428 202.16406 C 55.088417 202.16135 55.08844 202.15896 55.088428 202.15625 C 54.328506 201.83645 53.567985 201.49258 52.814991 201.18359 C 49.118265 199.66674 45.570914 198.24911 42.738819 196.59766 C 39.906724 194.94614 37.760693 193.047 37.123584 190.83398 C 36.48648 188.62102 36.467377 186.65685 38.309131 183.72461 C 40.150885 180.79237 43.451354 178.08416 46.027881 175.51953 C 48.58746 172.97178 50.41066 170.59257 50.568897 167.02734 z "
       transform="matrix(-1,0,0,1,412.9771,0)"
       inkscape:label="5" />
    <path
       id="path23"
       style="display:inline;color:#000000;fill:#5e5d60;stroke-linecap:round;stroke-linejoin:round;-inkscape-stroke:none"
       d="M 344.07476 177.61133 C 344.61936 177.461 345.12224 177.37376 345.72319 177.31836 C 350.19595 175.98306 357.16299 175.48503 362.40874 167.02734 C 362.56698 170.59257 364.39016 172.97178 366.94976 175.51953 C 369.52624 178.08416 372.82375 180.79042 374.66655 183.72266 C 376.50934 186.65482 376.48928 188.62103 375.8521 190.83398 C 375.21492 193.047 373.07289 194.94614 370.24077 196.59766 C 367.40866 198.2491 363.85932 199.66675 360.16265 201.18359 C 359.40965 201.49258 358.64914 201.83645 357.88921 202.15625 C 357.8892 202.15896 357.88922 202.16135 357.88921 202.16406 C 351.23861 204.97293 343.68658 208.88594 339.90093 214.18164 C 339.9448 213.84352 339.99088 213.55427 340.02593 213.04883 C 340.08217 212.23842 340.41851 211.5503 340.69976 210.3418 C 340.98094 209.13357 341.24091 207.32176 341.09038 203.70508 C 340.9957 201.6028 339.42028 199.4111 337.73491 197.00781 C 336.04955 194.60453 334.27197 191.97958 334.16655 189.33203 C 334.06113 186.68448 335.40371 183.98744 337.51226 181.70508 C 339.2436 179.83094 341.52442 178.29556 344.07476 177.62109 L 344.07476 177.61133 z "
       transform="matrix(-1,0,0,1,412.9771,0)"
       inkscape:label="5" />
  </g>
</svg>
