<?xml version="1.0" encoding="UTF-8" standalone="no"?>
<!-- Created with Inkscape (http://www.inkscape.org/) -->

<svg
   version="1.1"
   id="svg1"
   width="413"
   height="434"
   viewBox="0 0 413 434"
   sodipodi:docname="grapes.svg"
   inkscape:version="1.3.2 (091e20ef0f, 2023-11-25)"
   xmlns:inkscape="http://www.inkscape.org/namespaces/inkscape"
   xmlns:sodipodi="http://sodipodi.sourceforge.net/DTD/sodipodi-0.dtd"
   xmlns:xlink="http://www.w3.org/1999/xlink"
   xmlns="http://www.w3.org/2000/svg"
   xmlns:svg="http://www.w3.org/2000/svg">
  <defs
     id="defs1">
    <linearGradient
       id="swatch9"
       inkscape:swatch="solid">
      <stop
         style="stop-color:#000000;stop-opacity:1;"
         offset="0"
         id="stop9" />
    </linearGradient>
    <inkscape:path-effect
       effect="bspline"
       id="path-effect2"
       is_visible="true"
       lpeversion="1.3"
       weight="33.333333"
       steps="2"
       helper_size="0"
       apply_no_weight="true"
       apply_with_weight="true"
       only_selected="false"
       uniform="false" />
    <clipPath
       clipPathUnits="userSpaceOnUse"
       id="clipPath4">
      <g
         id="g5">
        <g
           inkscape:label="Clip"
           id="use4"
           clip-path="url(#clipPath4)">
          <g
             id="g34"
             inkscape:label="g2941">
            <path
               style="display:inline;opacity:1;fill:none;fill-opacity:0.119748;fill-rule:nonzero;stroke:#471d1d;stroke-width:0.5;stroke-linecap:round;stroke-linejoin:round;stroke-dasharray:none;stroke-dashoffset:0;stroke-opacity:1"
               d="m 294.55888,155.55134 c -5.71099,-5.59677 -5.95218,-5.93872 -7.3628,-9.11843 -1.01486,-2.25108 -1.03236,-8.37201 -0.21705,-11.11643 1.11405,-3.70272 0.91035,-5.19698 9.62309,-13.84142 0.63492,0.38115 -0.51719,0.71449 1.25635,2.32728 3.58527,3.2603 6.36864,10.2375 6.52122,12.04144 0.21929,3.77811 0.32019,5.94816 -0.19775,8.83215 -0.50674,2.40553 -2.88924,6.65563 -5.18641,7.90372 -1.86834,1.0151 -2.24982,1.34904 -4.43666,2.97169 z"
               id="path33"
               sodipodi:nodetypes="ccccsccscc"
               inkscape:label="Outer cut" />
            <path
               style="display:inline;opacity:1;fill:none;fill-opacity:0;fill-rule:nonzero;stroke:#471d1d;stroke-width:0.5;stroke-linejoin:round;stroke-dasharray:none;stroke-dashoffset:0;stroke-opacity:1"
               d="m 295.54755,152.4535 c -0.73645,-0.60431 -2.3119,-1.97713 -3.07786,-2.99315 -1.77198,-2.35048 -2.87171,-6.62488 -2.9281,-7.04278 -0.23438,-2.70237 -0.2416,-1.89407 0.13984,-4.59644 1.86783,-6.34821 3.22323,-10.55589 7.86084,-14.32349 l -2.02201,1.88081 c 0.711,0.68811 1.15723,1.83718 2.8615,2.02865 0.76692,0.26677 2.19975,1.21441 3.75696,8.83215 0.49097,2.45363 0.44018,4.13384 0.26366,6.2616 0.0768,0.13215 -0.0703,3.13886 -3.92408,7.05254 -1.86597,0.59148 -1.94193,1.85211 -2.93074,2.90011 z"
               id="path34"
               sodipodi:nodetypes="cscccccccccc"
               inkscape:label="Inner cut" />
          </g>
        </g>
      </g>
    </clipPath>
  </defs>
  <sodipodi:namedview
     id="namedview1"
     pagecolor="#ffffff"
     bordercolor="#ffffff"
     borderopacity="1"
     inkscape:showpageshadow="0"
     inkscape:pageopacity="0"
     inkscape:pagecheckerboard="0"
     inkscape:deskcolor="#505050"
     inkscape:zoom="2"
     inkscape:cx="126.25"
     inkscape:cy="156"
     inkscape:window-width="2560"
     inkscape:window-height="1368"
     inkscape:window-x="0"
     inkscape:window-y="0"
     inkscape:window-maximized="1"
     inkscape:current-layer="layer3"
     showguides="false" />
  <g
     inkscape:groupmode="layer"
     id="layer3"
     inkscape:label="SVG"
     inkscape:highlight-color="#ffffff"
     style="display:inline">
    <g
       id="g14"
       inkscape:label="Grapes top/bottom"
       style="display:inline;fill:#000000"
       transform="translate(-1.5215876e-6)">
      <g
         id="g141"
         inkscape:label="Top (reference)"
         style="display:inline">
        <g
           id="path180"
           inkscape:label="Grape"
           style="display:inline">
          <path
             style="color:#000000;display:inline;stroke-linecap:round;stroke-linejoin:round;-inkscape-stroke:none"
             d="m 203.82914,132.56791 c 0.58403,-0.0252 1.14715,0.12733 1.61968,0.38889 -0.2117,-4.3206 -2.05134,-3.18013 -3.60664,-3.12324 0.63391,0.61 1.34878,1.49161 1.98696,2.73435 z m 14.01632,-13.45082 c -1.06845,1.36964 -0.51175,2.13675 -0.21923,2.92312 4.94163,-4.84935 4.28745,-3.04249 6.43086,-3.80005 l -0.76732,1.42502 c 3.75009,-1.77123 3.10689,-0.97041 3.65389,-0.43847 0.10693,0.64647 0.48918,0.0845 1.45265,0.29231 0.80869,0.35923 0.58484,1.05969 1.94549,1.64426 -3.54737,2.0115 -5.24612,3.85411 -4.89623,4.3116 2.18124,-0.0993 4.33258,-0.25559 6.13855,1.3154 l -1.02309,0.80386 c 1.47279,-0.23797 3.19896,0.66079 3.94621,1.90002 0.22446,1.94595 1.21106,2.61105 1.3154,3.50775 -1.7233,0.2611 -2.36161,1.52436 -2.77696,2.48465 -1.32427,1.85356 -3.06444,0.93552 -4.53083,0.95001 0.37901,1.334 0.39745,0.38327 0.95,1.0231 -2.4948,0.62049 -4.19008,-0.92556 -5.84623,-2.04619 -0.17962,0.5944 -0.30188,2.15797 0.88888,2.79494 1.07556,0.57534 1.05556,2.01796 1.12077,3.38016 l -3.14236,-0.14618 0.54808,1.20578 c -1.50311,0.28847 -2.65353,-1.16518 -3.81928,-1.13984 -0.26452,0.71317 -0.68082,1.26106 -1.22461,1.63606 0.24344,1.12192 -5.8e-4,2.31446 -0.66283,3.18476 -0.66223,0.8703 -1.6562,1.30473 -2.66378,1.18858 0.0194,1.10122 -0.5249,2.10541 -1.43085,2.67173 0.63512,1.07674 0.65463,2.38421 0.0525,3.45792 -0.6021,1.07371 -1.73588,1.75333 -2.97288,1.78655 0.80171,1.52183 0.40539,3.38413 -0.94222,4.46292 -1.3476,1.07879 -3.27764,1.07879 -4.62524,0 -1.3476,-1.07879 -1.74392,-2.94109 -0.95281,-4.50917 -0.99661,-0.28627 -1.81563,-0.96496 -2.21399,-1.87838 -0.39836,-0.91342 -0.32963,-1.95509 0.18245,-2.84974 -1.63533,-0.22738 -2.80439,-1.63289 -2.6544,-3.1939 -0.85729,-0.0705 -1.62227,-0.54561 -2.13181,-1.30896 -0.50954,-0.76335 -0.71546,-1.74276 -0.5897,-2.68783 -0.75201,-0.33421 -1.34387,-0.96945 -1.73116,-1.77398 -1.47351,1.07334 -2.42098,0.94522 -3.4814,1.09944 l 1.38848,-1.38848 -3.6539,0.14618 c 0.0652,-1.3622 0.71269,-2.14779 1.66885,-2.90515 0.89688,-0.71044 1.00403,-2.21666 0.88888,-2.79494 -1.65615,1.12063 -3.35143,2.22821 -6.72317,2.77697 0.55255,-0.63983 1.2287,-0.78527 1.60771,-2.11927 -1.46639,-0.0145 -2.84117,0.24585 -4.67699,-0.87693 -0.45702,-0.87694 -0.99619,-1.75387 -2.41157,-2.63081 0.60917,-0.8967 1.71319,-1.34256 1.68079,-3.28851 0.74725,-1.23923 2.40034,-1.91876 3.72698,-2.19234 l -1.24233,-1.02309 c 1.93263,-1.44433 4.09399,-1.05879 6.21163,-1.02309 0.34989,-0.69646 -1.34886,-2.0075 -4.89623,-3.87313 0.95751,-0.71895 1.99849,-1.23265 2.77697,-1.16925 -0.64409,-0.27961 -1.05694,-0.4497 -0.95001,-1.09617 0.97333,0.0488 1.54067,0.0975 4.75006,0.14616 l -0.87693,-1.16925 c 2.0302,0.77189 2.36475,-1.84751 7.01548,4.16544 0.29252,-0.78637 0.11844,-1.77271 -0.95001,-3.14235 3.37939,1.49169 6.47193,3.17964 6.21849,7.18545 1.45386,-0.62351 2.75347,0.56836 3.81551,2.04276 -1.12927,-8.59333 3.43417,-11.0986 5.99418,-11.1099 -0.17713,0.90659 0.20678,1.42744 2.22198,0.82679 -0.84094,0.69583 -1.6819,1.39165 -1.44687,2.22198 -2.66781,-0.32829 -3.03291,0.98821 -3.87555,1.96361 l 3e-5,3.97889 2.9564,-0.0744 c -0.25832,-4.0245 1.51198,-5.21358 5.45462,-7.25442 z m -4.34448,9.24495 c -1.76545,0.1052 -3.73214,-0.49948 -4.06737,4.26417 0.7871,-0.17446 1.67665,-0.15258 1.8826,-0.15809 0.14315,-1.32321 3.01788,-3.80393 2.58527,-3.42512 z"
             id="path28"
             sodipodi:nodetypes="ccccccccccccccccccccscccccsccscsscsccscccccscccccccccccccccccccccccccccccc" />
          <path
             style="color:#000000;display:inline;fill:#453f20;stroke-linecap:round;stroke-linejoin:round;-inkscape-stroke:none"
             d="m 212.5332,117.05469 c -1.40943,0.006 -3.29808,0.69031 -4.69531,2.49219 -1.26971,1.63743 -1.96295,4.33607 -1.67383,8.0664 -0.37547,-0.4309 -0.72402,-0.91334 -1.16992,-1.19531 -0.576,-0.36424 -1.25344,-0.46418 -1.93945,-0.33008 -0.0125,-1.85378 -0.67351,-3.31633 -1.80078,-4.39062 -1.22881,-1.17106 -2.88649,-1.97642 -4.58594,-2.72657 -0.37953,-0.16576 -0.72992,0.28372 -0.47656,0.61133 0.6374,0.81708 0.84815,1.40194 0.91211,1.9082 -1.86106,-2.25474 -3.10379,-3.25115 -4.05469,-3.45117 -0.53911,-0.1134 -0.98108,-0.0334 -1.35352,0.008 -0.37244,0.0412 -0.67743,0.0575 -1.11133,-0.10743 -0.37432,-0.14262 -0.70266,0.2924 -0.46289,0.61328 l 0.37696,0.50391 c -1.9596,-0.04 -3.10205,-0.0786 -3.91016,-0.11914 -0.20277,-0.01 -0.38078,0.13372 -0.41406,0.33398 -0.0641,0.38753 0.0718,0.74616 0.29687,0.98438 -0.66074,0.21086 -1.32884,0.54344 -1.9707,1.02539 -0.23461,0.17661 -0.20532,0.53737 0.0547,0.67383 1.7628,0.92709 3.06246,1.71717 3.84961,2.33594 0.34287,0.1483 0.56381,0.57327 0.79695,0.77757 -1.95628,-0.0712 -4.08731,-0.33173 -6.01562,1.10937 -0.20724,0.15569 -0.21396,0.46434 -0.0137,0.62891 l 0.69727,0.57422 c -1.23332,0.3557 -2.56161,0.9497 -3.27148,2.12695 -0.0384,0.0643 -0.058,0.13803 -0.0566,0.21289 0.0149,0.89685 -0.2105,1.37661 -0.51954,1.79102 -0.30903,0.41441 -0.74141,0.74985 -1.09179,1.26562 -0.12777,0.18785 -0.0737,0.44427 0.11914,0.56446 1.35255,0.83801 1.81964,1.61704 2.26758,2.47656 0.0337,0.0644 0.0844,0.11845 0.14648,0.15625 1.651,1.00974 2.98028,0.95324 4.22266,0.92773 -0.11648,0.21422 -0.21748,0.50381 -0.35743,0.64258 -0.24926,0.24718 -0.57139,0.45262 -0.89062,0.82227 -0.24422,0.28288 -0.002,0.7164 0.36719,0.65625 3.03375,-0.49375 4.72366,-1.46746 6.23437,-2.45899 -0.009,0.19841 0.0222,0.32256 -0.0293,0.54492 -0.11148,0.48139 -0.33693,0.95001 -0.6836,1.22461 -0.99279,0.78638 -1.74746,1.71804 -1.81836,3.19922 -0.0106,0.23355 0.18042,0.42641 0.41406,0.41797 l 2.63282,-0.10547 -0.66602,0.66602 c -0.27094,0.27278 -0.0386,0.73345 0.3418,0.67773 0.9044,-0.13153 1.94632,-0.16334 3.28515,-0.99609 0.36957,0.62913 0.86305,1.14439 1.48243,1.48242 -0.0713,0.95424 0.12066,1.92123 0.64257,2.70313 0.50077,0.7502 1.26153,1.20799 2.10157,1.37695 0.015,1.4825 1.09041,2.66706 2.55859,3.07812 -0.40213,0.91431 -0.48681,1.92572 -0.0898,2.83594 0.40426,0.92695 1.21704,1.58062 2.17187,1.94336 -0.62596,1.64153 -0.26949,3.49032 1.11133,4.5957 1.49306,1.19524 3.63194,1.19524 5.125,0 1.36238,-1.09061 1.71231,-2.89983 1.11133,-4.49414 1.20392,-0.16687 2.30404,-0.80067 2.9043,-1.87109 0.61797,-1.10197 0.57774,-2.41251 0.0293,-3.54883 0.76651,-0.58863 1.23013,-1.45491 1.31446,-2.43555 1.01901,-0.003 2.00798,-0.41975 2.66796,-1.2871 0.7016,-0.92201 0.9377,-2.14316 0.73633,-3.31836 0.41002,-0.33386 0.72333,-0.78229 0.97071,-1.29493 0.39841,0.0366 0.87376,0.26687 1.45898,0.57227 0.63763,0.33276 1.40463,0.681 2.29687,0.50977 0.25454,-0.0486 0.39639,-0.32272 0.28907,-0.5586 l -0.27735,-0.60937 2.48828,0.11523 c 0.23517,0.0108 0.42877,-0.1828 0.41797,-0.41797 -0.0322,-0.67241 -0.0399,-1.39282 -0.1914,-2.05664 -0.15151,-0.66381 -0.47933,-1.30446 -1.14063,-1.6582 -0.47032,-0.25159 -0.67013,-0.66375 -0.75195,-1.12891 -0.0418,-0.23749 0.0119,-0.39568 0.0293,-0.61133 0.65216,0.46197 1.30064,0.96374 2.08203,1.33594 0.99838,0.47556 2.16235,0.73063 3.50586,0.39649 0.29039,-0.0713 0.40278,-0.42435 0.20703,-0.65039 -0.13199,-0.15284 0.0477,-0.16499 0.14032,-0.1893 0.47874,0.0644 0.37707,0.0456 0.92804,0.0428 0.8621,-0.004 1.80668,-0.3124 2.53515,-1.33203 0.0929,-0.13218 0.327,-0.87186 0.86912,-1.46678 0.37599,-0.4126 0.86817,-0.73813 1.64258,-0.85547 0.21316,-0.0321 0.36258,-0.22726 0.33789,-0.4414 -0.0676,-0.58084 -0.38326,-1.00393 -0.66015,-1.50586 -0.2769,-0.50193 -0.55107,-1.08815 -0.65625,-2 -0.006,-0.0573 -0.025,-0.11265 -0.0547,-0.16211 -0.67421,-1.11809 -1.99847,-1.76671 -3.35156,-1.91992 l 0.33398,-0.26172 c 0.1976,-0.15567 0.2042,-0.45291 0.0137,-0.61719 -1.78967,-1.55681 -3.89629,-1.49776 -5.92383,-1.40625 0.13693,-0.21709 0.39607,-0.5274 0.78321,-0.88867 0.79146,-0.73856 2.08206,-1.68823 3.83398,-2.68164 0.28945,-0.16259 0.26632,-0.58666 -0.0391,-0.7168 -0.59868,-0.25721 -0.86374,-0.58888 -1.09766,-0.91211 -0.11695,-0.16161 -0.21862,-0.32383 -0.37109,-0.47656 -0.0368,-0.0369 -0.11535,-0.0349 -0.16211,-0.0684 -0.0726,-0.27493 -0.1995,-0.28026 -0.47853,-0.28895 -0.13096,0.0138 -0.29764,0.0448 -0.49218,0.0645 -0.19454,0.0196 -0.40553,0.022 -0.52149,0 -0.10255,0.002 -0.0989,-0.11136 -0.1543,-0.17379 -0.0727,-0.0707 -0.11293,-0.16571 -0.21289,-0.32812 -0.1,-0.16241 -0.33984,-0.38911 -0.64454,-0.42578 -0.42015,-0.0506 -1.35777,0.39359 -2.23828,0.76953 l 0.28321,-0.52539 c 0.17339,-0.32239 -0.14143,-0.68904 -0.48633,-0.56641 -1.89781,0.67076 -1.75828,-0.70124 -6.11133,3.46875 -0.0703,-0.18634 -0.17295,-0.38986 -0.18945,-0.57031 -0.033,-0.36035 0.0459,-0.76874 0.53711,-1.39844 0.0653,-0.12524 0.0448,-0.0704 0.086,-0.24611 0.10502,-0.45401 -0.44281,-0.4116 -0.56249,-0.36529 -1.70993,0.75478 -3.19324,1.57104 -4.23242,2.76563 -0.96152,1.10531 -1.44681,2.58351 -1.41601,4.46289 l -2.20118,0.0566 v -3.42383 c 0.39955,-0.48939 0.68841,-0.98423 1.09766,-1.30078 0.44557,-0.34465 1.0627,-0.56807 2.33008,-0.41211 0.28376,0.0348 0.51133,-0.23075 0.43359,-0.50586 -0.0755,-0.26669 0.005,-0.49453 0.25,-0.80664 0.24472,-0.31211 0.64594,-0.65013 1.06641,-0.99805 0.33484,-0.27785 0.048,-0.81505 -0.36914,-0.6914 -0.97061,0.2893 -1.49843,0.25019 -1.63477,0.17969 -0.0682,-0.0353 -0.0757,-0.0485 -0.0957,-0.12696 -0.02,-0.0785 -0.0221,-0.22704 0.0156,-0.41992 0.0483,-0.24775 -0.14213,-0.47774 -0.39453,-0.47656 z m -0.39453,0.89844 c -0.0595,0.41129 0.17976,0.62423 0.5019,0.83593 0.23044,0.15144 0.72166,-0.0413 1.06055,-0.0586 -0.12568,0.12476 -0.28022,0.22941 -0.38672,0.36523 -0.21937,0.27979 -0.21812,0.65851 -0.25976,1.01758 -1.201,-0.0888 -2.05013,0.13232 -2.61133,0.56641 -0.61459,0.47538 -0.9307,1.08343 -1.3125,1.52539 -0.0622,0.0729 -0.0962,0.16583 -0.0957,0.26172 v 3.97851 c -2.7e-4,0.22508 0.18514,0.40608 0.41015,0.40039 l 2.95508,-0.0742 c 0.22688,-0.006 0.40335,-0.1993 0.38867,-0.42578 -0.12522,-1.95094 0.35717,-3.25842 1.26563,-4.30273 0.73661,-0.84678 1.83951,-1.50226 3.09765,-2.11914 -0.0915,0.30111 -0.35001,0.64945 -0.32617,0.91015 0.0514,0.56222 0.29361,0.9904 0.42578,1.34571 0.10103,0.27098 0.44737,0.34852 0.6543,0.14648 3.93444,-3.86097 4.32073,-3.4916 5.41797,-3.56836 l -0.38672,0.7168 c -0.18597,0.3406 0.17322,0.7199 0.52344,0.55273 1.86198,-0.87944 2.66532,-1.06607 2.80859,-1.04882 0.0795,0.0749 0.20129,0.23726 0.29493,0.34763 0.0537,0.17925 0.13205,0.31735 0.26367,0.4121 0.13163,0.0948 0.26749,0.1353 0.39844,0.16016 0.2619,0.0497 0.5231,0.0328 0.75196,0.01 0.15139,-0.0153 0.23183,-0.029 0.32812,-0.043 0.0812,0.0539 0.009,-0.0148 0.1582,0.1074 0.0691,0.0566 0.16044,0.20116 0.28907,0.3789 0.16944,0.23415 0.58223,0.50974 0.9414,0.77735 -1.50044,0.89345 -2.77446,1.77061 -3.53515,2.48047 -0.42865,0.39999 -0.74058,0.75273 -0.9375,1.07226 -0.0985,0.15977 -0.17081,0.31146 -0.20508,0.48047 -0.0343,0.16901 -0.0212,0.38596 0.10937,0.55664 0.0797,0.10393 0.20514,0.16229 0.33594,0.15625 2.01039,-0.0915 3.84437,-0.16202 5.43164,0.94922 l -0.58008,0.45508 c -0.32304,0.25531 -0.0962,0.77331 0.31055,0.70898 1.26679,-0.20468 2.88549,0.6328 3.53711,1.71094 0.13747,0.9216 0.41951,1.63128 0.69726,2.13476 0.24586,0.44566 0.38347,0.72448 0.4668,1 -0.66887,0.20352 -1.29868,0.46294 -1.67773,0.87891 -0.47784,0.52438 -0.75876,1.12522 -0.97071,1.61523 -0.22197,0.46322 -1.11149,0.82017 -1.84567,0.92384 -0.70564,0.004 -1.50209,-0.22293 -2.32031,-0.21484 -0.26303,0.003 -0.45174,0.25449 -0.38086,0.50781 0.0796,0.28034 0.14472,0.43494 0.21875,0.58789 -0.69693,-0.002 -1.34964,-0.11777 -1.95117,-0.40429 -0.88699,-0.4225 -1.70837,-1.07383 -2.55469,-1.64649 -0.22313,-0.15141 -0.5291,-0.0432 -0.60742,0.21484 -0.11064,0.36612 -0.19187,0.94389 -0.082,1.56836 0.10984,0.62448 0.44363,1.30994 1.16406,1.69532 0.41426,0.22159 0.6146,0.59093 0.73828,1.13281 0.0953,0.41748 0.10854,0.95087 0.13281,1.47461 l -2.68554,-0.125 c -0.29827,-0.0137 -0.50584,0.29239 -0.38282,0.56445 l 0.22657,0.5 c -0.38508,-0.0609 -0.76746,-0.0782 -1.16407,-0.28515 -0.60479,-0.31562 -1.22664,-0.72924 -1.97851,-0.7129 -0.16338,0.004 -0.30798,0.1067 -0.36524,0.25977 -0.24016,0.6475 -0.60373,1.11952 -1.07617,1.44531 -0.13357,0.092 -0.19837,0.25555 -0.16406,0.41407 0.21924,1.01038 -0.006,2.09152 -0.58984,2.85937 -0.58428,0.76785 -1.43566,1.13293 -2.30079,1.0332 -0.24008,-0.0274 -0.44944,0.1627 -0.44531,0.4043 0.017,0.96519 -0.45539,1.83239 -1.24219,2.32422 -0.18435,0.11491 -0.24331,0.35594 -0.13281,0.54297 0.56495,0.95778 0.57944,2.10893 0.0469,3.05859 -0.53254,0.94967 -1.53756,1.55257 -2.63477,1.58203 -0.2968,0.008 -0.48135,0.32581 -0.3418,0.58789 0.71366,1.35468 0.36231,3.00055 -0.83984,3.96289 -1.20214,0.96235 -2.92286,0.96235 -4.125,0 -1.20214,-0.96234 -1.55525,-2.60922 -0.8457,-4.01562 0.11282,-0.2237 -0.005,-0.49488 -0.2461,-0.56445 -0.89126,-0.25601 -1.60995,-0.85848 -1.95703,-1.6543 -0.34707,-0.79582 -0.29114,-1.70032 0.16211,-2.49219 0.13942,-0.24516 -0.0118,-0.55375 -0.29101,-0.59375 -1.43839,-0.19999 -2.44138,-1.41849 -2.3125,-2.75976 0.0217,-0.2222 -0.14274,-0.41913 -0.36524,-0.4375 -0.73036,-0.0601 -1.38258,-0.45753 -1.83203,-1.13086 -0.44945,-0.67334 -0.63885,-1.56141 -0.52539,-2.41407 0.0232,-0.17588 -0.0722,-0.34602 -0.23438,-0.41796 -0.65129,-0.28945 -1.1793,-0.84687 -1.5332,-1.58204 -0.10813,-0.22504 -0.39371,-0.29713 -0.5957,-0.15039 -0.87101,0.63447 -1.5127,0.79826 -2.13867,0.88282 l 0.56445,-0.56446 c 0.25931,-0.25741 0.0662,-0.69912 -0.29883,-0.68359 l -3.11133,0.125 c 0.16887,-0.92253 0.60591,-1.54836 1.39063,-2.16992 0.55021,-0.43584 0.82731,-1.07602 0.96484,-1.66992 0.13753,-0.59391 0.14357,-1.1399 0.0684,-1.51758 -0.0564,-0.28057 -0.38056,-0.41291 -0.61719,-0.25196 -1.36182,0.92148 -2.9129,1.73013 -5.18945,2.3125 0.25644,-0.30374 0.51652,-0.62678 0.68359,-1.21484 0.0725,-0.25398 -0.11675,-0.50723 -0.38085,-0.50977 -1.49712,-0.0148 -2.71214,0.21727 -4.41407,-0.79882 -0.4073,-0.76201 -1.01685,-1.56849 -2.11718,-2.35157 0.25167,-0.29187 0.53629,-0.56169 0.83984,-0.96875 0.38717,-0.51918 0.69715,-1.2341 0.67969,-2.2832 l -0.0586,0.21289 c 0.64593,-1.0712 2.20215,-1.74742 3.46485,-2.00781 0.32769,-0.0685 0.43128,-0.48523 0.17382,-0.69922 l -0.77929,-0.64258 c 1.67086,-0.96922 3.5131,-0.72861 5.48828,-0.69531 0.15339,0.002 0.29452,-0.0836 0.36328,-0.2207 0.16836,-0.33512 0.0639,-0.7252 -0.14258,-1.03711 -0.20646,-0.31192 -0.52233,-0.61644 -0.95312,-0.95508 -0.71664,-0.56333 -1.94725,-1.26587 -3.30274,-2.00781 0.70319,-0.41929 1.45643,-0.85763 1.89063,-0.82227 0.45037,0.036 0.60572,-0.58544 0.1914,-0.76562 -0.30021,-0.13033 -0.49667,-0.23396 -0.59765,-0.31446 0.81702,0.0433 1.37797,0.0876 4.23242,0.13086 0.33301,0.005 0.52651,-0.37456 0.32617,-0.64062 l -0.33789,-0.45117 c 0.15105,-0.002 0.35026,0.0654 0.48242,0.0508 0.40662,-0.045 0.72192,-0.0994 1.10157,-0.0195 0.75929,0.15971 1.95053,0.91982 4.25585,3.90039 0.19205,0.24824 0.58211,0.18874 0.69141,-0.10547 0.24574,-0.6606 0.0513,-1.47876 -0.38867,-2.37696 1.24397,0.59582 2.41253,1.22774 3.25976,2.03516 1.09895,1.04729 1.74307,2.32365 1.62305,4.2207 -0.0185,0.29728 0.2828,0.50975 0.55664,0.39258 0.6024,-0.25835 1.11804,-0.15256 1.6836,0.20508 0.56555,0.35764 1.13472,0.98919 1.65039,1.70508 0.24354,0.33672 0.77541,0.12483 0.7207,-0.28711 -0.55491,-4.22267 0.29103,-6.8727 1.5332,-8.47461 1.11847,-1.44238 2.54672,-1.97315 3.66797,-2.08398 z m 1.33789,10.00976 c -0.82849,0.0494 -1.84699,-0.10861 -2.7539,0.44141 -0.90692,0.55002 -1.51596,1.75571 -1.6875,4.19336 -0.0194,0.26667 0.22315,0.47699 0.48437,0.41992 0.71804,-0.15915 1.54161,-0.1433 1.80664,-0.15039 0.20029,-0.004 0.3664,-0.15637 0.38867,-0.35547 0.14953,-1.25201 0.87861,-2.07154 1.83787,-2.77731 0.1557,-0.0288 0.27976,-0.14673 0.31641,-0.30078 0.0524,-0.35197 0.0283,-0.70496 0.0311,-1.05857 0.008,-0.23533 -0.18881,-0.42623 -0.42383,-0.41211 z m -0.39062,0.85938 -0.0117,0.42968 c -0.97154,0.54583 -1.76801,1.6009 -2.02344,2.83789 -0.19693,1.4e-4 -0.64648,0.0491 -1.12891,0.0977 0.20943,-1.8736 0.67096,-2.76662 1.2168,-3.09766 0.59035,-0.35803 1.28677,-0.33815 1.94725,-0.26761 z m -10.0918,0.45507 c -0.50762,0.025 -0.98871,0.17328 -1.4707,0.28339 -0.0125,0.0599 0.006,0.51773 0.0219,0.56644 0.62453,0.57808 1.30989,1.41991 1.92774,2.62305 0.0714,0.13888 0.21704,0.22353 0.37304,0.2168 0.50352,-0.0217 0.99779,0.11158 1.41016,0.33984 0.27372,0.14993 0.60606,-0.0574 0.5918,-0.36914 -0.0544,-1.10929 -0.20982,-1.89259 -0.46875,-2.46484 -0.25894,-0.57226 -0.65203,-0.93365 -1.08985,-1.09375 -0.41716,-0.17855 -0.85753,-0.11424 -1.29534,-0.10179 z m 1.02148,0.85157 c 0.24158,0.0825 0.44143,0.24654 0.63477,0.67382 0.14575,0.32211 0.22686,0.97442 0.30078,1.63868 -0.2876,-0.0918 -0.56468,-0.19806 -0.8789,-0.21094 -0.47642,-0.88768 -0.99102,-1.47706 -1.49805,-2.03125 0.74454,-0.25367 0.93949,-0.2418 1.4414,-0.0703 z"
             id="path29"
             sodipodi:nodetypes="cscscscccscccccccccsccccccscccccscccsscccccccsccscsscsccsccscccccssscscccccsccsccccccsccsscccscssccccccccscccscccccssccccscscsccccccscscccccccssccsscsssccccccscscccccsccsssccccscccccccccsccssscsccccsccccccccsscccccccscccccccsscccccccccsccsccsccsccccscccccccccccccccccccsccscsssccss" />
        </g>
        <path
           style="color:#000000;display:inline;fill:#453f20;stroke-linecap:round;stroke-linejoin:round;-inkscape-stroke:none"
           d="m 198.22656,112.10547 c -0.62975,0.1508 -0.77113,0.37543 -1.14844,0.52344 a 1,1 0 0 0 -0.5664,1.29492 1,1 0 0 0 1.29687,0.5664 c 0.64188,-0.25178 0.95189,-0.45599 0.88282,-0.43945 -0.0555,0.0133 0.16153,0.0814 0.51757,0.25 -0.13266,0.0913 -0.31253,0.12343 -0.43359,0.22461 -0.49746,0.41577 -0.9027,0.88983 -1.13477,1.48047 -0.11603,0.29532 -0.19346,0.63695 -0.125,1.0293 0.0685,0.39234 0.3375,0.80443 0.68555,1.03125 0.18235,0.11883 0.39383,0.12086 0.59375,0.18554 -0.016,0.0889 -0.0725,0.15245 -0.0762,0.24805 -0.0153,0.39968 0.12899,0.86181 0.41797,1.19336 0.26302,0.30175 0.57031,0.28057 0.86328,0.31055 -0.005,0.0407 -0.0366,0.061 -0.0391,0.10351 -0.0275,0.4643 0.2204,1.03125 0.61133,1.33399 0.26122,0.20229 0.57568,0.23156 0.88085,0.29101 -0.002,0.0119 -0.01,0.0212 -0.0117,0.0332 -0.0559,0.37891 -0.0337,0.95403 0.44336,1.36328 0.40538,0.34777 0.92867,0.39823 1.31835,0.33984 0.38969,-0.0584 0.72367,-0.20226 1.05274,-0.38281 0.65814,-0.36111 1.29751,-0.89629 1.86914,-1.51367 0.44978,-0.48578 0.77614,-1.04912 1.06836,-1.6211 0.0882,0.0756 0.15553,0.005 0.25391,0.11719 a 1,1 0 0 0 1.41015,0.0937 1,1 0 0 0 0.0937,-1.41016 c -0.44426,-0.50795 -0.97475,-0.83551 -1.52539,-1.03711 -0.0988,-0.24614 -0.12461,-0.51435 -0.32226,-0.70507 -0.47121,-0.45468 -1.05185,-0.58248 -1.63672,-0.60938 -0.1331,-0.4258 -0.37301,-0.82055 -0.79688,-1.0918 -0.33933,-0.21714 -0.70245,-0.31346 -1.06445,-0.34961 -0.21621,-0.35417 -0.4728,-0.70029 -0.8457,-0.96875 -0.38388,-0.27635 -0.81244,-0.39165 -1.24024,-0.43164 -0.33228,-0.42893 -0.76135,-0.79335 -1.33789,-0.98632 -0.74336,-0.38352 -1.35299,-0.61098 -1.95508,-0.4668 z"
           id="path183" />
      </g>
      <g
         id="g140"
         inkscape:label="Bottom"
         transform="translate(2.4946072,210.17231)"
         style="display:inline">
        <use
           x="0"
           y="0"
           xlink:href="#path180"
           id="use139"
           style="display:inline" />
        <use
           x="0"
           y="0"
           xlink:href="#path183"
           id="use140"
           style="display:inline" />
      </g>
    </g>
    <g
       id="g13"
       inkscape:label="Grapes left/right"
       style="display:inline"
       transform="translate(-1.5215876e-6)">
      <g
         id="g181"
         inkscape:label="Left (reference)">
        <path
           style="color:#000000;fill:#453f20;stroke-linecap:round;stroke-linejoin:round;-inkscape-stroke:none"
           d="m 133.16602,219.11719 c -0.82,0.0986 -1.59449,0.28328 -2.29688,0.47265 -0.94055,0.2536 -1.71115,0.6849 -2.39258,1.1836 -0.82292,-0.003 -1.68512,0.0749 -2.60742,0.3125 -1.11832,0.28809 -1.99918,0.85995 -2.74219,1.53125 -1.54899,-0.10296 -3.30834,0.24464 -5.1289,1.23437 a 2,2 0 0 0 -0.80274,2.71289 2,2 0 0 0 2.71289,0.80078 c 0.40995,-0.22286 0.72992,-0.3109 1.07618,-0.4375 -0.0572,0.80082 0.005,1.6102 0.45703,2.40039 0.60492,1.05747 2.11726,1.7966 3.41601,1.59961 1.42878,-0.2167 2.67652,-1.17928 3.17774,-2.45117 0.99746,0.53413 2.25704,0.65719 3.35156,0.20117 1.15925,-0.48298 2.13006,-1.40588 2.47461,-2.59375 0.28195,-0.97205 0.0225,-1.96057 -0.44922,-2.80078 0.5966,-0.0731 1.29876,-0.24366 1.65234,-0.18359 0.33751,0.0573 0.44224,0.14732 0.44141,0.14648 -8.3e-4,-8.3e-4 0.0446,-0.0462 0.0508,0.32813 a 2,2 0 0 0 2.0332,1.9668 2,2 0 0 0 1.9668,-2.03321 c -0.0192,-1.15742 -0.44317,-2.3069 -1.21094,-3.08008 -0.76777,-0.77317 -1.72887,-1.12155 -2.61133,-1.27148 -0.88245,-0.14993 -1.74836,-0.13768 -2.56835,-0.0391 z"
           id="path75" />
        <g
           id="path77"
           inkscape:label="Grape">
          <path
             style="color:#000000;fill:#000000;stroke-linecap:round;stroke-linejoin:round;-inkscape-stroke:none"
             d="m 127.28504,231.81787 c 0.088,-0.046 0.12294,-0.14128 0.16294,-0.23378 2.85535,-3.64441 5.91033,-3.44603 9.20783,-2.99619 -0.64333,0.54869 -0.28512,0.74614 -1.73615,1.7236 2.13463,0.4099 3.65779,-0.52366 6.70545,4.26879 l -2.04618,-0.14616 c 0.97186,1.07181 2.36946,2.14362 1.68079,3.21543 -2.20336,-0.22523 -3.84888,-0.17053 -5.70008,-0.21923 3.66302,2.25602 4.44412,3.01803 6.06547,4.9693 -0.76676,-0.0382 -1.92313,1.09238 -3.06928,2.19234 1.15951,1.13693 0.86422,2.90132 0.95002,4.9693 -1.85796,-0.78735 -4.37347,-2.69586 -7.82647,-2.04654 -0.38039,0.13182 -0.70294,0.20586 -1.09014,0.24256 0.137,1.00488 -0.15078,2.02044 -0.83063,2.74628 -0.67986,0.72584 -1.66652,1.07092 -2.67672,0.95827 0.59925,1.12277 0.59609,2.54732 -0.0406,3.63282 -0.63665,1.08553 -1.77908,1.61422 -2.91831,1.45974 1.17893,0.67911 1.77909,2.02106 1.3712,3.26101 -0.40789,1.23995 -1.69748,1.99385 -3.05283,1.77937 0.34377,1.25644 -0.0274,2.63882 -0.94907,3.40963 -0.92167,0.7708 -2.17245,0.74488 -3.06969,-0.0636 -0.89725,-0.80847 -1.22545,-2.20534 -0.77668,-3.52111 -1.44919,-0.0851 -2.71326,-0.97216 -2.94841,-2.18221 -0.23514,-1.21005 0.6289,-2.38153 2.02559,-2.80027 -1.16321,0.12498 -2.32109,-0.31615 -2.94097,-1.158 -0.61988,-0.84186 -0.57909,-1.91783 0.10392,-2.74211 -1.46842,0.32318 -3.0545,-0.13669 -3.85265,-1.13515 -0.79815,-0.99846 -0.60535,-2.28156 0.40041,-3.14826 -1.42648,-0.18183 -2.54536,-1.04297 -2.89666,-2.20815 -0.3513,-1.16518 0.1352,-2.40152 1.22992,-3.12562 1.09472,-0.72411 2.57888,-0.79126 3.75419,-0.23264 -0.11249,-1.58229 -0.33124,-3.19832 -2.02736,-4.01463 0.49608,2.75466 -2.06946,4.25467 -2.99619,4.82315 -1.55954,-0.12037 -2.74639,-0.3031 -6.94241,2.04618 -0.12167,-3.58026 0.53244,-3.7988 0.95001,-5.04238 -0.13138,-1.05374 -1.17422,-0.96816 -2.04618,-1.09617 1.50457,-4.99743 3.28877,-4.13539 4.9693,-5.26162 -2.6069,-1.14381 -3.51986,-0.68382 -5.846236,0.29229 -0.181913,-1.1843 -0.05452,-2.69583 2.046186,-4.09237 l -2.192342,0.29231 c 1.832222,-3.0482 4.560742,-3.02274 7.161642,-2.9962 0.16488,-0.91343 -1.50258,-1.02304 -3.06928,-1.16924 3.09526,-4.46638 8.98425,-0.83797 9.60976,0.76731 0.62552,1.60528 0.31717,3.12382 -0.65348,4.27842 6.26829,-2.35829 7.85374,-0.4275 8.11361,1.66933 -0.7195,1.29101 -2.75761,1.83255 -2.11031,6.1595 0.3353,-0.0314 0.68579,-0.0177 1.03372,0.001 -0.11514,-4.86769 4.44346,-9.32476 -5.1047,-14.52027 -6.78574,-2.3272 -11.48511,-0.27054 -13.08096,-4.42121 4.16988,0.54295 3.01145,0.12798 13.37682,2.39422 3.36431,0.73556 5.89287,3.09022 7.38976,7.70943 2.69729,-0.0149 4.5746,-0.52472 6.18243,1.31106 z m -5.5921,1.34953 c -0.0528,0.46192 -0.12367,0.87792 -0.15705,1.25905 l 2.89494,0.0698 c 1.01343,0.017 1.61988,-0.19209 1.99816,-0.58041 -0.97922,-1.65457 -3.23429,-1.42188 -4.88309,-1.37796 0.0248,0.20877 0.10635,0.41731 0.14704,0.62948 z"
             id="path26" />
          <path
             style="color:#000000;fill:#453f20;stroke-linecap:round;stroke-linejoin:round;-inkscape-stroke:none"
             d="m 100.38672,220.00586 a 0.40004001,0.40004001 0 0 0 -0.423829,0.54101 c 0.426529,1.10938 1.096069,1.85189 1.941409,2.32032 0.84534,0.46842 1.84302,0.67594 2.97265,0.82617 2.25213,0.2995 5.06275,0.3716 8.38086,1.50391 2.33149,1.27333 3.78351,2.48775 4.64844,3.64257 0.57339,0.76558 0.84163,1.5034 1.00586,2.23828 -0.28764,-0.28767 -0.53087,-0.60923 -0.97852,-0.77539 -1.21874,-0.45237 -3.11441,-0.25987 -5.74414,0.61329 0.60976,-1.13489 0.86196,-2.44115 0.32227,-3.82618 -0.21496,-0.55166 -0.74547,-1.08086 -1.4707,-1.60351 -0.72524,-0.52265 -1.65133,-1.00548 -2.67188,-1.29492 -1.02055,-0.28945 -2.13831,-0.38544 -3.22266,-0.0996 -1.08434,0.28582 -2.12518,0.96219 -2.94726,2.14843 a 0.40004001,0.40004001 0 0 0 0.29297,0.62696 c 0.78721,0.0735 1.58569,0.14219 2.11523,0.28515 0.16394,0.0443 0.23224,0.0956 0.33008,0.14649 -1.10111,-0.003 -2.22854,-0.0283 -3.32422,0.30078 -1.31456,0.39486 -2.557999,1.22846 -3.51953,2.82812 a 0.40004001,0.40004001 0 0 0 0.394531,0.60352 l 0.871094,-0.11719 c -0.44929,0.46433 -0.799078,0.93551 -0.982422,1.40821 -0.304608,0.78533 -0.286414,1.54063 -0.189453,2.17187 a 0.40004001,0.40004001 0 0 0 0.548828,0.30859 c 1.166644,-0.4895 1.947402,-0.82734 2.708982,-0.91211 0.47325,-0.0527 1.14983,0.21423 1.75391,0.38282 -0.50317,0.18732 -0.97246,0.34377 -1.53906,0.71289 -0.93677,0.61026 -1.817291,1.75615 -2.583988,4.30273 a 0.40004001,0.40004001 0 0 0 0.324219,0.50977 c 0.471327,0.0692 0.934819,0.0875 1.234379,0.18554 0.27758,0.0908 0.38106,0.19858 0.4375,0.52344 -0.39032,1.04124 -1.03435,1.56498 -0.91602,5.04688 a 0.40004001,0.40004001 0 0 0 0.59375,0.33593 c 2.08012,-1.16462 3.39598,-1.68826 4.35547,-1.9082 0.95949,-0.21994 1.57384,-0.14867 2.36133,-0.0879 a 0.40004001,0.40004001 0 0 0 0.006,-0.002 c -0.373,0.70557 -0.55593,1.47961 -0.31836,2.26758 0.35482,1.17687 1.43464,1.96333 2.73633,2.29296 -0.75353,0.96608 -0.96217,2.20815 -0.16993,3.19922 0.79855,0.99896 2.20998,1.37172 3.61328,1.25586 -0.40163,0.85528 -0.45367,1.81887 0.12696,2.60742 0.51098,0.69397 1.33588,1.0302 2.21679,1.17969 -0.92364,0.64575 -1.58165,1.54565 -1.37304,2.61914 0.25482,1.31127 1.51427,2.14931 2.93945,2.37305 -0.31112,1.3338 -0.0271,2.70631 0.91016,3.55078 1.03141,0.92939 2.53208,0.96015 3.59375,0.0723 0.95619,-0.79968 1.28594,-2.1268 1.08008,-3.4043 1.35727,0.0161 2.62513,-0.68474 3.04687,-1.9668 0.38165,-1.16018 -0.13704,-2.28825 -1.00195,-3.11914 0.99995,-0.12088 1.95303,-0.56751 2.51367,-1.52344 0.62064,-1.05814 0.60494,-2.35028 0.17773,-3.49609 0.93662,-0.031 1.84107,-0.33454 2.48633,-1.02344 0.68015,-0.72616 0.94518,-1.70796 0.90625,-2.69531 0.28436,-0.0469 0.56317,-0.0888 0.85352,-0.18945 l -0.0566,0.0156 c 3.27841,-0.61649 5.64335,1.19414 7.5957,2.02149 a 0.40004001,0.40004001 0 0 0 0.55664,-0.38477 c -0.0419,-1.01029 0.012,-1.9683 -0.0742,-2.85547 -0.0722,-0.74278 -0.31543,-1.42842 -0.76367,-2.02343 0.48974,-0.4692 0.98169,-0.94474 1.41211,-1.28321 0.50246,-0.39512 0.94747,-0.59283 1.125,-0.58398 a 0.40004001,0.40004001 0 0 0 0.32812,-0.6543 c -1.38437,-1.66607 -2.53436,-2.65469 -5.00781,-4.26172 1.36009,0.0161 2.64481,-0.004 4.29297,0.16406 a 0.40004001,0.40004001 0 0 0 0.37695,-0.18164 c 0.22182,-0.34522 0.28792,-0.73757 0.22266,-1.09179 -0.0653,-0.35423 -0.2389,-0.66922 -0.45117,-0.96485 -0.23383,-0.32564 -0.53343,-0.60615 -0.82227,-0.90429 l 1.05078,0.0742 a 0.40004001,0.40004001 0 0 0 0.36719,-0.61329 c -1.54633,-2.4316 -2.75073,-3.47473 -3.88281,-3.93359 -0.83253,-0.33744 -1.54134,-0.31651 -2.26953,-0.37695 0.18361,-0.17105 0.51085,-0.4013 0.60547,-0.53321 0.19896,-0.27738 0.22424,-0.39372 0.5,-0.6289 a 0.40004001,0.40004001 0 0 0 -0.20704,-0.70117 c -1.65733,-0.2261 -3.29471,-0.40027 -4.91211,-0.0312 -1.59031,0.36283 -3.13665,1.28864 -4.58789,3.10546 -0.78117,-0.72072 -1.63962,-1.10317 -2.5664,-1.19531 -0.9922,-0.0986 -2.07889,0.0107 -3.28125,0.0332 -1.54076,-4.50574 -4.14321,-6.94969 -7.5625,-7.69727 -10.36924,-2.26709 -9.25871,-1.85959 -13.41211,-2.40039 z m 0.87109,0.91601 c 2.83714,0.33282 3.16469,0.25321 12.36914,2.26563 3.23115,0.70645 5.62725,2.90995 7.09571,7.44141 a 0.40004001,0.40004001 0 0 0 0.38281,0.27734 c 1.37333,-0.008 2.51343,-0.13482 3.45703,-0.041 0.9436,0.0938 1.68089,0.36881 2.42188,1.21485 l -0.0996,-0.26172 a 0.40004001,0.40004001 0 0 0 0.58593,0.35351 c 0.25045,-0.13091 0.30979,-0.35114 0.34375,-0.42968 l -0.0508,0.0879 c 1.38279,-1.76492 2.76263,-2.55824 4.21094,-2.88867 1.22944,-0.28051 2.53987,-0.19054 3.90625,-0.0273 -0.0266,0.0409 -0.0885,0.10532 -0.11524,0.14258 -0.14552,0.20288 -0.36779,0.45059 -1.07031,0.92383 a 0.40004001,0.40004001 0 0 0 0.14844,0.72461 c 1.13985,0.21888 2.01048,0.0938 2.93555,0.46875 0.80243,0.32524 1.77658,1.22 2.98632,2.94336 l -1.1582,-0.082 a 0.40004001,0.40004001 0 0 0 -0.32422,0.66796 c 0.50546,0.55744 1.08855,1.09172 1.4336,1.57227 0.17252,0.24027 0.28098,0.4609 0.31445,0.64258 0.0208,0.11284 -0.0346,0.21668 -0.0664,0.32031 -2.03902,-0.18459 -3.66514,-0.16153 -5.39453,-0.20703 a 0.40004001,0.40004001 0 0 0 -0.2207,0.74023 c 3.37362,2.07778 4.24853,2.8945 5.63281,4.5293 -0.3296,0.13569 -0.6633,0.19143 -0.99609,0.45313 -0.55395,0.4356 -1.13487,0.99972 -1.70703,1.54882 a 0.40004001,0.40004001 0 0 0 -0.004,0.57422 c 0.49378,0.48416 0.68235,1.09242 0.75977,1.88867 0.0594,0.61047 0.0455,1.38369 0.0547,2.15625 -1.75407,-0.85428 -4.16876,-2.42426 -7.48437,-1.80078 a 0.40004001,0.40004001 0 0 0 -0.0566,0.0156 c -0.35808,0.12409 -0.64039,0.18875 -0.99805,0.22265 a 0.40004001,0.40004001 0 0 0 -0.35742,0.45118 c 0.122,0.89485 -0.13547,1.78884 -0.72656,2.41992 -0.59111,0.63108 -1.44758,0.93348 -2.33985,0.83398 a 0.40004001,0.40004001 0 0 0 -0.39843,0.58594 c 0.53279,0.99826 0.52651,2.28793 -0.0332,3.24219 -0.55968,0.95429 -1.536,1.39899 -2.51953,1.26562 a 0.40004001,0.40004001 0 0 0 -0.25195,0.74219 c 1.03231,0.59466 1.53418,1.74113 1.18945,2.78906 -0.34473,1.04794 -1.43564,1.69551 -2.60937,1.50977 a 0.40004001,0.40004001 0 0 0 -0.44922,0.50195 c 0.30472,1.11371 -0.0367,2.34237 -0.81836,2.9961 -0.78167,0.65371 -1.78382,0.63484 -2.54688,-0.0527 -0.76306,-0.68756 -1.06567,-1.91819 -0.66406,-3.0957 a 0.40004001,0.40004001 0 0 0 -0.35547,-0.5293 c -1.30039,-0.0764 -2.38915,-0.87494 -2.58008,-1.85742 -0.19091,-0.98248 0.50447,-1.96896 1.74805,-2.3418 a 0.40004001,0.40004001 0 0 0 -0.1582,-0.78125 c -1.03577,0.11129 -2.05775,-0.29203 -2.57617,-0.99609 -0.51843,-0.70408 -0.48905,-1.55138 0.0898,-2.25 a 0.40004001,0.40004001 0 0 0 -0.39258,-0.64649 c -1.33157,0.29307 -2.7809,-0.15077 -3.45508,-0.99414 -0.67417,-0.84336 -0.52741,-1.83994 0.34961,-2.5957 a 0.40004001,0.40004001 0 0 0 -0.21093,-0.69922 c -1.29537,-0.16512 -2.26519,-0.93514 -2.56446,-1.92773 -0.29926,-0.99259 0.1029,-2.03718 1.06836,-2.67578 0.96546,-0.63862 2.31516,-0.70232 3.36133,-0.20508 a 0.40004001,0.40004001 0 0 0 0.57031,-0.39063 c -0.0569,-0.79983 -0.1379,-1.63853 -0.44726,-2.41406 -0.30937,-0.77553 -0.86975,-1.48167 -1.80469,-1.93164 a 0.40004001,0.40004001 0 0 0 -0.56836,0.43164 c 0.22448,1.24649 -0.22842,2.16582 -0.87109,2.89648 -0.62196,0.70711 -1.40038,1.17288 -1.87696,1.46485 -0.71895,-0.0567 -1.42621,-0.13147 -2.42578,0.0977 -0.92192,0.21133 -2.27674,0.83875 -3.92383,1.71094 0.007,-2.63927 0.47226,-3.06442 0.88282,-4.28711 a 0.40004001,0.40004001 0 0 0 0.0176,-0.17773 c -0.0819,-0.65713 -0.54488,-1.06997 -1.01757,-1.22461 -0.29781,-0.0974 -0.57536,-0.10778 -0.86133,-0.13672 0.6819,-2.03188 1.38145,-2.98161 2.07226,-3.43164 0.75161,-0.48964 1.62084,-0.55581 2.55469,-1.18164 a 0.40004001,0.40004001 0 0 0 -0.0606,-0.69922 c -1.33724,-0.58673 -2.30616,-0.78299 -3.23437,-0.67969 -0.74064,0.0824 -1.500261,0.42512 -2.335939,0.77344 -0.01964,-0.41004 -0.06697,-0.81826 0.103516,-1.25781 0.238786,-0.61564 0.728513,-1.27205 1.726563,-1.93555 a 0.40004001,0.40004001 0 0 0 -0.27344,-0.73047 l -1.158201,0.1543 c 0.731291,-0.87268 1.527501,-1.46456 2.425781,-1.73438 1.15797,-0.34782 2.44967,-0.34139 3.75,-0.32812 a 0.40004001,0.40004001 0 0 0 0.39844,-0.32813 c 0.0624,-0.34571 -0.0819,-0.70449 -0.31836,-0.91601 -0.23644,-0.21153 -0.5301,-0.32569 -0.85742,-0.41406 -0.42446,-0.1146 -0.95251,-0.14763 -1.45899,-0.19922 0.61271,-0.66361 1.27545,-1.12553 1.99219,-1.31446 0.90993,-0.23985 1.88399,-0.16431 2.80078,0.0957 0.9168,0.26002 1.77223,0.70424 2.42383,1.17383 0.6516,0.46958 1.09361,0.99511 1.19141,1.24609 0.57838,1.48433 0.29844,2.82265 -0.5879,3.87695 a 0.40004001,0.40004001 0 0 0 0.44727,0.63086 c 3.09007,-1.16256 4.97032,-1.22973 6.03125,-0.83594 0.85171,0.31615 1.19105,0.94589 1.37891,1.66602 -0.009,0.2126 -0.0671,0.43583 -0.0918,0.65039 -0.78183,0.95505 -2.45211,2.01877 -1.85156,6.0332 a 0.40004001,0.40004001 0 0 0 0.43359,0.33985 c 0.29878,-0.028 0.6306,-0.0165 0.97461,0.002 a 0.40004001,0.40004001 0 0 0 0.42188,-0.41016 c -0.0435,-1.83901 0.53905,-3.7168 0.7871,-5.66211 0.0737,-0.10184 0.17428,-0.17812 0.23829,-0.29296 a 0.40004001,0.40004001 0 0 0 0.0488,-0.24414 c -0.019,-0.15353 -0.12091,-0.29338 -0.15625,-0.44727 0.005,-0.16759 0.0713,-0.32305 0.0664,-0.49219 -0.036,-1.25221 -0.39481,-2.54808 -1.35937,-3.83594 -0.96457,-1.28785 -2.51959,-2.56997 -4.93946,-3.88671 a 0.40004001,0.40004001 0 0 0 -0.0605,-0.0273 c -3.45388,-1.18452 -6.37864,-1.25423 -8.56446,-1.54492 -1.09291,-0.14534 -1.99277,-0.34637 -2.68945,-0.73242 -0.45509,-0.25218 -0.7244,-0.7819 -1.03516,-1.2461 z m 20.27735,11.2168 a 0.40004001,0.40004001 0 0 0 -0.38672,0.44727 c 0.0303,0.25479 0.10198,0.44087 0.13867,0.59765 -0.0505,0.42361 -0.11667,0.82202 -0.15039,1.20703 a 0.40004001,0.40004001 0 0 0 0.38867,0.43555 l 2.89649,0.0703 a 0.40004001,0.40004001 0 0 0 0.002,0 c 1.0711,0.018 1.81371,-0.21119 2.29101,-0.70117 a 0.40004001,0.40004001 0 0 0 0.0586,-0.48242 c -0.56234,-0.95018 -1.51349,-1.364 -2.47071,-1.51758 -0.95721,-0.15358 -1.95712,-0.0782 -2.76757,-0.0566 z m 0.51562,0.8086 c 0.70832,-0.0238 1.45377,-0.0706 2.125,0.0371 0.63377,0.10169 1.12841,0.36562 1.5332,0.76954 -0.29394,0.17101 -0.55851,0.35306 -1.26757,0.34179 l -2.45508,-0.0586 c 0.034,-0.26237 0.0677,-0.51043 0.10351,-0.82422 a 0.40004001,0.40004001 0 0 0 0.004,-0.0449 0.40004001,0.40004001 0 0 0 -0.008,-0.0762 c -0.0121,-0.063 -0.0213,-0.0886 -0.0352,-0.14453 z m -3.32226,1.92968 c -0.27544,1.30394 -0.51817,2.65007 -0.55274,4.06836 -0.0996,-0.003 -0.19957,-7.4e-4 -0.30078,0 -0.27019,-2.28902 0.21241,-3.32183 0.85352,-4.06836 z m -7.91211,4.6875 c 0.34438,0.30099 0.75068,0.56699 0.91406,0.97657 0.19212,0.48161 0.23996,1.07277 0.29883,1.65625 -0.73187,-0.21162 -1.45897,-0.21428 -2.19922,-0.0293 0.57034,-0.64843 0.91415,-1.56425 0.98633,-2.60352 z"
             id="path27" />
        </g>
      </g>
      <g
         id="g222"
         inkscape:label="Right"
         transform="matrix(-1,0,0,1,415.16871,0.1501384)">
        <use
           x="0"
           y="0"
           xlink:href="#path75"
           id="use162" />
        <use
           x="0"
           y="0"
           xlink:href="#path77"
           id="use164" />
      </g>
    </g>
  </g>
</svg>
