<?xml version="1.0" encoding="UTF-8" standalone="no"?>
<!-- Created with Inkscape (http://www.inkscape.org/) -->

<svg
   version="1.1"
   id="svg1"
   width="413"
   height="434"
   viewBox="0 0 413 434"
   sodipodi:docname="lion_inner.svg"
   inkscape:version="1.3.2 (091e20ef0f, 2023-11-25)"
   xmlns:inkscape="http://www.inkscape.org/namespaces/inkscape"
   xmlns:sodipodi="http://sodipodi.sourceforge.net/DTD/sodipodi-0.dtd"
   xmlns="http://www.w3.org/2000/svg"
   xmlns:svg="http://www.w3.org/2000/svg">
  <defs
     id="defs1">
    <linearGradient
       id="swatch9"
       inkscape:swatch="solid">
      <stop
         style="stop-color:#000000;stop-opacity:1;"
         offset="0"
         id="stop9" />
    </linearGradient>
    <inkscape:path-effect
       effect="bspline"
       id="path-effect2"
       is_visible="true"
       lpeversion="1.3"
       weight="33.333333"
       steps="2"
       helper_size="0"
       apply_no_weight="true"
       apply_with_weight="true"
       only_selected="false"
       uniform="false" />
    <clipPath
       clipPathUnits="userSpaceOnUse"
       id="clipPath4">
      <g
         id="g5">
        <g
           inkscape:label="Clip"
           id="use4"
           clip-path="url(#clipPath4)">
          <g
             id="g34"
             inkscape:label="g2941">
            <path
               style="display:inline;opacity:1;fill:none;fill-opacity:0.119748;fill-rule:nonzero;stroke:#471d1d;stroke-width:0.5;stroke-linecap:round;stroke-linejoin:round;stroke-dasharray:none;stroke-dashoffset:0;stroke-opacity:1"
               d="m 294.55888,155.55134 c -5.71099,-5.59677 -5.95218,-5.93872 -7.3628,-9.11843 -1.01486,-2.25108 -1.03236,-8.37201 -0.21705,-11.11643 1.11405,-3.70272 0.91035,-5.19698 9.62309,-13.84142 0.63492,0.38115 -0.51719,0.71449 1.25635,2.32728 3.58527,3.2603 6.36864,10.2375 6.52122,12.04144 0.21929,3.77811 0.32019,5.94816 -0.19775,8.83215 -0.50674,2.40553 -2.88924,6.65563 -5.18641,7.90372 -1.86834,1.0151 -2.24982,1.34904 -4.43666,2.97169 z"
               id="path33"
               sodipodi:nodetypes="ccccsccscc"
               inkscape:label="Outer cut" />
            <path
               style="display:inline;opacity:1;fill:none;fill-opacity:0;fill-rule:nonzero;stroke:#471d1d;stroke-width:0.5;stroke-linejoin:round;stroke-dasharray:none;stroke-dashoffset:0;stroke-opacity:1"
               d="m 295.54755,152.4535 c -0.73645,-0.60431 -2.3119,-1.97713 -3.07786,-2.99315 -1.77198,-2.35048 -2.87171,-6.62488 -2.9281,-7.04278 -0.23438,-2.70237 -0.2416,-1.89407 0.13984,-4.59644 1.86783,-6.34821 3.22323,-10.55589 7.86084,-14.32349 l -2.02201,1.88081 c 0.711,0.68811 1.15723,1.83718 2.8615,2.02865 0.76692,0.26677 2.19975,1.21441 3.75696,8.83215 0.49097,2.45363 0.44018,4.13384 0.26366,6.2616 0.0768,0.13215 -0.0703,3.13886 -3.92408,7.05254 -1.86597,0.59148 -1.94193,1.85211 -2.93074,2.90011 z"
               id="path34"
               sodipodi:nodetypes="cscccccccccc"
               inkscape:label="Inner cut" />
          </g>
        </g>
      </g>
    </clipPath>
  </defs>
  <sodipodi:namedview
     id="namedview1"
     pagecolor="#ffffff"
     bordercolor="#ffffff"
     borderopacity="1"
     inkscape:showpageshadow="0"
     inkscape:pageopacity="0"
     inkscape:pagecheckerboard="0"
     inkscape:deskcolor="#505050"
     inkscape:zoom="8.5312897"
     inkscape:cx="186.31415"
     inkscape:cy="200.43863"
     inkscape:window-width="2560"
     inkscape:window-height="1368"
     inkscape:window-x="0"
     inkscape:window-y="0"
     inkscape:window-maximized="1"
     inkscape:current-layer="g12"
     showguides="false" />
  <g
     inkscape:groupmode="layer"
     id="layer3"
     inkscape:label="SVG"
     inkscape:highlight-color="#ffffff"
     style="display:inline">
    <g
       id="g12"
       inkscape:label="Lion"
       style="display:inline"
       transform="translate(-1.5215876e-6)">
      <g
         id="path257"
         inkscape:label="Eye">
        <path
           style="color:#000000;fill:#000000;stroke-linecap:round;stroke-linejoin:round;-inkscape-stroke:none"
           d="m 202.64521,180.50259 a 2.0461831,2.0461831 0 0 1 -2.04618,2.04619 2.0461831,2.0461831 0 0 1 -2.04618,-2.04619 2.0461831,2.0461831 0 0 1 2.04618,-2.04618 2.0461831,2.0461831 0 0 1 2.04618,2.04618 z"
           id="path25" />
        <path
           style="color:#000000;fill:#2e2631;stroke-linecap:round;stroke-linejoin:round;-inkscape-stroke:none"
           d="m 200.59961,178.05664 c -1.34625,0 -2.44727,1.09906 -2.44727,2.44531 0,1.34625 1.10102,2.44727 2.44727,2.44727 1.34625,0 2.44531,-1.10102 2.44531,-2.44727 0,-1.34625 -1.09906,-2.44531 -2.44531,-2.44531 z m 0,0.79883 c 0.9139,0 1.64648,0.73258 1.64648,1.64648 0,0.9139 -0.73258,1.64649 -1.64648,1.64649 -0.9139,0 -1.64648,-0.73259 -1.64649,-1.64649 0,-0.9139 0.73259,-1.64648 1.64649,-1.64648 z"
           id="path26" />
      </g>
      <path
         style="color:#000000;fill:#2e2631;stroke-linecap:round;stroke-linejoin:round;-inkscape-stroke:none"
         d="m 199.64258,178.05664 a 0.40000001,0.40000001 0 0 0 -0.39258,0.40625 0.40000001,0.40000001 0 0 0 0.40625,0.39258 c 1.52033,-0.0271 2.5015,0.22919 3.24219,0.48828 0.74068,0.25909 1.24911,0.56882 1.88672,0.53516 0.48483,-0.0256 1.09401,-0.054 1.53125,0.0293 0.21861,0.0416 0.38551,0.11162 0.47461,0.1836 0.0891,0.072 0.12536,0.12534 0.13085,0.27929 a 0.40000001,0.40000001 0 0 0 0.41407,0.38477 0.40000001,0.40000001 0 0 0 0.38672,-0.41406 c -0.0127,-0.3569 -0.18485,-0.67489 -0.42774,-0.8711 -0.24289,-0.1962 -0.53268,-0.29139 -0.82812,-0.34765 -0.59089,-0.11253 -1.24103,-0.0684 -1.72266,-0.043 -0.30382,0.016 -0.78487,-0.21335 -1.58203,-0.49219 -0.79716,-0.27884 -1.90177,-0.56004 -3.51953,-0.53125 z"
         id="path258" />
    </g>
  </g>
</svg>
