<?xml version="1.0" encoding="UTF-8" standalone="no"?>
<!-- Created with Inkscape (http://www.inkscape.org/) -->

<svg
   version="1.1"
   id="svg1"
   width="413"
   height="434"
   viewBox="0 0 413 434"
   sodipodi:docname="pomegranates_inner.svg"
   inkscape:version="1.3.2 (091e20ef0f, 2023-11-25)"
   xmlns:inkscape="http://www.inkscape.org/namespaces/inkscape"
   xmlns:sodipodi="http://sodipodi.sourceforge.net/DTD/sodipodi-0.dtd"
   xmlns:xlink="http://www.w3.org/1999/xlink"
   xmlns="http://www.w3.org/2000/svg"
   xmlns:svg="http://www.w3.org/2000/svg">
  <defs
     id="defs1">
    <linearGradient
       id="swatch9"
       inkscape:swatch="solid">
      <stop
         style="stop-color:#000000;stop-opacity:1;"
         offset="0"
         id="stop9" />
    </linearGradient>
    <inkscape:path-effect
       effect="bspline"
       id="path-effect2"
       is_visible="true"
       lpeversion="1.3"
       weight="33.333333"
       steps="2"
       helper_size="0"
       apply_no_weight="true"
       apply_with_weight="true"
       only_selected="false"
       uniform="false" />
    <clipPath
       clipPathUnits="userSpaceOnUse"
       id="clipPath4">
      <g
         id="g5">
        <g
           inkscape:label="Clip"
           id="use4"
           clip-path="url(#clipPath4)">
          <g
             id="g34"
             inkscape:label="g2941">
            <path
               style="display:inline;opacity:1;fill:none;fill-opacity:0.119748;fill-rule:nonzero;stroke:#471d1d;stroke-width:0.5;stroke-linecap:round;stroke-linejoin:round;stroke-dasharray:none;stroke-dashoffset:0;stroke-opacity:1"
               d="m 294.55888,155.55134 c -5.71099,-5.59677 -5.95218,-5.93872 -7.3628,-9.11843 -1.01486,-2.25108 -1.03236,-8.37201 -0.21705,-11.11643 1.11405,-3.70272 0.91035,-5.19698 9.62309,-13.84142 0.63492,0.38115 -0.51719,0.71449 1.25635,2.32728 3.58527,3.2603 6.36864,10.2375 6.52122,12.04144 0.21929,3.77811 0.32019,5.94816 -0.19775,8.83215 -0.50674,2.40553 -2.88924,6.65563 -5.18641,7.90372 -1.86834,1.0151 -2.24982,1.34904 -4.43666,2.97169 z"
               id="path33"
               sodipodi:nodetypes="ccccsccscc"
               inkscape:label="Outer cut" />
            <path
               style="display:inline;opacity:1;fill:none;fill-opacity:0;fill-rule:nonzero;stroke:#471d1d;stroke-width:0.5;stroke-linejoin:round;stroke-dasharray:none;stroke-dashoffset:0;stroke-opacity:1"
               d="m 295.54755,152.4535 c -0.73645,-0.60431 -2.3119,-1.97713 -3.07786,-2.99315 -1.77198,-2.35048 -2.87171,-6.62488 -2.9281,-7.04278 -0.23438,-2.70237 -0.2416,-1.89407 0.13984,-4.59644 1.86783,-6.34821 3.22323,-10.55589 7.86084,-14.32349 l -2.02201,1.88081 c 0.711,0.68811 1.15723,1.83718 2.8615,2.02865 0.76692,0.26677 2.19975,1.21441 3.75696,8.83215 0.49097,2.45363 0.44018,4.13384 0.26366,6.2616 0.0768,0.13215 -0.0703,3.13886 -3.92408,7.05254 -1.86597,0.59148 -1.94193,1.85211 -2.93074,2.90011 z"
               id="path34"
               sodipodi:nodetypes="cscccccccccc"
               inkscape:label="Inner cut" />
          </g>
        </g>
      </g>
    </clipPath>
  </defs>
  <sodipodi:namedview
     id="namedview1"
     pagecolor="#ffffff"
     bordercolor="#ffffff"
     borderopacity="1"
     inkscape:showpageshadow="0"
     inkscape:pageopacity="0"
     inkscape:pagecheckerboard="0"
     inkscape:deskcolor="#505050"
     inkscape:zoom="3.0162665"
     inkscape:cx="142.06304"
     inkscape:cy="167.42552"
     inkscape:window-width="2560"
     inkscape:window-height="1368"
     inkscape:window-x="0"
     inkscape:window-y="0"
     inkscape:window-maximized="1"
     inkscape:current-layer="layer3"
     showguides="false" />
  <g
     inkscape:groupmode="layer"
     id="layer3"
     inkscape:label="SVG"
     inkscape:highlight-color="#ffffff"
     style="display:inline">
    <g
       id="g15"
       inkscape:label="Pomegranates"
       style="display:inline;fill:#000000"
       transform="translate(-1.5215876e-6)">
      <g
         id="g68"
         inkscape:label="Top right (reference)"
         style="display:inline">
        <path
           style="color:#000000;fill:#471d1d;stroke-linecap:round;stroke-linejoin:round;-inkscape-stroke:none"
           d="m 296.32031,121.19146 c -4.36565,4.33142 -6.51313,6.8815 -7.7207,8.84765 -1.20757,1.96615 -1.4531,3.33142 -2.00391,5.16211 0,0.0411 -0.64909,1.93266 -0.5957,5.86529 0.0296,2.18326 0.26716,4.28263 0.83008,5.53125 0.7061,1.5916 1.14752,2.52507 2.12304,3.73828 0.97591,1.21369 2.46981,2.70075 5.32618,5.5 0.1405,0.13717 0.35979,0.15208 0.51757,0.0352 2.18995,-1.62495 2.53443,-1.93094 4.39063,-2.93945 1.26501,-0.6873 2.44523,-2.10513 3.41211,-3.6582 0.96688,-1.55308 1.70303,-3.23568 1.97266,-4.51563 0.44655,-1.78618 0.45033,-4.71373 0.20517,-8.93748 0.008,-0.56445 -0.59948,-2.29284 -0.59961,-2.29321 -0.34408,-0.97519 -0.82402,-2.13154 -1.41211,-3.33398 -1.17617,-2.40488 -2.7771,-4.99645 -4.63671,-6.6875 -0.50213,-0.35789 -0.71809,-0.87674 -0.93946,-1.39453 0.003,-0.0988 0.0402,-0.2063 0.0176,-0.41016 -0.0422,-0.38117 -0.54965,-0.8455 -0.88684,-0.50964 z"
           id="path37"
           sodipodi:nodetypes="cscscsccssccsssssc" />
      </g>
      <g
         id="g35"
         inkscape:label="Bottom right"
         style="display:inline"
         transform="matrix(-0.7328257,-0.68041641,-0.68041641,0.7328257,581.57033,414.11011)">
        <use
           x="0"
           y="0"
           xlink:href="#path37"
           id="use35" />
      </g>
      <g
         id="g103"
         inkscape:label="Bottom left"
         style="display:inline;opacity:1"
         transform="rotate(-43.052054,438.53963,421.82886)">
        <use
           x="0"
           y="0"
           xlink:href="#path37"
           id="use103" />
      </g>
      <g
         id="g102"
         inkscape:label="Top left"
         style="display:inline;opacity:1"
         transform="translate(-173.92557,0.07307791)">
        <use
           x="0"
           y="0"
           xlink:href="#path37"
           id="use101" />
      </g>
    </g>
  </g>
</svg>
