<?xml version="1.0" encoding="UTF-8" standalone="no"?>
<!-- Created with Inkscape (http://www.inkscape.org/) -->

<svg
   version="1.1"
   id="svg1"
   width="413"
   height="434"
   viewBox="0 0 413 434"
   sodipodi:docname="towers_top_bottom.svg"
   inkscape:version="1.3.2 (091e20ef0f, 2023-11-25)"
   xmlns:inkscape="http://www.inkscape.org/namespaces/inkscape"
   xmlns:sodipodi="http://sodipodi.sourceforge.net/DTD/sodipodi-0.dtd"
   xmlns="http://www.w3.org/2000/svg"
   xmlns:svg="http://www.w3.org/2000/svg">
  <defs
     id="defs1">
    <linearGradient
       id="swatch9"
       inkscape:swatch="solid">
      <stop
         style="stop-color:#000000;stop-opacity:1;"
         offset="0"
         id="stop9" />
    </linearGradient>
    <inkscape:path-effect
       effect="bspline"
       id="path-effect2"
       is_visible="true"
       lpeversion="1.3"
       weight="33.333333"
       steps="2"
       helper_size="0"
       apply_no_weight="true"
       apply_with_weight="true"
       only_selected="false"
       uniform="false" />
    <clipPath
       clipPathUnits="userSpaceOnUse"
       id="clipPath4">
      <g
         id="g5">
        <g
           inkscape:label="Clip"
           id="use4"
           clip-path="url(#clipPath4)">
          <g
             id="g34"
             inkscape:label="g2941">
            <path
               style="display:inline;opacity:1;fill:none;fill-opacity:0.119748;fill-rule:nonzero;stroke:#471d1d;stroke-width:0.5;stroke-linecap:round;stroke-linejoin:round;stroke-dasharray:none;stroke-dashoffset:0;stroke-opacity:1"
               d="m 294.55888,155.55134 c -5.71099,-5.59677 -5.95218,-5.93872 -7.3628,-9.11843 -1.01486,-2.25108 -1.03236,-8.37201 -0.21705,-11.11643 1.11405,-3.70272 0.91035,-5.19698 9.62309,-13.84142 0.63492,0.38115 -0.51719,0.71449 1.25635,2.32728 3.58527,3.2603 6.36864,10.2375 6.52122,12.04144 0.21929,3.77811 0.32019,5.94816 -0.19775,8.83215 -0.50674,2.40553 -2.88924,6.65563 -5.18641,7.90372 -1.86834,1.0151 -2.24982,1.34904 -4.43666,2.97169 z"
               id="path33"
               sodipodi:nodetypes="ccccsccscc"
               inkscape:label="Outer cut" />
            <path
               style="display:inline;opacity:1;fill:none;fill-opacity:0;fill-rule:nonzero;stroke:#471d1d;stroke-width:0.5;stroke-linejoin:round;stroke-dasharray:none;stroke-dashoffset:0;stroke-opacity:1"
               d="m 295.54755,152.4535 c -0.73645,-0.60431 -2.3119,-1.97713 -3.07786,-2.99315 -1.77198,-2.35048 -2.87171,-6.62488 -2.9281,-7.04278 -0.23438,-2.70237 -0.2416,-1.89407 0.13984,-4.59644 1.86783,-6.34821 3.22323,-10.55589 7.86084,-14.32349 l -2.02201,1.88081 c 0.711,0.68811 1.15723,1.83718 2.8615,2.02865 0.76692,0.26677 2.19975,1.21441 3.75696,8.83215 0.49097,2.45363 0.44018,4.13384 0.26366,6.2616 0.0768,0.13215 -0.0703,3.13886 -3.92408,7.05254 -1.86597,0.59148 -1.94193,1.85211 -2.93074,2.90011 z"
               id="path34"
               sodipodi:nodetypes="cscccccccccc"
               inkscape:label="Inner cut" />
          </g>
        </g>
      </g>
    </clipPath>
  </defs>
  <sodipodi:namedview
     id="namedview1"
     pagecolor="#ffffff"
     bordercolor="#ffffff"
     borderopacity="1"
     inkscape:showpageshadow="0"
     inkscape:pageopacity="0"
     inkscape:pagecheckerboard="0"
     inkscape:deskcolor="#505050"
     inkscape:zoom="8.5312897"
     inkscape:cx="336.81895"
     inkscape:cy="35.985181"
     inkscape:window-width="2560"
     inkscape:window-height="1368"
     inkscape:window-x="0"
     inkscape:window-y="0"
     inkscape:window-maximized="1"
     inkscape:current-layer="layer3"
     showguides="false" />
  <g
     inkscape:groupmode="layer"
     id="layer3"
     inkscape:label="SVG"
     inkscape:highlight-color="#ffffff"
     style="display:inline">
    <g
       id="g10"
       inkscape:label="Sideways tower left (reference)"
       style="display:inline"
       transform="translate(-1.5215876e-6)">
      <path
         style="color:#000000;fill:#545353;stroke-linecap:round;stroke-linejoin:round;-inkscape-stroke:none"
         d="M 92.291016,33.105469 64.240234,44.712891 c -0.259452,0.106773 -0.331254,0.440502 -0.138672,0.644531 l 2.486329,2.640625 c 0.109532,0.116184 0.277664,0.156106 0.427734,0.101562 9.594061,-3.689641 24.130429,-10.088266 25.728519,-10.826254 0.146973,-0.06768 0.238705,-0.217223 0.232421,-0.378906 L 92.84375,33.458984 c -0.0112,-0.277977 -0.295688,-0.459929 -0.552734,-0.353515 z"
         id="path278"
         sodipodi:nodetypes="ccccccccc" />
    </g>
    <g
       id="g9"
       inkscape:label="Sideways tower right"
       style="display:inline"
       transform="matrix(-1,0,0,1,414.46715,0.20565163)">
      <path
         style="color:#000000;fill:#545353;stroke-linecap:round;stroke-linejoin:round;-inkscape-stroke:none"
         d="M 92.291016,33.105469 64.240234,44.712891 c -0.259452,0.106773 -0.331254,0.440502 -0.138672,0.644531 l 2.486329,2.640625 c 0.109532,0.116184 0.277664,0.156106 0.427734,0.101562 3.473884,-1.26914 20.55091,-8.435265 25.728519,-10.826254 0.146973,-0.06768 0.238705,-0.217223 0.232421,-0.378906 L 92.84375,33.458984 c -0.0112,-0.277977 -0.295688,-0.459929 -0.552734,-0.353515 z"
         id="path298"
         sodipodi:nodetypes="ccccccccc" />
    </g>
    <g
       id="g8"
       inkscape:label="Front tower left (reference)"
       style="display:inline"
       transform="translate(-1.5215876e-6)">
      <path
         style="color:#000000;fill:#545353;stroke-linecap:round;stroke-linejoin:round;-inkscape-stroke:none"
         d="m 182.48242,14.072266 -45.02539,5.498046 c -0.21205,0.02534 -0.36681,0.212767 -0.35156,0.425782 l 0.23437,3.365234 c 0.0154,0.22234 0.20951,0.389231 0.43164,0.371094 12.89497,-1.061624 29.10301,-3.638221 45.09183,-5.248094 0.21685,-0.02245 0.3758,-0.214405 0.35742,-0.431641 L 182.92969,14.4375 c -0.0181,-0.226776 -0.22145,-0.392816 -0.44727,-0.365234 z"
         id="path320"
         sodipodi:nodetypes="ccccccccc" />
    </g>
    <g
       id="g7"
       inkscape:label="Front tower right"
       style="display:inline"
       transform="matrix(-0.99992009,0.01264253,0.01264253,0.99992009,413.93058,-3.2947463)">
      <path
         style="color:#000000;fill:#545353;stroke-linecap:round;stroke-linejoin:round;-inkscape-stroke:none"
         d="m 183.42383,14.279297 -45.94922,4.527344 c -0.22536,0.02213 -0.38745,0.226727 -0.35742,0.451171 l 0.48047,3.515625 c 0.0302,0.216438 0.22843,0.368618 0.44531,0.341797 l 5.68359,-0.705078 c 13.35142,-1.163843 26.71243,-2.215557 40.05284,-3.5 0.21596,-0.02048 0.37625,-0.209362 0.36132,-0.425781 l -0.27929,-3.835937 c -0.0254,-0.349295 -0.36154,-0.369141 -0.4376,-0.369141 z"
         id="path407"
         sodipodi:nodetypes="cccccccccc" />
    </g>
  </g>
</svg>
