<?xml version="1.0" encoding="UTF-8" standalone="no"?>
<!-- Created with Inkscape (http://www.inkscape.org/) -->

<svg
   version="1.1"
   id="svg1"
   width="413"
   height="434"
   viewBox="0 0 413 434"
   sodipodi:docname="towers_top_top.svg"
   inkscape:version="1.3.2 (091e20ef0f, 2023-11-25)"
   xmlns:inkscape="http://www.inkscape.org/namespaces/inkscape"
   xmlns:sodipodi="http://sodipodi.sourceforge.net/DTD/sodipodi-0.dtd"
   xmlns="http://www.w3.org/2000/svg"
   xmlns:svg="http://www.w3.org/2000/svg">
  <defs
     id="defs1">
    <linearGradient
       id="swatch9"
       inkscape:swatch="solid">
      <stop
         style="stop-color:#000000;stop-opacity:1;"
         offset="0"
         id="stop9" />
    </linearGradient>
    <inkscape:path-effect
       effect="bspline"
       id="path-effect2"
       is_visible="true"
       lpeversion="1.3"
       weight="33.333333"
       steps="2"
       helper_size="0"
       apply_no_weight="true"
       apply_with_weight="true"
       only_selected="false"
       uniform="false" />
    <clipPath
       clipPathUnits="userSpaceOnUse"
       id="clipPath4">
      <g
         id="g5">
        <g
           inkscape:label="Clip"
           id="use4"
           clip-path="url(#clipPath4)">
          <g
             id="g34"
             inkscape:label="g2941">
            <path
               style="display:inline;opacity:1;fill:none;fill-opacity:0.119748;fill-rule:nonzero;stroke:#471d1d;stroke-width:0.5;stroke-linecap:round;stroke-linejoin:round;stroke-dasharray:none;stroke-dashoffset:0;stroke-opacity:1"
               d="m 294.55888,155.55134 c -5.71099,-5.59677 -5.95218,-5.93872 -7.3628,-9.11843 -1.01486,-2.25108 -1.03236,-8.37201 -0.21705,-11.11643 1.11405,-3.70272 0.91035,-5.19698 9.62309,-13.84142 0.63492,0.38115 -0.51719,0.71449 1.25635,2.32728 3.58527,3.2603 6.36864,10.2375 6.52122,12.04144 0.21929,3.77811 0.32019,5.94816 -0.19775,8.83215 -0.50674,2.40553 -2.88924,6.65563 -5.18641,7.90372 -1.86834,1.0151 -2.24982,1.34904 -4.43666,2.97169 z"
               id="path33"
               sodipodi:nodetypes="ccccsccscc"
               inkscape:label="Outer cut" />
            <path
               style="display:inline;opacity:1;fill:none;fill-opacity:0;fill-rule:nonzero;stroke:#471d1d;stroke-width:0.5;stroke-linejoin:round;stroke-dasharray:none;stroke-dashoffset:0;stroke-opacity:1"
               d="m 295.54755,152.4535 c -0.73645,-0.60431 -2.3119,-1.97713 -3.07786,-2.99315 -1.77198,-2.35048 -2.87171,-6.62488 -2.9281,-7.04278 -0.23438,-2.70237 -0.2416,-1.89407 0.13984,-4.59644 1.86783,-6.34821 3.22323,-10.55589 7.86084,-14.32349 l -2.02201,1.88081 c 0.711,0.68811 1.15723,1.83718 2.8615,2.02865 0.76692,0.26677 2.19975,1.21441 3.75696,8.83215 0.49097,2.45363 0.44018,4.13384 0.26366,6.2616 0.0768,0.13215 -0.0703,3.13886 -3.92408,7.05254 -1.86597,0.59148 -1.94193,1.85211 -2.93074,2.90011 z"
               id="path34"
               sodipodi:nodetypes="cscccccccccc"
               inkscape:label="Inner cut" />
          </g>
        </g>
      </g>
    </clipPath>
  </defs>
  <sodipodi:namedview
     id="namedview1"
     pagecolor="#ffffff"
     bordercolor="#ffffff"
     borderopacity="1"
     inkscape:showpageshadow="0"
     inkscape:pageopacity="0"
     inkscape:pagecheckerboard="0"
     inkscape:deskcolor="#505050"
     inkscape:zoom="24.130131"
     inkscape:cx="343.57459"
     inkscape:cy="30.294075"
     inkscape:window-width="2560"
     inkscape:window-height="1368"
     inkscape:window-x="0"
     inkscape:window-y="0"
     inkscape:window-maximized="1"
     inkscape:current-layer="layer3"
     showguides="false" />
  <g
     inkscape:groupmode="layer"
     id="layer3"
     inkscape:label="SVG"
     inkscape:highlight-color="#ffffff"
     style="display:inline">
    <g
       id="g10"
       inkscape:label="Sideways tower left (reference)"
       style="display:inline"
       transform="translate(-1.5215876e-6)">
      <path
         style="color:#000000;fill:#545353;stroke-linecap:round;stroke-linejoin:round;-inkscape-stroke:none"
         d="m 91.041016,19.966797 -7.601563,3.34375 c -0.205207,0.09046 -0.295973,0.331917 -0.201172,0.535156 l 2.296875,4.955078 -5.769531,2.595703 -2.525391,-5.445312 C 77.148336,25.753 76.91446,25.665187 76.714844,25.753906 l -7.697266,3.441406 c -0.204833,0.09195 -0.293891,0.334439 -0.197266,0.53711 l 2.302735,4.835937 -5.416016,2.730469 -2.646484,-5.464844 c -0.09559,-0.197736 -0.332721,-0.281429 -0.53125,-0.1875 l -7.746094,3.654297 c -0.202637,0.09638 -0.286378,0.340555 -0.185547,0.541016 l 5.552735,11.107422 c 0.09526,0.190142 0.32264,0.272513 0.517578,0.1875 11.98998,-5.143624 24.080269,-10.04838 36.136718,-15.033203 0.212791,-0.08727 0.308356,-0.335555 0.208985,-0.542969 L 91.5625,20.160156 c -0.09326,-0.194512 -0.323954,-0.280049 -0.521484,-0.193359 z"
         id="path277"
         sodipodi:nodetypes="ccccccccccccccccccccc" />
    </g>
    <g
       id="g9"
       inkscape:label="Sideways tower right"
       style="display:inline"
       transform="matrix(-1,0,0,1,414.46715,0.20565163)">
      <path
         style="color:#000000;fill:#545353;stroke-linecap:round;stroke-linejoin:round;-inkscape-stroke:none"
         d="m 91.041016,19.966797 -7.601563,3.34375 c -0.205207,0.09046 -0.295973,0.331917 -0.201172,0.535156 l 2.296875,4.955078 -5.769531,2.595703 -2.525391,-5.445312 C 77.148336,25.753 76.91446,25.665187 76.714844,25.753906 l -7.697266,3.441406 c -0.204833,0.09195 -0.293891,0.334439 -0.197266,0.53711 l 2.302735,4.835937 -5.416016,2.730469 -2.646484,-5.464844 c -0.09559,-0.197736 -0.332721,-0.281429 -0.53125,-0.1875 l -7.746094,3.654297 c -0.202637,0.09638 -0.286378,0.340555 -0.185547,0.541016 l 5.552735,11.107422 c 0.09526,0.190142 0.32264,0.272513 0.517578,0.1875 11.993521,-5.132821 24.080967,-10.047796 36.136718,-15.033203 0.212791,-0.08727 0.308356,-0.335555 0.208985,-0.542969 L 91.5625,20.160156 c -0.09326,-0.194512 -0.323954,-0.280049 -0.521484,-0.193359 z"
         id="path297"
         sodipodi:nodetypes="ccccccccccccccccccccc" />
    </g>
    <g
       id="g8"
       inkscape:label="Front tower left (reference)"
       style="display:inline"
       transform="translate(-1.5215876e-6)">
      <path
         style="color:#000000;fill:#545353;stroke-linecap:round;stroke-linejoin:round;-inkscape-stroke:none"
         d="m 185.00781,0.37695313 -7.33789,0.67187497 c -0.21354,0.019447 -0.37377,0.2038012 -0.36328,0.4179688 l 0.36914,7.375 -7.02539,0.5351562 -0.71094,-6.9882812 C 169.9165,2.1614471 169.7083,1.9995121 169.48242,2.0332031 l -7.08008,1.0859375 c -0.20106,0.030467 -0.34728,0.2069324 -0.33984,0.4101563 l 0.2793,6.9140621 -6.83008,0.935547 -0.50391,-7.2734373 c -0.0163,-0.2346964 -0.23064,-0.4047152 -0.46289,-0.3671874 l -7.38867,1.1894531 C 146.94211,4.9616861 146.794,5.1600408 146.82227,5.375 l 0.8789,6.587891 -7.22461,1.117187 -0.97461,-6.7304686 c -0.0319,-0.2200879 -0.23725,-0.3718783 -0.45703,-0.3378907 l -7.63867,1.1933594 c -0.2185,0.033866 -0.36809,0.2385681 -0.33398,0.4570313 l 2.04687,12.9355466 c 0.0339,0.215866 0.2348,0.364565 0.45117,0.333985 10.84304,-1.455546 44.60264,-5.651553 52.85547,-6.425782 0.22098,-0.02138 0.38229,-0.218623 0.35938,-0.439453 L 185.44141,0.734375 c -0.0224,-0.21768393 -0.21563,-0.37693429 -0.4336,-0.35742187 z"
         id="path319"
         sodipodi:nodetypes="ccccccccccccccccccccccccccc" />
    </g>
    <g
       id="g7"
       inkscape:label="Front tower right"
       style="display:inline"
       transform="matrix(-0.99992009,0.01264253,0.01264253,0.99992009,413.93058,-3.2947463)">
      <path
         style="color:#000000;fill:#545353;stroke-linecap:round;stroke-linejoin:round;-inkscape-stroke:none"
         d="m 186.22461,1.1660156 -7.55664,0.6738281 c -0.22255,0.019356 -0.38613,0.2172308 -0.36328,0.4394532 l 0.70703,6.9121094 -7.22266,0.5371093 -0.67773,-6.7636718 c -0.0215,-0.218469 -0.21495,-0.3788413 -0.4336,-0.359375 L 163.30664,3.25 c -0.22426,0.019268 -0.38848,0.2196895 -0.36328,0.4433594 l 0.75781,6.7499996 -7.08008,0.544922 -0.84765,-6.8398435 c -0.0263,-0.2178918 -0.22328,-0.3738904 -0.44141,-0.3496094 l -7.42969,0.8242188 c -0.22032,0.024328 -0.37885,0.2231575 -0.35351,0.4433593 l 0.77734,6.8613278 -7.28906,0.623047 -0.73828,-6.9628904 c -0.0225,-0.2160326 -0.21318,-0.3746835 -0.42969,-0.3574219 l -7.20898,0.5664063 c -0.22328,0.017342 -0.38883,0.2145941 -0.36719,0.4375 l 1.28515,13.345703 c 0.0204,0.220086 0.21548,0.381894 0.43555,0.361328 35.06153,-3.368697 50.16054,-4.946315 53.48265,-5.341844 0.21533,-0.02538 0.37125,-0.21767 0.35157,-0.433593 L 186.6582,1.5253906 c -0.0214,-0.2184648 -0.21494,-0.3788355 -0.43359,-0.359375 z"
         id="path406"
         sodipodi:nodetypes="ccccccccccccccccccccccccccc" />
    </g>
  </g>
</svg>
