<?xml version="1.0" encoding="UTF-8" standalone="no"?>
<!-- Created with Inkscape (http://www.inkscape.org/) -->

<svg
   version="1.1"
   id="svg1"
   width="413"
   height="434"
   viewBox="0 0 413 434"
   sodipodi:docname="backplate.svg"
   inkscape:version="1.3.2 (091e20ef0f, 2023-11-25)"
   xmlns:inkscape="http://www.inkscape.org/namespaces/inkscape"
   xmlns:sodipodi="http://sodipodi.sourceforge.net/DTD/sodipodi-0.dtd"
   xmlns="http://www.w3.org/2000/svg"
   xmlns:svg="http://www.w3.org/2000/svg">
  <defs
     id="defs1">
    <linearGradient
       id="swatch9"
       inkscape:swatch="solid">
      <stop
         style="stop-color:#000000;stop-opacity:1;"
         offset="0"
         id="stop9" />
    </linearGradient>
    <inkscape:path-effect
       effect="bspline"
       id="path-effect2"
       is_visible="true"
       lpeversion="1.3"
       weight="33.333333"
       steps="2"
       helper_size="0"
       apply_no_weight="true"
       apply_with_weight="true"
       only_selected="false"
       uniform="false" />
    <clipPath
       clipPathUnits="userSpaceOnUse"
       id="clipPath4">
      <g
         id="g5">
        <g
           inkscape:label="Clip"
           id="use4"
           clip-path="url(#clipPath4)">
          <g
             id="g34"
             inkscape:label="g2941">
            <path
               style="display:inline;opacity:1;fill:none;fill-opacity:0.119748;fill-rule:nonzero;stroke:#471d1d;stroke-width:0.5;stroke-linecap:round;stroke-linejoin:round;stroke-dasharray:none;stroke-dashoffset:0;stroke-opacity:1"
               d="m 294.55888,155.55134 c -5.71099,-5.59677 -5.95218,-5.93872 -7.3628,-9.11843 -1.01486,-2.25108 -1.03236,-8.37201 -0.21705,-11.11643 1.11405,-3.70272 0.91035,-5.19698 9.62309,-13.84142 0.63492,0.38115 -0.51719,0.71449 1.25635,2.32728 3.58527,3.2603 6.36864,10.2375 6.52122,12.04144 0.21929,3.77811 0.32019,5.94816 -0.19775,8.83215 -0.50674,2.40553 -2.88924,6.65563 -5.18641,7.90372 -1.86834,1.0151 -2.24982,1.34904 -4.43666,2.97169 z"
               id="path33"
               sodipodi:nodetypes="ccccsccscc"
               inkscape:label="Outer cut" />
            <path
               style="display:inline;opacity:1;fill:none;fill-opacity:0;fill-rule:nonzero;stroke:#471d1d;stroke-width:0.5;stroke-linejoin:round;stroke-dasharray:none;stroke-dashoffset:0;stroke-opacity:1"
               d="m 295.54755,152.4535 c -0.73645,-0.60431 -2.3119,-1.97713 -3.07786,-2.99315 -1.77198,-2.35048 -2.87171,-6.62488 -2.9281,-7.04278 -0.23438,-2.70237 -0.2416,-1.89407 0.13984,-4.59644 1.86783,-6.34821 3.22323,-10.55589 7.86084,-14.32349 l -2.02201,1.88081 c 0.711,0.68811 1.15723,1.83718 2.8615,2.02865 0.76692,0.26677 2.19975,1.21441 3.75696,8.83215 0.49097,2.45363 0.44018,4.13384 0.26366,6.2616 0.0768,0.13215 -0.0703,3.13886 -3.92408,7.05254 -1.86597,0.59148 -1.94193,1.85211 -2.93074,2.90011 z"
               id="path34"
               sodipodi:nodetypes="cscccccccccc"
               inkscape:label="Inner cut" />
          </g>
        </g>
      </g>
    </clipPath>
  </defs>
  <sodipodi:namedview
     id="namedview1"
     pagecolor="#ffffff"
     bordercolor="#ffffff"
     borderopacity="1"
     inkscape:showpageshadow="0"
     inkscape:pageopacity="0"
     inkscape:pagecheckerboard="0"
     inkscape:deskcolor="#505050"
     inkscape:zoom="4.2656448"
     inkscape:cx="265.7277"
     inkscape:cy="184.26288"
     inkscape:window-width="2560"
     inkscape:window-height="1368"
     inkscape:window-x="0"
     inkscape:window-y="0"
     inkscape:window-maximized="1"
     inkscape:current-layer="layer3"
     showguides="false" />
  <g
     inkscape:groupmode="layer"
     id="layer3"
     inkscape:label="SVG"
     inkscape:highlight-color="#ffffff"
     style="display:inline">
    <path
       id="path22"
       style="display:inline;opacity:1;fill:#5e5d60;fill-opacity:1;stroke:#000000;stroke-width:0.8;stroke-linecap:round;stroke-linejoin:round;stroke-dasharray:none;stroke-opacity:1"
       d="m 38.667534,272.52626 c -11.950887,1.48751 -14.414365,-7.27778 -23.334002,-9.0382 -9.0992138,-0.84814 -4.248639,-6.10535 -6.245155,-13.00057 -0.00461,-9.56429 -6.9543182,-9.9482 -6.850506,-13.7295 -0.5246912,-5.06974 10.217053,-0.27914 10.189425,-6.59213 2.977701,-4.3267 -3.0322107,-12.48533 0.87558,-12.5955 9.87157,-1.2949 13.569224,-11.58235 23.151166,-11.0951 4.059268,0.0916 6.929579,3.81798 8.553607,7.04928 7.221928,0.26575 10.571917,-2.91106 10.47498,-11.58909 -8.339873,-3.5956 -9.466068,-8.60326 -11.075092,-13.86235 5.331214,-0.77805 -0.212711,-1.56033 0.006,-3.55925 6.10181,-7.33251 6.089623,-10.5416 6.725798,-17.00543 -0.0557,-8.0638 7.480223,-7.61365 9.200116,-8.03975 l 11.603801,3e-5 c -15.152921,-14.69998 -0.823856,-31.29904 14.45806,-9.08614 2.90623,3.51224 6.09322,6.31281 7.853534,-0.114 l 0.01573,-38.96139 0.182699,-0.26518 v -1e-5 c -2.47957,1.14441 -4.466717,-3.2275 -1.936567,-4.56735 2.280055,-1.36142 4.681118,-2.66426 7.15901,-3.89092 -1.985044,1.00683 -5.126392,-1.68576 -2.050174,-4.053162 -0.699446,0.317367 -1.420197,0.653558 -2.132126,0.993441 -6.700269,3.133941 -7.914754,-1.784975 -2.95833,-3.882621 -0.689287,0.30801 -1.371114,0.617197 -2.049458,0.929343 v -3.9e-5 c -6.233243,3.021451 -7.23844,-3.73923 -3.101381,-4.906926 0.277916,-0.15188 0.557278,-0.303073 0.851138,-0.470008 L 79.028759,65.997609 c -0.316432,0.105873 -0.590918,0.306215 -0.820386,0.546537 -1.784635,0.289328 -4.48621,0.199396 -4.753884,-2.029244 -0.08804,-0.818472 0.79606,-1.730051 2.36759,-2.392133 l -6.544166,-15.344 -2.399035,0.944819 -2.475785,-2.647016 -3.894536,1.693331 -5.553926,-11.107852 7.746265,-3.653898 2.822368,5.831103 6.129683,-3.090679 -2.472113,-5.188536 7.697188,-3.440934 2.691347,5.80343 6.498746,-2.923119 -2.466919,-5.322154 7.600109,-3.343855 5.450578,11.400164 -4.281331,1.745005 0.206696,3.430992 -2.450709,1.08211 4.381404,6.79428 2.673222,-0.997119 1.620253,4.84455 c 2.175362,-0.932914 4.410452,-1.82601 7.161642,-2.375034 l -1.20579,-5.225075 7.16164,-2.228878 1.35195,4.969302 c 2.96166,-0.865423 5.625,-1.631406 8.00204,-2.301956 l -0.80386,-5.005841 7.52076,-1.830622 0.8404,5.088861 c 3.04145,-0.6823 5.45781,-0.937004 7.93522,-1.43129 l -0.36538,-5.480848 6.31504,-0.643125 0.6639,-9.295469 -5.63954,0.459872 -0.2798,-3.326123 -3.94622,0.527756 -2.04618,-12.9348009 7.63895,-1.1925419 1.03348,7.1310028 8.00945,-1.240175 -0.93013,-6.9759802 7.38938,-1.1885004 0.53447,7.6994156 7.6138,-1.042344 -0.29384,-7.2771588 7.07933,-1.0851526 0.75004,7.3768335 7.80276,-0.5950105 -0.38832,-7.7636275 7.3377,-0.67176117 1.34352,13.33187307 -3.87554,0.361718 0.31004,3.617176 -5.73581,0.568412 2.82204,8.771651 8.59793,0.06458 v 4.960698 h 7.95779 v -5.994176 l 8.00946,0.05167 0.0517,5.994176 h 7.95779 l 0.0517,-6.04585 7.95779,0.05167 v 5.942502 l 6.97598,0.05167 v -5.064045 l 6.61591,0.07059 2.48903,-9.477752 -6.1356,-0.49218 0.30082,-3.876579 -4.0625,-0.385776 1.02871,-12.65355139 7.56485,0.57894029 -0.65553,7.3294487 8.02888,0.4963159 0.62646,-7.160223 7.37851,0.5508285 -0.71334,7.1706748 7.88213,0.5075352 0.80248,-7.2305504 7.44035,0.7295953 -0.73224,7.2794941 8.09757,0.590731 0.68747,-7.3627326 7.21495,0.4747081 -1.11518,13.3615655 -3.5141,-0.295129 -0.46323,3.52203 -5.74825,-0.654251 0.89624,11.020374 6.91036,1.111497 -0.88947,5.063784 c 2.74158,0.471479 5.44556,0.905355 8.45197,1.641658 l 0.90201,-5.076322 7.87101,1.573773 -1.12643,5.398904 c 2.92684,0.412979 4.98128,1.117656 7.9655,1.668256 l 1.2726,-5.085188 7.83188,2.27276 -1.52577,4.987035 c 2.24105,0.58211 4.48211,1.42447 6.72316,2.557729 l 2.09266,-4.939032 2.78077,1.20657 3.69714,-5.717035 -2.45071,-1.08211 0.20669,-3.430992 -4.28133,-1.745005 5.45058,-11.400164 7.60011,3.343855 -2.46692,5.322154 6.49875,2.923119 2.69134,-5.80343 7.69719,3.440934 -2.47211,5.188536 6.12968,3.090679 2.82237,-5.831103 7.74626,3.653898 -5.55392,11.107852 -3.89454,-1.693331 -2.47578,2.647016 -2.39904,-0.944819 -6.53853,15.405597 c 1.5806,0.625261 2.44919,1.520462 2.36209,2.330536 -0.26768,2.22864 -2.96925,2.318572 -4.75388,2.029244 -0.23457,-0.245665 -0.51618,-0.449553 -0.83053,-0.551907 l -9.26091,25.315896 c 0.13334,0.08687 0.2629,0.152659 0.39225,0.218599 4.54676,2.967629 1.31547,7.859112 -4.13518,4.829415 -0.63894,-0.314636 -1.28091,-0.626035 -1.92136,-0.936703 7.54092,3.352421 2.17438,7.660613 -1.15817,4.829013 -1.27861,-0.621984 -2.57345,-1.229832 -3.8664,-1.820393 3.41846,1.526713 2.2839,4.654163 -1.00424,3.959623 2.43239,1.23455 4.77318,2.49451 6.99576,3.80817 2.52072,1.21447 0.12592,6.1875 -2.85146,4.73306 l 0.13783,39.14226 c 1.76472,6.44783 4.8638,3.61796 7.7947,0.10572 15.30659,-22.2129 29.63565,-5.61384 14.48519,9.08616 h 11.60133 c 1.71989,0.4261 9.25581,-0.024 9.20011,8.03975 0.63618,6.46383 1.09286,9.67292 7.19467,17.00543 0.50931,1.94608 0.4912,3.83355 0.006,5.66913 -1.60576,5.24842 -3.171,8.14605 -11.51863,11.74177 -0.12225,8.68868 3.22774,11.86549 10.46188,11.57534 1.64058,-3.24409 4.50244,-6.93365 8.54139,-7.02485 9.58194,-0.48728 13.2796,9.80017 23.15117,11.09507 3.90779,0.11017 1.17991,3.58017 4.15761,7.90687 -0.0276,6.31299 7.43209,6.21102 6.90739,11.28076 0.10382,3.7813 -5.67335,8.6194 -5.67835,18.18369 -1.99652,6.89522 1.68191,7.69824 -7.41731,8.54638 -8.91963,1.76042 -11.70545,10.64293 -23.71488,9.20453 l 0.0931,40.65014 c -0.43694,4.73509 -2.74059,7.91254 -4.59685,10.09661 -5.72888,5.60938 -2.26316,10.43771 -5.05442,14.97849 -4.2835,9.12495 -11.55396,26.65178 -26.78597,38.54566 -4.44618,3.04091 -27.79864,-2.63203 -30.18381,0.63004 -20.46809,18.1862 -28.50957,29.44093 -64.42781,34.42183 -12.10039,-2.35632 -7.3714,18.05117 -24.66745,21.492 l -11.81681,-0.0253 -11.81681,0.0253 c -17.29605,-3.44083 -1.54879,-30.17796 -13.64918,-27.82164 -35.91824,-4.9809 -58.26003,-11.54701 -78.72812,-29.73321 -2.385165,-3.26207 -22.455593,4.05189 -26.901772,1.01098 -15.23201,-11.89388 -22.502466,-29.42071 -26.785964,-38.54566 -2.791259,-4.54078 0.674458,-9.36911 -5.054424,-14.97849 -1.856259,-2.18407 -4.15991,-5.36152 -4.596854,-10.09661 l 0.151501,-40.60103 z"
       sodipodi:nodetypes="ccccccccccccccccccsccccccccccccccccccccccccccccccccccccccccccccccccccccccccccccccccccccccccccccccccccccccccccccccccccccccccccccccccccccccccccccccccccccccccccccccccccccccccccccccccccccccccccccccccccccc" />
  </g>
</svg>
