<?xml version="1.0" encoding="UTF-8" standalone="no"?>
<!-- Created with Inkscape (http://www.inkscape.org/) -->

<svg
   version="1.1"
   id="svg1"
   width="413"
   height="434"
   viewBox="0 0 413 434"
   sodipodi:docname="banner_bend_6.svg"
   inkscape:version="1.3.2 (091e20ef0f, 2023-11-25)"
   xmlns:inkscape="http://www.inkscape.org/namespaces/inkscape"
   xmlns:sodipodi="http://sodipodi.sourceforge.net/DTD/sodipodi-0.dtd"
   xmlns="http://www.w3.org/2000/svg"
   xmlns:svg="http://www.w3.org/2000/svg">
  <defs
     id="defs1">
    <linearGradient
       id="swatch9"
       inkscape:swatch="solid">
      <stop
         style="stop-color:#000000;stop-opacity:1;"
         offset="0"
         id="stop9" />
    </linearGradient>
    <inkscape:path-effect
       effect="bspline"
       id="path-effect2"
       is_visible="true"
       lpeversion="1.3"
       weight="33.333333"
       steps="2"
       helper_size="0"
       apply_no_weight="true"
       apply_with_weight="true"
       only_selected="false"
       uniform="false" />
    <clipPath
       clipPathUnits="userSpaceOnUse"
       id="clipPath4">
      <g
         id="g5">
        <g
           inkscape:label="Clip"
           id="use4"
           clip-path="url(#clipPath4)">
          <g
             id="g34"
             inkscape:label="g2941">
            <path
               style="display:inline;opacity:1;fill:none;fill-opacity:0.119748;fill-rule:nonzero;stroke:#471d1d;stroke-width:0.5;stroke-linecap:round;stroke-linejoin:round;stroke-dasharray:none;stroke-dashoffset:0;stroke-opacity:1"
               d="m 294.55888,155.55134 c -5.71099,-5.59677 -5.95218,-5.93872 -7.3628,-9.11843 -1.01486,-2.25108 -1.03236,-8.37201 -0.21705,-11.11643 1.11405,-3.70272 0.91035,-5.19698 9.62309,-13.84142 0.63492,0.38115 -0.51719,0.71449 1.25635,2.32728 3.58527,3.2603 6.36864,10.2375 6.52122,12.04144 0.21929,3.77811 0.32019,5.94816 -0.19775,8.83215 -0.50674,2.40553 -2.88924,6.65563 -5.18641,7.90372 -1.86834,1.0151 -2.24982,1.34904 -4.43666,2.97169 z"
               id="path33"
               sodipodi:nodetypes="ccccsccscc"
               inkscape:label="Outer cut" />
            <path
               style="display:inline;opacity:1;fill:none;fill-opacity:0;fill-rule:nonzero;stroke:#471d1d;stroke-width:0.5;stroke-linejoin:round;stroke-dasharray:none;stroke-dashoffset:0;stroke-opacity:1"
               d="m 295.54755,152.4535 c -0.73645,-0.60431 -2.3119,-1.97713 -3.07786,-2.99315 -1.77198,-2.35048 -2.87171,-6.62488 -2.9281,-7.04278 -0.23438,-2.70237 -0.2416,-1.89407 0.13984,-4.59644 1.86783,-6.34821 3.22323,-10.55589 7.86084,-14.32349 l -2.02201,1.88081 c 0.711,0.68811 1.15723,1.83718 2.8615,2.02865 0.76692,0.26677 2.19975,1.21441 3.75696,8.83215 0.49097,2.45363 0.44018,4.13384 0.26366,6.2616 0.0768,0.13215 -0.0703,3.13886 -3.92408,7.05254 -1.86597,0.59148 -1.94193,1.85211 -2.93074,2.90011 z"
               id="path34"
               sodipodi:nodetypes="cscccccccccc"
               inkscape:label="Inner cut" />
          </g>
        </g>
      </g>
    </clipPath>
  </defs>
  <sodipodi:namedview
     id="namedview1"
     pagecolor="#ffffff"
     bordercolor="#ffffff"
     borderopacity="1"
     inkscape:showpageshadow="0"
     inkscape:pageopacity="0"
     inkscape:pagecheckerboard="0"
     inkscape:deskcolor="#505050"
     inkscape:zoom="2.8284272"
     inkscape:cx="218.31921"
     inkscape:cy="230.16325"
     inkscape:window-width="2560"
     inkscape:window-height="1368"
     inkscape:window-x="0"
     inkscape:window-y="0"
     inkscape:window-maximized="1"
     inkscape:current-layer="layer3"
     showguides="false" />
  <g
     inkscape:groupmode="layer"
     id="layer3"
     inkscape:label="SVG"
     inkscape:highlight-color="#ffffff"
     style="display:inline">
    <path
       id="path30"
       style="display:inline;color:#000000;fill:#5e5d60;stroke-linecap:round;stroke-linejoin:round;-inkscape-stroke:none"
       d="M 71.035694 159.06055 L 81.424366 159.06055 C 84.629204 159.34579 87.657442 156.58755 86.688038 150.17578 C 89.200319 154.27411 89.303085 157.42326 88.111866 159.98828 C 86.826238 162.75658 84.087687 164.82638 79.609913 166.2207 C 75.132133 167.61503 72.216665 168.95232 70.703663 170.02344 C 69.20135 171.08698 69.06236 171.79339 68.912647 172.67578 L 68.904834 177.61133 C 68.359543 177.46069 67.856054 177.37382 67.254444 177.31836 C 62.781688 175.98306 55.814638 175.48503 50.568897 167.02734 C 50.569945 167.00373 50.573855 166.9827 50.574756 166.95898 C 50.711759 163.3543 52.715133 161.25448 54.908741 160.25977 C 56.005545 159.76237 57.143773 159.52155 58.109913 159.375 C 59.076046 159.22845 59.895958 159.16609 60.117725 159.11719 L 71.043506 159.06836 C 71.040911 159.06568 71.038287 159.06323 71.035694 159.06055 z "
       transform="matrix(-1,0,0,1,412.9771,0)"
       inkscape:label="6" />
    <path
       id="path24"
       style="display:inline;color:#000000;fill:#5e5d60;stroke-linecap:round;stroke-linejoin:round;-inkscape-stroke:none"
       d="M 326.2896 150.17578 C 325.3202 156.58755 328.34648 159.34579 331.55132 159.06055 L 341.94194 159.06055 C 341.93935 159.06323 341.93672 159.06568 341.93413 159.06836 C 341.93413 159.06836 352.82801 159.10919 352.85991 159.11719 C 353.08263 159.16612 353.90354 159.22845 354.86968 159.375 C 355.83582 159.52155 356.97209 159.76237 358.0689 160.25977 C 360.26244 161.25447 362.26587 163.35431 362.40288 166.95898 C 362.40378 166.9827 362.40769 167.00373 362.40874 167.02734 C 357.163 175.48503 350.19595 175.98306 345.72319 177.31836 C 345.12224 177.37376 344.61936 177.461 344.07476 177.61133 L 344.06499 172.67578 C 343.91528 171.79339 343.77621 171.08698 342.27398 170.02344 C 340.76096 168.95232 337.84368 167.61502 333.36577 166.2207 C 328.88794 164.82637 326.15141 162.75658 324.86577 159.98828 C 323.67475 157.42371 323.77585 154.27386 326.2896 150.17578 z "
       transform="matrix(-1,0,0,1,412.9771,0)"
       inkscape:label="6" />
  </g>
</svg>
