<?xml version="1.0" encoding="UTF-8" standalone="no"?>
<!-- Created with Inkscape (http://www.inkscape.org/) -->

<svg
   version="1.1"
   id="svg1"
   width="413"
   height="434"
   viewBox="0 0 413 434"
   sodipodi:docname="lion.svg"
   inkscape:version="1.3.2 (091e20ef0f, 2023-11-25)"
   xmlns:inkscape="http://www.inkscape.org/namespaces/inkscape"
   xmlns:sodipodi="http://sodipodi.sourceforge.net/DTD/sodipodi-0.dtd"
   xmlns="http://www.w3.org/2000/svg"
   xmlns:svg="http://www.w3.org/2000/svg">
  <defs
     id="defs1">
    <linearGradient
       id="swatch9"
       inkscape:swatch="solid">
      <stop
         style="stop-color:#000000;stop-opacity:1;"
         offset="0"
         id="stop9" />
    </linearGradient>
    <inkscape:path-effect
       effect="bspline"
       id="path-effect2"
       is_visible="true"
       lpeversion="1.3"
       weight="33.333333"
       steps="2"
       helper_size="0"
       apply_no_weight="true"
       apply_with_weight="true"
       only_selected="false"
       uniform="false" />
    <clipPath
       clipPathUnits="userSpaceOnUse"
       id="clipPath4">
      <g
         id="g5">
        <g
           inkscape:label="Clip"
           id="use4"
           clip-path="url(#clipPath4)">
          <g
             id="g34"
             inkscape:label="g2941">
            <path
               style="display:inline;opacity:1;fill:none;fill-opacity:0.119748;fill-rule:nonzero;stroke:#471d1d;stroke-width:0.5;stroke-linecap:round;stroke-linejoin:round;stroke-dasharray:none;stroke-dashoffset:0;stroke-opacity:1"
               d="m 294.55888,155.55134 c -5.71099,-5.59677 -5.95218,-5.93872 -7.3628,-9.11843 -1.01486,-2.25108 -1.03236,-8.37201 -0.21705,-11.11643 1.11405,-3.70272 0.91035,-5.19698 9.62309,-13.84142 0.63492,0.38115 -0.51719,0.71449 1.25635,2.32728 3.58527,3.2603 6.36864,10.2375 6.52122,12.04144 0.21929,3.77811 0.32019,5.94816 -0.19775,8.83215 -0.50674,2.40553 -2.88924,6.65563 -5.18641,7.90372 -1.86834,1.0151 -2.24982,1.34904 -4.43666,2.97169 z"
               id="path33"
               sodipodi:nodetypes="ccccsccscc"
               inkscape:label="Outer cut" />
            <path
               style="display:inline;opacity:1;fill:none;fill-opacity:0;fill-rule:nonzero;stroke:#471d1d;stroke-width:0.5;stroke-linejoin:round;stroke-dasharray:none;stroke-dashoffset:0;stroke-opacity:1"
               d="m 295.54755,152.4535 c -0.73645,-0.60431 -2.3119,-1.97713 -3.07786,-2.99315 -1.77198,-2.35048 -2.87171,-6.62488 -2.9281,-7.04278 -0.23438,-2.70237 -0.2416,-1.89407 0.13984,-4.59644 1.86783,-6.34821 3.22323,-10.55589 7.86084,-14.32349 l -2.02201,1.88081 c 0.711,0.68811 1.15723,1.83718 2.8615,2.02865 0.76692,0.26677 2.19975,1.21441 3.75696,8.83215 0.49097,2.45363 0.44018,4.13384 0.26366,6.2616 0.0768,0.13215 -0.0703,3.13886 -3.92408,7.05254 -1.86597,0.59148 -1.94193,1.85211 -2.93074,2.90011 z"
               id="path34"
               sodipodi:nodetypes="cscccccccccc"
               inkscape:label="Inner cut" />
          </g>
        </g>
      </g>
    </clipPath>
  </defs>
  <sodipodi:namedview
     id="namedview1"
     pagecolor="#ffffff"
     bordercolor="#ffffff"
     borderopacity="1"
     inkscape:showpageshadow="0"
     inkscape:pageopacity="0"
     inkscape:pagecheckerboard="0"
     inkscape:deskcolor="#505050"
     inkscape:zoom="3.0162663"
     inkscape:cx="197.09798"
     inkscape:cy="275.17464"
     inkscape:window-width="2560"
     inkscape:window-height="1368"
     inkscape:window-x="0"
     inkscape:window-y="0"
     inkscape:window-maximized="1"
     inkscape:current-layer="layer3"
     showguides="false" />
  <g
     inkscape:groupmode="layer"
     id="layer3"
     inkscape:label="SVG"
     inkscape:highlight-color="#ffffff"
     style="display:inline">
    <g
       id="g12"
       inkscape:label="Lion"
       style="display:inline;fill:#000000;fill-opacity:1"
       transform="translate(-1.5215876e-6)">
      <path
         style="display:inline;opacity:1;fill:#000000;fill-opacity:1;stroke:#2e2631;stroke-width:0.8;stroke-linecap:round;stroke-linejoin:round;stroke-dasharray:none;stroke-opacity:1"
         d="m 212.79324,278.31578 c -0.62664,0.53233 -1.58227,0.98241 -3.30713,1.24018 -11.09196,4.52827 -3.9223,9.74815 -0.93013,8.78457 -4.89606,3.3292 -6.96456,1.81115 -10.12809,2.1703 0.96286,2.09154 0.41829,3.77197 4.13391,6.61426 0.52724,0.75319 -6.07321,3.64512 -13.53857,3.30714 -1.6904,-0.0765 -3.99844,0.54886 -4.34061,1.75691 -0.92666,5.13321 -3.44887,5.54357 -5.68413,1.24017 -4.0237,2.6817 -4.46597,-0.14576 -4.23726,-1.96361 -1.04393,2.66559 -9.0362,0.48549 -0.15503,-5.01237 11.78215,0.52797 15.56881,-2.43509 17.90059,-4.15683 0.71015,-5.16001 -2.88015,-8.47679 -2.03669,-14.91085 -1.29477,1.66343 -2.37776,3.38135 -5.99417,3.20379 -0.67384,-5.26542 4.96908,-13.80581 11.52328,-14.15866 5.12424,-0.27587 13.73544,-7.50255 13.38355,-7.85444 13.07674,-2.60932 15.24469,16.11391 3.41048,19.73944 z"
         id="path248"
         sodipodi:nodetypes="cccccscccccccscc"
         inkscape:label="Leg outline" />
      <path
         style="display:inline;opacity:1;fill:#000000;fill-opacity:1;stroke:#2e2631;stroke-width:0.8;stroke-linecap:round;stroke-linejoin:round;stroke-dasharray:none;stroke-opacity:1"
         d="m 188.50649,190.36676 c 0.008,-2.54925 -6.61696,-2.77317 -12.60843,-5.1674 -0.0855,-2.64577 -3.06535,-4.29426 -5.47744,-5.78748 -0.69865,1.39949 -1.59809,1.29088 -2.96245,1.01763 1.59797,1.36603 2.54726,2.73206 3.01412,4.09809 1.46989,2.45352 3.82812,4.21453 9.40466,4.03057 1.82541,-0.0602 4.03022,0.64599 5.53623,0.97506 1.29232,2.96123 2.6348,6.43781 3.09331,0.83353 z"
         id="path259"
         sodipodi:nodetypes="cccccscc"
         inkscape:label="Tongue" />
      <path
         style="display:inline;opacity:1;fill:#000000;fill-opacity:1;stroke:#172430;stroke-width:0.8;stroke-linecap:round;stroke-linejoin:round;stroke-dasharray:none;stroke-opacity:1"
         d="m 160.5523,176.70254 c -1.31023,-1.2333 -2.77141,-1.48549 -4.27506,-1.46156 0.94839,1.08399 1.43603,2.49683 1.42502,3.58082 1.33218,0.0224 4.53978,3.6211 2.85004,-2.11926 z"
         id="path260"
         sodipodi:nodetypes="cccc"
         inkscape:label="Claw" />
      <path
         style="opacity:1;fill:#000000;fill-opacity:1;stroke:#172430;stroke-width:0.8;stroke-linecap:round;stroke-linejoin:round;stroke-dasharray:none;stroke-opacity:1"
         d="m 153.50028,184.74111 c -0.71126,-1.46327 -1.44567,-2.81905 -2.44811,-4.45775 1.84524,-0.0528 2.94135,0.39383 3.32505,1.3154 4.43519,3.73221 0.53858,2.73277 -0.87694,3.14235 z"
         id="path261"
         sodipodi:nodetypes="cccc"
         inkscape:label="Claw" />
      <path
         style="opacity:1;fill:#000000;fill-opacity:1;stroke:#172430;stroke-width:0.8;stroke-linecap:round;stroke-linejoin:round;stroke-dasharray:none;stroke-opacity:1"
         d="m 153.79259,191.53736 c -0.91017,0.59155 -2.09918,1.24605 -3.61736,1.13271 l 3.51661,-3.39812 c 0.97308,0.53551 4.63747,0.44189 0.10075,2.26541 z"
         id="path262"
         sodipodi:nodetypes="cccc"
         inkscape:label="Claw" />
      <path
         style="opacity:1;fill:#000000;fill-opacity:1;stroke:#172430;stroke-width:0.8;stroke-linecap:round;stroke-linejoin:round;stroke-dasharray:none;stroke-opacity:1"
         d="m 151.78295,246.34584 c -0.86446,0.30016 -1.74185,0.33466 -3.24571,0.34766 1.63044,-1.49382 2.31326,-2.08202 3.17263,-3.30991 3.77092,1.03149 2.91977,2.00861 0.0731,2.96225 z"
         id="path263"
         sodipodi:nodetypes="cccc"
         inkscape:label="Claw" />
      <path
         style="opacity:1;fill:#000000;fill-opacity:1;stroke:#172430;stroke-width:0.8;stroke-linecap:round;stroke-linejoin:round;stroke-dasharray:none;stroke-opacity:1"
         d="m 153.69551,254.04413 c -0.9098,0.53697 -2.14286,0.76254 -4.1049,0.61487 1.54846,-1.58239 2.12324,-2.4863 3.06927,-4.00156 2.35495,0.47638 4.56721,0.99909 1.03563,3.38669 z"
         id="path264"
         sodipodi:nodetypes="cccc"
         inkscape:label="Claw" />
      <path
         style="opacity:1;fill:#000000;fill-opacity:1;stroke:#172430;stroke-width:0.8;stroke-linecap:round;stroke-linejoin:round;stroke-dasharray:none;stroke-opacity:1"
         d="m 157.17795,258.40684 c -1.24849,-0.0238 -1.79955,0.83381 -2.63317,1.2486 0.51518,-2.16025 1.1222,-3.07069 1.72987,-4.53137 4.66685,-0.92387 4.51452,0.37999 0.9033,3.28277 z"
         id="path265"
         sodipodi:nodetypes="cccc"
         inkscape:label="Claw" />
      <path
         style="opacity:1;fill:#000000;fill-opacity:1;stroke:#172430;stroke-width:0.8;stroke-linecap:round;stroke-linejoin:round;stroke-dasharray:none;stroke-opacity:1"
         d="m 163.76773,259.28064 c -0.70579,1.02703 -1.04593,2.15853 -1.27259,3.32245 -0.82399,-1.38009 -1.0822,-2.57895 -1.0792,-4.09679 0.96616,-1.76917 1.98969,-4.17668 2.35179,0.77434 z"
         id="path266"
         sodipodi:nodetypes="cccc"
         inkscape:label="Claw" />
      <path
         style="opacity:1;fill:#000000;fill-opacity:1;stroke:#172430;stroke-width:0.8;stroke-linecap:round;stroke-linejoin:round;stroke-dasharray:none;stroke-opacity:1"
         d="m 171.80631,302.5428 c -0.88648,0.32918 -1.43858,1.21567 -2.04618,2.00965 -0.32321,-1.21996 0.20156,-2.15894 0.80386,-3.17889 3.3917,-1.77577 2.97964,-0.78518 1.24232,1.16924 z"
         id="path267"
         sodipodi:nodetypes="cccc"
         inkscape:label="Claw" />
      <path
         style="opacity:1;fill:#000000;fill-opacity:1;stroke:#172430;stroke-width:0.8;stroke-linecap:round;stroke-linejoin:round;stroke-dasharray:none;stroke-opacity:1"
         d="m 175.60636,304.5159 c -1.06298,0.96911 -1.43366,1.86868 -2.19233,3.10582 0.096,-1.76678 0.18381,-3.50109 1.24232,-4.7866 5.56664,-2.46245 2.84501,-0.15287 0.95001,1.68078 z"
         id="path268"
         sodipodi:nodetypes="cccc"
         inkscape:label="Claw" />
      <path
         style="opacity:1;fill:#000000;fill-opacity:1;stroke:#172430;stroke-width:0.8;stroke-linecap:round;stroke-linejoin:round;stroke-dasharray:none;stroke-opacity:1"
         d="m 182.65839,306.41593 c -1.08047,0.69011 -1.25556,1.73929 -1.09617,3.10582 -0.92414,-1.33331 -1.23023,-2.56785 -1.09617,-4.09236 1.43194,-3.06009 2.61209,-4.90322 2.19234,0.98654 z"
         id="path269"
         sodipodi:nodetypes="cccc"
         inkscape:label="Claw" />
      <path
         style="opacity:1;fill:#000000;fill-opacity:1;stroke:#172430;stroke-width:0.8;stroke-linecap:round;stroke-linejoin:round;stroke-dasharray:none;stroke-opacity:1"
         d="m 201.47597,314.49105 c -0.64641,0.50402 -1.13704,0.69307 -1.97311,1.97311 -0.4066,-2.48263 0.37478,-3.40215 1.20579,-4.93277 1.63554,-0.53119 2.24886,0.0621 0.76732,2.95966 z"
         id="path270"
         sodipodi:nodetypes="cccc"
         inkscape:label="Claw" />
      <path
         style="display:inline;opacity:1;fill:#000000;fill-opacity:1;stroke:#172430;stroke-width:0.8;stroke-linecap:round;stroke-linejoin:round;stroke-dasharray:none;stroke-opacity:1"
         d="m 205.05679,316.57377 c -1.4501,0.26432 -1.3283,0.34316 -2.71751,1.09465 0.0904,-1.24774 -0.1939,-1.66055 0.3602,-2.71489 2.381,-1.4713 3.56174,-1.42922 2.35731,1.62024 z"
         id="path271"
         sodipodi:nodetypes="cccc"
         inkscape:label="Claw" />
      <path
         style="display:inline;opacity:1;fill:#000000;fill-opacity:1;stroke:#172430;stroke-width:0.8;stroke-linecap:round;stroke-linejoin:round;stroke-dasharray:none;stroke-opacity:1"
         d="m 187.6945,184.23843 c -1.03815,0.47161 -0.92884,1.45137 -1.15228,2.36357 -1.3509,-1.06566 -2.07263,-1.95958 -2.11483,-3.16299 1.57821,-1.48056 3.27788,-3.39495 3.26711,0.79942 z"
         id="path272"
         sodipodi:nodetypes="cccc"
         inkscape:label="Bottom tooth" />
      <path
         style="display:inline;opacity:1;fill:#000000;fill-opacity:1;stroke:#172430;stroke-width:0.8;stroke-linecap:round;stroke-linejoin:round;stroke-dasharray:none;stroke-opacity:1"
         d="m 188.37731,190.65096 c -1.04242,-0.34521 -1.33352,-0.54639 -2.42868,-1.55021 -0.7389,0.49213 -0.293,1.81362 -0.41339,2.73871 2.09857,2.17487 3.08766,1.87191 2.84207,-1.1885 z"
         id="path273"
         sodipodi:nodetypes="cccc"
         inkscape:label="Top tooth" />
      <path
         style="display:inline;opacity:1;fill:#000000;fill-opacity:1;stroke:#2e2631;stroke-width:0.8;stroke-linecap:round;stroke-linejoin:round;stroke-dasharray:none;stroke-opacity:1"
         d="m 165.56327,256.61273 c -0.13623,0.71006 -3.28865,5.6497 -4.13391,1.55022 -3.67236,1.33429 -5.9554,0.7072 -4.9607,-4.54731 -3.32961,3.10559 -7.44565,-2.27741 -1.13683,-5.16739 -4.83632,-0.90896 -5.10083,-6.16703 -0.62576,-5.97556 5.91725,2.44895 10.92674,3.25256 13.73866,0.0731 2.63927,-2.31455 2.27349,-5.29131 8.11165,-7.01549 0.96273,-0.59626 1.66789,-1.4501 2.04618,-2.6308 -0.25961,-1.0842 -7.05127,-4.92464 -0.21921,-10.30399 -4.13988,-0.0709 -5.82144,0.98868 -8.91551,-3.06928 -1.30089,-3.17636 -5.52849,-2.15762 -6.94241,-0.95001 l -0.0731,-4.16545 c 1.99008,-2.81503 0.65457,-5.71599 -2.9962,-2.70389 l 0.43847,-9.71937 -1.5346,-10.52321 c -1.94726,-0.28939 -4.84794,3.66885 -4.82314,-1.97311 2.17164,-1.6202 2.42872,-3.08085 -0.0731,-4.3116 0.006,-1.22905 -0.1693,-3.00433 0.0819,-3.49888 0.69753,-0.2721 3.0308,-0.21706 5.03352,-0.22812 l -1.07706,-0.0771 c 0.17794,-7.98082 6.0869,-4.89702 6.94103,1.1877 0.0163,2.09951 0.14544,4.40205 -0.0167,6.66674 0.98158,1.295 1.35923,2.6449 0.2067,4.13391 3.38133,4.9607 4.43768,9.9214 6.20087,14.8821 3.0763,-0.17218 5.38299,1.57964 7.69942,3.30713 25.4119,-12.01631 15.73669,-18.07624 11.91137,-18.08224 -2.22255,-0.0358 -3.69316,1.78805 -4.49616,1.66285 -1.50889,-0.0543 -3.29885,-3.23976 1.71147,-3.54257 0.0974,-1.40805 2.96081,-1.0162 5.93626,-1.01766 -0.89174,-1.39676 -4.55571,-7.88269 -9.17212,-7.131 -2.76878,-2.86854 0.72347,-4.95049 2.01504,-6.90359 -1.79597,2.82022 -5.18942,1.76033 -1.14911,-2.08767 h 12.10423 c 3.02784,-2.87936 5.95762,-4.24564 8.50385,-1.88383 10.09219,-0.24151 21.81069,-3.93955 20.57037,18.97 2.08696,2.54749 4.83196,3.23952 8.47705,-0.14615 0.21206,2.53844 -4.76027,7.02148 -8.40397,7.01548 4.45941,8.07594 0.87382,12.12938 -3.06927,16.00408 0.10386,4.38861 1.89496,8.95831 7.6001,4.23852 -1.29937,7.4711 -7.10212,5.52034 -10.5963,5.91931 -0.29522,3.10845 0.8977,6.14662 -2.82565,8.89421 2.52905,2.77696 4.94713,2.19384 7.75109,1.1885 -0.86466,2.10055 -0.33068,3.54312 -3.92722,5.01237 -0.51674,5.91522 4.54198,12.98136 11.26492,15.50218 8.85758,3.32122 12.4511,9.2537 12.19505,12.71179 10.84079,6.59373 18.38738,-20.68512 -10.43814,-27.49053 1.64104,-1.58388 2.24111,-3.81837 8.06113,-2.79039 -9.52864,-17.95373 -3.56909,-21.90004 -2.18892,-29.224 -0.0453,-2.28416 0.47674,-5.46262 -1.01486,-8.18793 0.93267,0.0507 2.55237,0.29195 5.27074,2.96162 10.2261,-13.73404 20.63463,1.11627 17.25391,8.83777 -4.13026,9.43343 2.26991,7.7663 4.53996,7.88471 -7.08846,14.89153 -10.241,-1.88173 -16.31644,-2.52835 -1.06701,-0.0577 -4.63807,0.94414 -5.47743,7.23435 l 3.82387,-2.06696 c 0.0542,5.39984 -3.78533,8.49226 2.99709,17.87918 5.14143,-3.94524 5.29948,-6.84942 11.05822,-5.89083 -4.21866,0.14072 -3.91833,7.33007 -2.89374,17.36244 1.25627,12.30095 -2.49667,26.85306 -17.0524,21.5997 -2.60368,4.55831 -5.96631,4.56291 -9.0733,6.10135 -0.0546,5.34308 -0.74806,8.2592 7.08856,7.92897 -1.84562,1.99218 -2.70776,5.03245 -7.08856,3.9462 1.22636,1.35172 1.34529,2.59265 5.99239,5.04238 -1.91408,1.07614 -1.21209,3.48412 -3.87313,4.9693 -4.79845,0.40908 -15.12992,-0.50351 -15.20022,13.37327 -2.39005,1.29968 -6.82043,4.49744 -11.98478,-0.43847 -1.99831,3.30233 -6.6096,2.62862 -5.72364,-0.99952 -1.88808,3.28852 -4.27582,-1.84974 0.9433,-4.88065 16.39409,0.51247 18.78478,-8.29355 18.95746,-20.13558 -2.79641,0.11867 -13.81653,-6.88553 -8.91551,-15.78485 -3.47241,0.26051 -4.70544,-0.31841 -5.26161,-1.3154 4.64028,0.17096 8.636,-10.46938 0.14615,-12.71557 -3.93954,-0.37382 -17.07933,-4.13689 -20.16952,-13.15403 -1.98191,1.12442 -4.73275,2.11141 -10.96169,2.11926 -6.93334,8.33517 -10.25849,3.04994 -11.87005,9.09764 z"
         id="path247"
         sodipodi:nodetypes="scccccccccccccscccccccscccccccscccccccccccccccccccccccccccccccccccccccccccss"
         inkscape:label="Main outline" />
    </g>
    <rect
       style="opacity:1;fill:#000000;stroke-width:3;stroke-linecap:round;stroke-linejoin:round"
       id="rect3"
       width="3.3113399"
       height="3.5164673"
       x="184.84895"
       y="176.05779" />
  </g>
</svg>
