<?xml version="1.0" encoding="UTF-8" standalone="no"?>
<!-- Created with Inkscape (http://www.inkscape.org/) -->

<svg
   version="1.1"
   id="svg1"
   width="413"
   height="434"
   viewBox="0 0 413 434"
   sodipodi:docname="shield_inner.svg"
   inkscape:version="1.3.2 (091e20ef0f, 2023-11-25)"
   xmlns:inkscape="http://www.inkscape.org/namespaces/inkscape"
   xmlns:sodipodi="http://sodipodi.sourceforge.net/DTD/sodipodi-0.dtd"
   xmlns="http://www.w3.org/2000/svg"
   xmlns:svg="http://www.w3.org/2000/svg">
  <defs
     id="defs1">
    <linearGradient
       id="swatch9"
       inkscape:swatch="solid">
      <stop
         style="stop-color:#000000;stop-opacity:1;"
         offset="0"
         id="stop9" />
    </linearGradient>
    <inkscape:path-effect
       effect="bspline"
       id="path-effect2"
       is_visible="true"
       lpeversion="1.3"
       weight="33.333333"
       steps="2"
       helper_size="0"
       apply_no_weight="true"
       apply_with_weight="true"
       only_selected="false"
       uniform="false" />
    <clipPath
       clipPathUnits="userSpaceOnUse"
       id="clipPath4">
      <g
         id="g5">
        <g
           inkscape:label="Clip"
           id="use4"
           clip-path="url(#clipPath4)">
          <g
             id="g34"
             inkscape:label="g2941">
            <path
               style="display:inline;opacity:1;fill:none;fill-opacity:0.119748;fill-rule:nonzero;stroke:#471d1d;stroke-width:0.5;stroke-linecap:round;stroke-linejoin:round;stroke-dasharray:none;stroke-dashoffset:0;stroke-opacity:1"
               d="m 294.55888,155.55134 c -5.71099,-5.59677 -5.95218,-5.93872 -7.3628,-9.11843 -1.01486,-2.25108 -1.03236,-8.37201 -0.21705,-11.11643 1.11405,-3.70272 0.91035,-5.19698 9.62309,-13.84142 0.63492,0.38115 -0.51719,0.71449 1.25635,2.32728 3.58527,3.2603 6.36864,10.2375 6.52122,12.04144 0.21929,3.77811 0.32019,5.94816 -0.19775,8.83215 -0.50674,2.40553 -2.88924,6.65563 -5.18641,7.90372 -1.86834,1.0151 -2.24982,1.34904 -4.43666,2.97169 z"
               id="path33"
               sodipodi:nodetypes="ccccsccscc"
               inkscape:label="Outer cut" />
            <path
               style="display:inline;opacity:1;fill:none;fill-opacity:0;fill-rule:nonzero;stroke:#471d1d;stroke-width:0.5;stroke-linejoin:round;stroke-dasharray:none;stroke-dashoffset:0;stroke-opacity:1"
               d="m 295.54755,152.4535 c -0.73645,-0.60431 -2.3119,-1.97713 -3.07786,-2.99315 -1.77198,-2.35048 -2.87171,-6.62488 -2.9281,-7.04278 -0.23438,-2.70237 -0.2416,-1.89407 0.13984,-4.59644 1.86783,-6.34821 3.22323,-10.55589 7.86084,-14.32349 l -2.02201,1.88081 c 0.711,0.68811 1.15723,1.83718 2.8615,2.02865 0.76692,0.26677 2.19975,1.21441 3.75696,8.83215 0.49097,2.45363 0.44018,4.13384 0.26366,6.2616 0.0768,0.13215 -0.0703,3.13886 -3.92408,7.05254 -1.86597,0.59148 -1.94193,1.85211 -2.93074,2.90011 z"
               id="path34"
               sodipodi:nodetypes="cscccccccccc"
               inkscape:label="Inner cut" />
          </g>
        </g>
      </g>
    </clipPath>
  </defs>
  <sodipodi:namedview
     id="namedview1"
     pagecolor="#ffffff"
     bordercolor="#ffffff"
     borderopacity="1"
     inkscape:showpageshadow="0"
     inkscape:pageopacity="0"
     inkscape:pagecheckerboard="0"
     inkscape:deskcolor="#505050"
     inkscape:zoom="2.1328224"
     inkscape:cx="457.84402"
     inkscape:cy="269.12695"
     inkscape:window-width="2560"
     inkscape:window-height="1368"
     inkscape:window-x="0"
     inkscape:window-y="0"
     inkscape:window-maximized="1"
     inkscape:current-layer="layer3"
     showguides="false" />
  <g
     inkscape:groupmode="layer"
     id="layer3"
     inkscape:label="SVG"
     inkscape:highlight-color="#ffffff"
     style="display:inline;fill:#000000;fill-opacity:1">
    <g
       id="g11"
       inkscape:label="Shield"
       style="display:inline;fill:#000000;fill-opacity:1"
       transform="translate(-1.5215876e-6)">
      <g
         id="path274"
         inkscape:label="Inner">
        <path
           style="color:#000000;fill:#3e3c41;stroke-linecap:round;stroke-linejoin:round;-inkscape-stroke:none"
           d="m 271.49023,164.09766 -127.01562,0.0371 c -0.22045,8.8e-4 -0.39863,0.17994 -0.39844,0.40039 l -0.01,95.95703 c 6.3e-4,0.0137 0.002,0.0274 0.004,0.041 4.43141,41.54478 35.87755,60.39247 63.91211,60.17383 32.50852,-6e-5 62.36903,-25.8377 63.85742,-63.13086 1e-4,-0.005 1e-4,-0.0104 0,-0.0156 l 0.0508,-93.0625 c 1.9e-4,-0.22121 -0.17918,-0.40058 -0.40039,-0.40039 z"
           id="path2"
           sodipodi:nodetypes="ccccccccccc" />
      </g>
    </g>
  </g>
</svg>
