<?xml version="1.0" encoding="UTF-8" standalone="no"?>
<!-- Created with Inkscape (http://www.inkscape.org/) -->

<svg
   version="1.1"
   id="svg1"
   width="413"
   height="434"
   viewBox="0 0 413 434"
   sodipodi:docname="text.svg"
   inkscape:version="1.3.2 (091e20ef0f, 2023-11-25)"
   xmlns:inkscape="http://www.inkscape.org/namespaces/inkscape"
   xmlns:sodipodi="http://sodipodi.sourceforge.net/DTD/sodipodi-0.dtd"
   xmlns="http://www.w3.org/2000/svg"
   xmlns:svg="http://www.w3.org/2000/svg">
  <defs
     id="defs1">
    <linearGradient
       id="swatch9"
       inkscape:swatch="solid">
      <stop
         style="stop-color:#000000;stop-opacity:1;"
         offset="0"
         id="stop9" />
    </linearGradient>
    <inkscape:path-effect
       effect="bspline"
       id="path-effect2"
       is_visible="true"
       lpeversion="1.3"
       weight="33.333333"
       steps="2"
       helper_size="0"
       apply_no_weight="true"
       apply_with_weight="true"
       only_selected="false"
       uniform="false" />
    <clipPath
       clipPathUnits="userSpaceOnUse"
       id="clipPath4">
      <g
         id="g5">
        <g
           inkscape:label="Clip"
           id="use4"
           clip-path="url(#clipPath4)">
          <g
             id="g34"
             inkscape:label="g2941">
            <path
               style="display:inline;opacity:1;fill:none;fill-opacity:0.119748;fill-rule:nonzero;stroke:#471d1d;stroke-width:0.5;stroke-linecap:round;stroke-linejoin:round;stroke-dasharray:none;stroke-dashoffset:0;stroke-opacity:1"
               d="m 294.55888,155.55134 c -5.71099,-5.59677 -5.95218,-5.93872 -7.3628,-9.11843 -1.01486,-2.25108 -1.03236,-8.37201 -0.21705,-11.11643 1.11405,-3.70272 0.91035,-5.19698 9.62309,-13.84142 0.63492,0.38115 -0.51719,0.71449 1.25635,2.32728 3.58527,3.2603 6.36864,10.2375 6.52122,12.04144 0.21929,3.77811 0.32019,5.94816 -0.19775,8.83215 -0.50674,2.40553 -2.88924,6.65563 -5.18641,7.90372 -1.86834,1.0151 -2.24982,1.34904 -4.43666,2.97169 z"
               id="path33"
               sodipodi:nodetypes="ccccsccscc"
               inkscape:label="Outer cut" />
            <path
               style="display:inline;opacity:1;fill:none;fill-opacity:0;fill-rule:nonzero;stroke:#471d1d;stroke-width:0.5;stroke-linejoin:round;stroke-dasharray:none;stroke-dashoffset:0;stroke-opacity:1"
               d="m 295.54755,152.4535 c -0.73645,-0.60431 -2.3119,-1.97713 -3.07786,-2.99315 -1.77198,-2.35048 -2.87171,-6.62488 -2.9281,-7.04278 -0.23438,-2.70237 -0.2416,-1.89407 0.13984,-4.59644 1.86783,-6.34821 3.22323,-10.55589 7.86084,-14.32349 l -2.02201,1.88081 c 0.711,0.68811 1.15723,1.83718 2.8615,2.02865 0.76692,0.26677 2.19975,1.21441 3.75696,8.83215 0.49097,2.45363 0.44018,4.13384 0.26366,6.2616 0.0768,0.13215 -0.0703,3.13886 -3.92408,7.05254 -1.86597,0.59148 -1.94193,1.85211 -2.93074,2.90011 z"
               id="path34"
               sodipodi:nodetypes="cscccccccccc"
               inkscape:label="Inner cut" />
          </g>
        </g>
      </g>
    </clipPath>
  </defs>
  <sodipodi:namedview
     id="namedview1"
     pagecolor="#ffffff"
     bordercolor="#ffffff"
     borderopacity="1"
     inkscape:showpageshadow="0"
     inkscape:pageopacity="0"
     inkscape:pagecheckerboard="0"
     inkscape:deskcolor="#505050"
     inkscape:zoom="3.0162664"
     inkscape:cx="160.96058"
     inkscape:cy="226.43888"
     inkscape:window-width="2560"
     inkscape:window-height="1368"
     inkscape:window-x="0"
     inkscape:window-y="0"
     inkscape:window-maximized="1"
     inkscape:current-layer="layer3"
     showguides="false" />
  <g
     inkscape:groupmode="layer"
     id="layer3"
     inkscape:label="SVG"
     inkscape:highlight-color="#ffffff"
     style="display:inline">
    <g
       id="g2"
       inkscape:label="Text">
      <path
         d="m 241.73703,399.51309 q -2.58366,1.03347 -5.01968,1.5502 -2.41758,0.51673 -4.61369,0.51673 -2.63903,0 -4.94587,-0.75664 -2.30684,-0.75665 -4.22613,-2.26994 -2.5283,-1.9562 -3.8755,-4.81668 -1.34719,-2.86049 -1.34719,-6.29307 0,-3.48794 1.36565,-6.4407 1.36565,-2.97121 3.96777,-5.03814 2.21456,-1.79011 5.01968,-2.69439 2.82358,-0.90429 6.2008,-0.90429 1.56865,0 3.30339,0.23992 1.73475,0.23991 3.61713,0.70128 l -0.0369,5.03814 q -1.66092,-1.19956 -3.69095,-1.82702 -2.01156,-0.62746 -4.24458,-0.62746 -4.76133,0 -7.5849,3.08194 -2.82358,3.08194 -2.82358,8.32309 0,4.90896 2.74976,7.8248 2.76821,2.91585 7.38189,2.91585 2.30685,0 4.50296,-0.83046 2.19611,-0.83046 4.42914,-2.5283 z"
         id="text3"
         style="font-size:37.7953px;font-family:'Flareserif821 BT';-inkscape-font-specification:'Flareserif821 BT';stroke-width:6;stroke-linecap:round;stroke-linejoin:round"
         inkscape:label="Chamusca"
         transform="rotate(5.6266984)"
         aria-label="C" />
      <path
         d="m 191.35125,421.32048 v -4.82333 q 0,-2.17415 -0.3106,-3.96462 -0.29232,-1.80875 -0.9135,-3.39825 h 6.75996 q -0.60292,1.55296 -0.89524,3.34344 -0.29232,1.7722 -0.29232,4.01943 v 13.59301 q 0,2.22896 0.29232,4.01943 0.29232,1.77221 0.89524,3.34344 h -6.75996 q 0.62118,-1.60777 0.9135,-3.39825 0.3106,-1.80874 0.3106,-3.96462 v -5.207 h -11.96696 v 5.207 q 0,2.15588 0.29232,3.96462 0.31059,1.79048 0.95005,3.39825 h -6.77823 q 0.62118,-1.60777 0.91351,-3.39825 0.31059,-1.80874 0.31059,-3.96462 v -13.59301 q 0,-2.17415 -0.31059,-3.96462 -0.29233,-1.80875 -0.91351,-3.39825 h 6.77823 q -0.63946,1.5895 -0.95005,3.39825 -0.29232,1.79047 -0.29232,3.96462 v 4.82333 z"
         id="text4"
         style="font-size:37.4173px;font-family:'Flareserif821 BT';-inkscape-font-specification:'Flareserif821 BT';stroke-width:6;stroke-linecap:round;stroke-linejoin:round"
         inkscape:label="cHamusca"
         transform="rotate(-4.2302635)"
         aria-label="H" />
      <path
         d="m 154.83354,445.72311 h 7.1071 l -3.39825,-8.05714 z m -1.53469,3.28863 -1.79048,3.74539 q -0.60291,1.24237 -0.87697,2.2655 -0.27405,1.02313 -0.27405,1.91837 0,0.16443 0,0.34713 0.0183,0.1827 0.0548,0.47502 h -6.72342 q 1.07794,-1.38853 2.11934,-3.08766 1.05967,-1.71739 2.10107,-3.83673 l 10.92556,-21.99728 10.5967,22.81944 q 0.58464,1.27891 1.53469,2.79533 0.95005,1.49816 2.32031,3.3069 h -7.25326 q 0.0548,-0.3654 0.0731,-0.69426 0.0365,-0.34714 0.0365,-0.62119 0,-0.63945 -0.14617,-1.26064 -0.14616,-0.62119 -0.63945,-1.73567 l -1.91837,-4.43965 z"
         id="text5"
         style="font-size:37.4173px;font-family:'Flareserif821 BT';-inkscape-font-specification:'Flareserif821 BT';stroke-width:6;stroke-linecap:round;stroke-linejoin:round"
         inkscape:label="chAmusca"
         transform="rotate(-11.134556)"
         aria-label="A" />
      <path
         d="m 92.923335,461.4326 v 12.95355 q 0,2.22896 0.292323,4.01943 0.292322,1.77221 0.913508,3.34344 h -6.741691 q 0.621185,-1.57123 0.913508,-3.34344 0.292323,-1.79047 0.292323,-4.01943 v -17.95958 l -2.959767,-2.9963 h 6.6138 q 0.03654,0.98658 1.224101,2.50301 l 0.09135,0.10962 8.787949,11.25442 8.8793,-11.25442 q 0.74908,-0.95005 1.00486,-1.49815 0.25578,-0.54811 0.31059,-1.11448 h 6.26667 q -1.29718,1.05966 -1.99145,2.92322 -0.69426,1.84529 -0.69426,4.25695 v 13.77571 q 0,2.22896 0.29232,4.01943 0.29232,1.77221 0.91351,3.34344 h -6.77823 q 0.62118,-1.60777 0.9135,-3.39825 0.3106,-1.80874 0.3106,-3.96462 v -12.91701 l -9.50049,11.74772 z"
         id="text6"
         style="font-size:37.4173px;font-family:'Flareserif821 BT';-inkscape-font-specification:'Flareserif821 BT';stroke-width:6;stroke-linecap:round;stroke-linejoin:round"
         inkscape:label="chaMusca"
         transform="rotate(-21.921273)"
         aria-label="M" />
      <path
         d="m 35.479681,492.22411 q -2.265501,1.71739 -4.403111,2.57609 -2.119339,0.8587 -4.129057,0.8587 -1.498154,0 -3.014578,-0.45675 -1.498153,-0.47503 -2.868416,-1.37027 -0.767347,-0.47502 -1.370262,-1.11448 -0.602916,-0.65772 -1.02313,-1.42507 -0.529834,-0.98659 -0.767347,-2.13761 -0.237512,-1.16929 -0.237512,-3.25209 v -0.82216 -10.66977 q 0,-2.24723 -0.292322,-4.01944 -0.292323,-1.79048 -0.895239,-3.34344 h 6.723422 q -0.602916,1.55296 -0.895238,3.34344 -0.292323,1.77221 -0.292323,4.01944 v 10.24956 q 0,2.41166 0.164431,3.39825 0.164432,0.98659 0.584646,1.58951 0.840427,1.29718 2.320311,2.02798 1.479883,0.73081 3.252089,0.73081 1.370263,0 2.649175,-0.51156 1.278911,-0.51157 2.28377,-1.46162 0.931779,-0.89524 1.315452,-2.06453 0.401944,-1.18756 0.401944,-4.11078 v -9.84762 q 0,-2.24723 -0.292323,-4.01944 -0.292322,-1.79048 -0.895238,-3.34344 h 6.723422 q -0.602916,1.55296 -0.895239,3.34344 -0.292322,1.77221 -0.292322,4.01944 v 13.593 q 0,2.22896 0.292322,4.01944 0.292323,1.7722 0.895239,3.34344 h -5.042566 z"
         id="text7"
         style="font-size:37.4173px;font-family:'Flareserif821 BT';-inkscape-font-specification:'Flareserif821 BT';stroke-width:6;stroke-linecap:round;stroke-linejoin:round"
         inkscape:label="chamUsca"
         transform="rotate(-34.683531)"
         aria-label="U" />
      <path
         d="m -38.438607,487.92132 q 0.968319,1.82702 2.375122,2.77706 1.406803,0.93178 3.215549,0.93178 1.772207,0 2.886687,-1.00486 1.11448,-1.02313 1.11448,-2.6309 0,-2.6309 -4.512731,-5.207 -0.584646,-0.34713 -0.876968,-0.51156 -3.051118,-1.80875 -4.183868,-3.45306 -1.132751,-1.64432 -1.132751,-4.03771 0,-3.56268 2.484743,-6.01089 2.484743,-2.4482 6.120506,-2.4482 1.15102,0 2.411662,0.25578 1.260641,0.23752 2.594363,0.73081 l -0.182701,4.93295 q -0.895238,-1.11448 -2.101069,-1.69913 -1.205831,-0.58464 -2.649175,-0.58464 -1.881827,0 -3.032847,1.09621 -1.151021,1.07793 -1.151021,2.83187 0,1.42507 0.840428,2.48474 0.840428,1.05967 3.727114,2.7588 0.200972,0.10962 0.602915,0.34713 2.685715,1.55297 3.873276,2.72226 0.950048,0.91351 1.425073,2.17415 0.493294,1.24237 0.493294,2.75879 0,3.76366 -2.612634,5.90127 -2.594363,2.13761 -7.234986,2.13761 -1.11448,0 -2.2655,-0.20098 -1.151021,-0.20097 -2.375122,-0.62118 z"
         id="text8"
         style="font-size:37.4173px;font-family:'Flareserif821 BT';-inkscape-font-specification:'Flareserif821 BT';stroke-width:6;stroke-linecap:round;stroke-linejoin:round"
         inkscape:label="chamuSca"
         transform="rotate(-44.547219)"
         aria-label="S" />
      <path
         d="m -72.1251,484.06896 q -2.557824,1.02313 -4.969485,1.53469 -2.393392,0.51157 -4.567542,0.51157 -2.612634,0 -4.896405,-0.74908 -2.283771,-0.74908 -4.183868,-2.24723 -2.503013,-1.93664 -3.836735,-4.76851 -1.333722,-2.83188 -1.333722,-6.23013 0,-3.45306 1.351992,-6.37629 1.351993,-2.94149 3.928086,-4.98775 2.19242,-1.77221 4.969485,-2.66745 2.795336,-0.89524 6.138776,-0.89524 1.552965,0 3.27036,0.23752 1.717396,0.23751 3.580953,0.69426 l -0.03654,4.98776 q -1.644315,-1.18756 -3.654033,-1.80875 -1.991448,-0.62118 -4.202138,-0.62118 -4.713703,0 -7.509039,3.05111 -2.795335,3.05112 -2.795335,8.23985 0,4.85986 2.722255,7.74655 2.740525,2.88669 7.308066,2.88669 2.283771,0 4.457921,-0.82216 2.17415,-0.82216 4.38484,-2.50301 z"
         id="text9"
         style="font-size:37.4173px;font-family:'Flareserif821 BT';-inkscape-font-specification:'Flareserif821 BT';stroke-width:6;stroke-linecap:round;stroke-linejoin:round"
         inkscape:label="chamusCa"
         transform="rotate(-53.261365)"
         aria-label="C" />
      <path
         d="m -124.35559,459.74545 h 7.10709 l -3.39825,-8.05714 z m -1.53469,3.28863 -1.79048,3.74539 q -0.60292,1.24237 -0.87697,2.2655 -0.27405,1.02313 -0.27405,1.91836 0,0.16444 0,0.34714 0.0183,0.1827 0.0548,0.47502 h -6.72342 q 1.07794,-1.38853 2.11934,-3.08766 1.05967,-1.71739 2.10107,-3.83673 l 10.92556,-21.99728 10.59669,22.81944 q 0.58465,1.27891 1.5347,2.79533 0.95005,1.49816 2.32031,3.3069 h -7.25326 q 0.0548,-0.3654 0.0731,-0.69426 0.0365,-0.34714 0.0365,-0.62119 0,-0.63946 -0.14616,-1.26064 -0.14616,-0.62119 -0.63945,-1.73567 l -1.91837,-4.43965 z"
         id="text10"
         style="font-size:37.4173px;font-family:'Flareserif821 BT';-inkscape-font-specification:'Flareserif821 BT';stroke-width:6;stroke-linecap:round;stroke-linejoin:round"
         inkscape:label="chamuscA"
         transform="rotate(-60.988398)"
         aria-label="A" />
      <path
         d="m 323.25473,109.51554 -7.36287,-20.426045 q -0.93178,-2.539553 -2.02799,-4.457921 -1.07794,-1.918367 -2.42993,-3.434791 h 7.74655 q -0.0548,0.420214 -0.0914,0.785617 -0.0183,0.365403 -0.0183,0.712537 0,1.15102 0.3106,2.630904 0.32886,1.479883 0.98659,3.3069 l 5.02429,14.141109 6.32148,-16.607582 q 0.29232,-0.767347 0.43848,-1.534694 0.16444,-0.785617 0.16444,-1.498153 0,-0.493295 -0.0914,-0.968319 -0.0913,-0.493295 -0.29232,-0.968319 h 7.14364 q -1.20583,1.571234 -2.35685,3.763654 -1.15102,2.17415 -2.24723,4.987756 l -7.6552,19.567347 z"
         id="text11"
         style="font-size:37.4173px;font-family:'Flareserif821 BT';-inkscape-font-specification:'Flareserif821 BT';stroke-width:6;stroke-linecap:round;stroke-linejoin:round"
         inkscape:label="Vila"
         transform="rotate(61.012586)"
         aria-label="V" />
      <path
         d="m 330.26698,127.35734 q -0.63946,1.58951 -0.95005,3.39825 -0.29232,1.79048 -0.29232,3.96463 v 13.593 q 0,2.15588 0.29232,3.96463 0.31059,1.79048 0.95005,3.39825 h -6.77823 q 0.62118,-1.60777 0.9135,-3.39825 0.3106,-1.80875 0.3106,-3.96463 v -13.593 q 0,-2.17415 -0.3106,-3.96463 -0.29232,-1.80874 -0.9135,-3.39825 z"
         id="text12"
         style="font-size:37.4173px;font-family:'Flareserif821 BT';-inkscape-font-specification:'Flareserif821 BT';stroke-width:6;stroke-linecap:round;stroke-linejoin:round"
         inkscape:label="vIla"
         transform="rotate(52.997804)"
         aria-label="I" />
      <path
         d="m 325.25782,158.96794 q -0.63945,1.5895 -0.95005,3.39825 -0.29232,1.79048 -0.29232,3.96463 v 18.27016 q 3.34344,-0.29232 6.02916,-0.91351 2.68571,-0.63945 4.85986,-1.64431 -0.71254,1.53469 -1.27891,2.83188 -0.54811,1.27891 -0.96832,2.41166 h -14.17765 q 0.62119,-1.60778 0.91351,-3.39825 0.31059,-1.80875 0.31059,-3.96463 v -13.593 q 0,-2.17415 -0.31059,-3.96463 -0.29232,-1.80875 -0.91351,-3.39825 z"
         id="text13"
         style="font-size:37.4173px;font-family:'Flareserif821 BT';-inkscape-font-specification:'Flareserif821 BT';stroke-width:6;stroke-linecap:round;stroke-linejoin:round"
         inkscape:label="viLa"
         transform="rotate(47.514035)"
         aria-label="L" />
      <path
         d="m 316.65927,218.07425 h 7.1071 l -3.39825,-8.05714 z m -1.53469,3.28863 -1.79048,3.74538 q -0.60291,1.24237 -0.87697,2.2655 -0.27405,1.02313 -0.27405,1.91837 0,0.16443 0,0.34713 0.0183,0.18271 0.0548,0.47503 h -6.72342 q 1.07794,-1.38853 2.11934,-3.08766 1.05967,-1.7174 2.10107,-3.83673 l 10.92556,-21.99729 10.59669,22.81944 q 0.58465,1.27891 1.5347,2.79534 0.95005,1.49815 2.32031,3.3069 h -7.25326 q 0.0548,-0.36541 0.0731,-0.69427 0.0365,-0.34713 0.0365,-0.62118 0,-0.63946 -0.14616,-1.26065 -0.14616,-0.62118 -0.63945,-1.73566 l -1.91837,-4.43965 z"
         id="text14"
         style="font-size:37.4173px;font-family:'Flareserif821 BT';-inkscape-font-specification:'Flareserif821 BT';stroke-width:6;stroke-linecap:round;stroke-linejoin:round"
         inkscape:label="vilA"
         transform="rotate(39.922836)"
         aria-label="A" />
      <path
         d="m 287.1778,301.03772 q 0.62119,-1.60777 0.91351,-3.39825 0.31059,-1.80875 0.31059,-3.96463 v -13.593 q 0,-2.17415 -0.31059,-3.96463 -0.29232,-1.80874 -0.91351,-3.39825 h 3.32517 q 3.23382,0 5.44451,0.32886 2.22896,0.32887 4.05598,1.0414 4.05598,1.62605 6.4311,5.07911 2.37512,3.43479 2.37512,7.69174 0,4.03771 -1.80875,7.25326 -1.79047,3.21555 -5.04256,5.02429 -1.80875,0.98659 -4.11079,1.44335 -2.30204,0.45675 -5.80991,0.45675 z m 5.53586,-2.64917 h 0.21925 q 1.29718,0 2.48474,-0.29233 1.20583,-0.29232 2.30204,-0.87697 2.86842,-1.46161 4.49446,-4.14732 1.64432,-2.70399 1.64432,-5.99262 0,-4.69543 -3.03285,-7.85617 -3.01458,-3.17901 -8.11196,-3.78192 z"
         id="text15"
         style="font-size:37.4173px;font-family:'Flareserif821 BT';-inkscape-font-specification:'Flareserif821 BT';stroke-width:6;stroke-linecap:round;stroke-linejoin:round"
         inkscape:label="Da"
         transform="rotate(26.967679)"
         aria-label="D" />
      <path
         d="m 275.13077,328.95785 h 7.10709 l -3.39825,-8.05714 z m -1.5347,3.28863 -1.79047,3.74539 q -0.60292,1.24237 -0.87697,2.2655 -0.27405,1.02313 -0.27405,1.91837 0,0.16443 0,0.34713 0.0183,0.1827 0.0548,0.47502 h -6.72342 q 1.07794,-1.38853 2.11934,-3.08765 1.05967,-1.7174 2.10106,-3.83674 l 10.92556,-21.99728 10.5967,22.81944 q 0.58465,1.27891 1.5347,2.79533 0.95004,1.49816 2.32031,3.3069 h -7.25326 q 0.0548,-0.3654 0.0731,-0.69426 0.0365,-0.34714 0.0365,-0.62119 0,-0.63945 -0.14616,-1.26064 -0.14616,-0.62118 -0.63946,-1.73567 l -1.91836,-4.43965 z"
         id="text16"
         style="font-size:37.4173px;font-family:'Flareserif821 BT';-inkscape-font-specification:'Flareserif821 BT';stroke-width:6;stroke-linecap:round;stroke-linejoin:round"
         inkscape:label="dA"
         transform="rotate(19.072901)"
         aria-label="A" />
    </g>
  </g>
</svg>
