<?xml version="1.0" encoding="UTF-8" standalone="no"?>
<!-- Created with Inkscape (http://www.inkscape.org/) -->

<svg
   version="1.1"
   id="svg1"
   width="413"
   height="434"
   viewBox="0 0 413 434"
   sodipodi:docname="towers_entrance.svg"
   inkscape:version="1.3.2 (091e20ef0f, 2023-11-25)"
   xmlns:inkscape="http://www.inkscape.org/namespaces/inkscape"
   xmlns:sodipodi="http://sodipodi.sourceforge.net/DTD/sodipodi-0.dtd"
   xmlns="http://www.w3.org/2000/svg"
   xmlns:svg="http://www.w3.org/2000/svg">
  <defs
     id="defs1">
    <linearGradient
       id="swatch9"
       inkscape:swatch="solid">
      <stop
         style="stop-color:#000000;stop-opacity:1;"
         offset="0"
         id="stop9" />
    </linearGradient>
    <inkscape:path-effect
       effect="bspline"
       id="path-effect2"
       is_visible="true"
       lpeversion="1.3"
       weight="33.333333"
       steps="2"
       helper_size="0"
       apply_no_weight="true"
       apply_with_weight="true"
       only_selected="false"
       uniform="false" />
    <clipPath
       clipPathUnits="userSpaceOnUse"
       id="clipPath4">
      <g
         id="g5">
        <g
           inkscape:label="Clip"
           id="use4"
           clip-path="url(#clipPath4)">
          <g
             id="g34"
             inkscape:label="g2941">
            <path
               style="display:inline;opacity:1;fill:none;fill-opacity:0.119748;fill-rule:nonzero;stroke:#471d1d;stroke-width:0.5;stroke-linecap:round;stroke-linejoin:round;stroke-dasharray:none;stroke-dashoffset:0;stroke-opacity:1"
               d="m 294.55888,155.55134 c -5.71099,-5.59677 -5.95218,-5.93872 -7.3628,-9.11843 -1.01486,-2.25108 -1.03236,-8.37201 -0.21705,-11.11643 1.11405,-3.70272 0.91035,-5.19698 9.62309,-13.84142 0.63492,0.38115 -0.51719,0.71449 1.25635,2.32728 3.58527,3.2603 6.36864,10.2375 6.52122,12.04144 0.21929,3.77811 0.32019,5.94816 -0.19775,8.83215 -0.50674,2.40553 -2.88924,6.65563 -5.18641,7.90372 -1.86834,1.0151 -2.24982,1.34904 -4.43666,2.97169 z"
               id="path33"
               sodipodi:nodetypes="ccccsccscc"
               inkscape:label="Outer cut" />
            <path
               style="display:inline;opacity:1;fill:none;fill-opacity:0;fill-rule:nonzero;stroke:#471d1d;stroke-width:0.5;stroke-linejoin:round;stroke-dasharray:none;stroke-dashoffset:0;stroke-opacity:1"
               d="m 295.54755,152.4535 c -0.73645,-0.60431 -2.3119,-1.97713 -3.07786,-2.99315 -1.77198,-2.35048 -2.87171,-6.62488 -2.9281,-7.04278 -0.23438,-2.70237 -0.2416,-1.89407 0.13984,-4.59644 1.86783,-6.34821 3.22323,-10.55589 7.86084,-14.32349 l -2.02201,1.88081 c 0.711,0.68811 1.15723,1.83718 2.8615,2.02865 0.76692,0.26677 2.19975,1.21441 3.75696,8.83215 0.49097,2.45363 0.44018,4.13384 0.26366,6.2616 0.0768,0.13215 -0.0703,3.13886 -3.92408,7.05254 -1.86597,0.59148 -1.94193,1.85211 -2.93074,2.90011 z"
               id="path34"
               sodipodi:nodetypes="cscccccccccc"
               inkscape:label="Inner cut" />
          </g>
        </g>
      </g>
    </clipPath>
  </defs>
  <sodipodi:namedview
     id="namedview1"
     pagecolor="#ffffff"
     bordercolor="#ffffff"
     borderopacity="1"
     inkscape:showpageshadow="0"
     inkscape:pageopacity="0"
     inkscape:pagecheckerboard="0"
     inkscape:deskcolor="#505050"
     inkscape:zoom="4"
     inkscape:cx="186.625"
     inkscape:cy="27.25"
     inkscape:window-width="2560"
     inkscape:window-height="1368"
     inkscape:window-x="0"
     inkscape:window-y="0"
     inkscape:window-maximized="1"
     inkscape:current-layer="layer3"
     showguides="false" />
  <g
     inkscape:groupmode="layer"
     id="layer3"
     inkscape:label="SVG"
     inkscape:highlight-color="#ffffff"
     style="display:inline">
    <g
       id="g10"
       inkscape:label="Sideways tower left (reference)"
       style="display:inline"
       transform="translate(-1.5215876e-6)">
      <path
         style="color:#000000;fill:#545353;stroke-linecap:round;stroke-linejoin:round;-inkscape-stroke:none"
         d="m 80.390625,65.074219 c -0.541779,0.08359 -1.083081,0.253816 -1.572266,0.517578 -0.326823,0.182427 -0.197327,0.476629 -0.150439,0.599609 l 9.195312,25.138672 c 0.08375,0.228278 0.350109,0.329659 0.564453,0.214844 4.925372,-2.630126 10.307456,-5.063557 16.054685,-7.308594 0.21584,-0.08409 0.31536,-0.333346 0.2168,-0.542969 -2.5115,-5.367558 -6.77181,-10.143036 -11.113282,-13.523437 -4.319286,-3.363128 -8.67679,-5.375715 -11.671875,-5.09375 -0.507695,-0.104051 -1.015253,-0.03917 -1.523388,-0.002 z"
         id="path280"
         sodipodi:nodetypes="cccccccscc" />
    </g>
    <g
       id="g9"
       inkscape:label="Sideways tower right"
       style="display:inline"
       transform="matrix(-1,0,0,1,414.46715,0.20565163)">
      <path
         style="color:#000000;fill:#545353;stroke-linecap:round;stroke-linejoin:round;-inkscape-stroke:none"
         d="m 80.396484,65.074219 c -0.539825,0.08268 -1.080163,0.250288 -1.568359,0.511718 -0.327824,0.196142 -0.176114,0.474197 -0.160109,0.605459 l 9.253906,25.25586 c 0.08273,0.223681 0.34155,0.325752 0.554687,0.21875 5.217575,-2.621087 10.764713,-5.038798 16.578131,-7.234375 0.19418,-0.07315 0.30019,-0.282633 0.24414,-0.482422 -0.0313,-0.133634 -0.0782,-0.26361 -0.1171,-0.394532 -2.50604,-5.353077 -6.7604,-10.131205 -11.162112,-13.5 -4.387102,-3.357614 -8.894611,-5.343513 -12.128906,-4.978515 -0.498056,-0.100029 -0.995673,-0.03778 -1.494228,-0.0019 z"
         id="path305"
         sodipodi:nodetypes="scccccccscss" />
    </g>
    <g
       id="g8"
       inkscape:label="Front tower left (reference)"
       style="display:inline"
       transform="translate(-1.5215876e-6)">
      <path
         style="color:#000000;fill:#545353;stroke-linecap:round;stroke-linejoin:round;-inkscape-stroke:none"
         d="m 163.0332,38.097656 c -1.65021,-0.0081 -3.24358,0.861586 -4.63476,2.425781 -1.39119,1.564196 -2.60323,3.831107 -3.54688,6.71875 -1.88729,5.775287 -2.69068,14.041507 -1.47461,24.136719 0.0271,0.223166 0.23265,0.380221 0.45508,0.347656 7.96555,-1.180108 16.15706,-2.108075 24.49024,-2.771484 0.20522,-0.01586 0.36491,-0.184842 0.36914,-0.390625 0.0947,-4.213128 -1.47333,-11.717037 -4.20313,-18.251953 -1.3649,-3.267458 -3.02084,-6.285203 -4.93164,-8.513672 -1.9108,-2.228469 -4.10361,-3.689365 -6.52344,-3.701172 z"
         id="path403"
         sodipodi:nodetypes="cssccccssc" />
    </g>
    <g
       id="g7"
       inkscape:label="Front tower right"
       style="display:inline"
       transform="matrix(-0.99992009,0.01264253,0.01264253,0.99992009,413.93058,-3.2947463)">
      <path
         style="color:#000000;fill:#545353;stroke-linecap:round;stroke-linejoin:round;-inkscape-stroke:none"
         d="m 162.39648,39.275391 c -1.47113,-0.03168 -2.97315,0.82076 -4.33203,2.365234 -1.35887,1.544474 -2.59293,3.79913 -3.53125,6.689453 -1.87664,5.780646 -2.56775,14.111312 -0.54492,24.375 l 0.0606,0.382813 c 0.0348,0.219495 0.24174,0.368596 0.46094,0.332031 7.84601,-1.343393 15.86043,-2.405461 23.95507,-3.189453 0.20214,-0.01962 0.3575,-0.187576 0.36133,-0.390625 l 0.006,-0.332032 c 0.094,-4.213919 -1.67426,-11.620341 -4.60156,-18.080078 -1.46365,-3.229868 -3.2179,-6.215375 -5.20117,-8.427734 -2.91937,-3.256586 -5.43055,-3.724609 -6.63301,-3.724609 z"
         id="path416"
         sodipodi:nodetypes="ssscscsccsss" />
    </g>
  </g>
</svg>
