<?xml version="1.0" encoding="UTF-8" standalone="no"?>
<!-- Created with Inkscape (http://www.inkscape.org/) -->

<svg
   version="1.1"
   id="svg1"
   width="413"
   height="434"
   viewBox="0 0 413 434"
   sodipodi:docname="walls.svg"
   inkscape:version="1.3.2 (091e20ef0f, 2023-11-25)"
   xmlns:inkscape="http://www.inkscape.org/namespaces/inkscape"
   xmlns:sodipodi="http://sodipodi.sourceforge.net/DTD/sodipodi-0.dtd"
   xmlns="http://www.w3.org/2000/svg"
   xmlns:svg="http://www.w3.org/2000/svg">
  <defs
     id="defs1">
    <linearGradient
       id="swatch9"
       inkscape:swatch="solid">
      <stop
         style="stop-color:#000000;stop-opacity:1;"
         offset="0"
         id="stop9" />
    </linearGradient>
    <inkscape:path-effect
       effect="bspline"
       id="path-effect2"
       is_visible="true"
       lpeversion="1.3"
       weight="33.333333"
       steps="2"
       helper_size="0"
       apply_no_weight="true"
       apply_with_weight="true"
       only_selected="false"
       uniform="false" />
    <clipPath
       clipPathUnits="userSpaceOnUse"
       id="clipPath4">
      <g
         id="g5">
        <g
           inkscape:label="Clip"
           id="use4"
           clip-path="url(#clipPath4)">
          <g
             id="g34"
             inkscape:label="g2941">
            <path
               style="display:inline;opacity:1;fill:none;fill-opacity:0.119748;fill-rule:nonzero;stroke:#471d1d;stroke-width:0.5;stroke-linecap:round;stroke-linejoin:round;stroke-dasharray:none;stroke-dashoffset:0;stroke-opacity:1"
               d="m 294.55888,155.55134 c -5.71099,-5.59677 -5.95218,-5.93872 -7.3628,-9.11843 -1.01486,-2.25108 -1.03236,-8.37201 -0.21705,-11.11643 1.11405,-3.70272 0.91035,-5.19698 9.62309,-13.84142 0.63492,0.38115 -0.51719,0.71449 1.25635,2.32728 3.58527,3.2603 6.36864,10.2375 6.52122,12.04144 0.21929,3.77811 0.32019,5.94816 -0.19775,8.83215 -0.50674,2.40553 -2.88924,6.65563 -5.18641,7.90372 -1.86834,1.0151 -2.24982,1.34904 -4.43666,2.97169 z"
               id="path33"
               sodipodi:nodetypes="ccccsccscc"
               inkscape:label="Outer cut" />
            <path
               style="display:inline;opacity:1;fill:none;fill-opacity:0;fill-rule:nonzero;stroke:#471d1d;stroke-width:0.5;stroke-linejoin:round;stroke-dasharray:none;stroke-dashoffset:0;stroke-opacity:1"
               d="m 295.54755,152.4535 c -0.73645,-0.60431 -2.3119,-1.97713 -3.07786,-2.99315 -1.77198,-2.35048 -2.87171,-6.62488 -2.9281,-7.04278 -0.23438,-2.70237 -0.2416,-1.89407 0.13984,-4.59644 1.86783,-6.34821 3.22323,-10.55589 7.86084,-14.32349 l -2.02201,1.88081 c 0.711,0.68811 1.15723,1.83718 2.8615,2.02865 0.76692,0.26677 2.19975,1.21441 3.75696,8.83215 0.49097,2.45363 0.44018,4.13384 0.26366,6.2616 0.0768,0.13215 -0.0703,3.13886 -3.92408,7.05254 -1.86597,0.59148 -1.94193,1.85211 -2.93074,2.90011 z"
               id="path34"
               sodipodi:nodetypes="cscccccccccc"
               inkscape:label="Inner cut" />
          </g>
        </g>
      </g>
    </clipPath>
  </defs>
  <sodipodi:namedview
     id="namedview1"
     pagecolor="#ffffff"
     bordercolor="#ffffff"
     borderopacity="1"
     inkscape:showpageshadow="0"
     inkscape:pageopacity="0"
     inkscape:pagecheckerboard="0"
     inkscape:deskcolor="#505050"
     inkscape:zoom="11.313709"
     inkscape:cx="300.3878"
     inkscape:cy="45.254834"
     inkscape:window-width="2560"
     inkscape:window-height="1368"
     inkscape:window-x="0"
     inkscape:window-y="0"
     inkscape:window-maximized="1"
     inkscape:current-layer="layer3"
     showguides="false" />
  <g
     inkscape:groupmode="layer"
     id="layer3"
     inkscape:label="SVG"
     inkscape:highlight-color="#ffffff"
     style="display:inline">
    <g
       id="g10"
       inkscape:label="Sideways tower left (reference)"
       style="display:inline"
       transform="translate(-1.5215876e-6)" />
    <g
       id="g9"
       inkscape:label="Sideways tower right"
       style="display:inline"
       transform="matrix(-1,0,0,1,414.46715,0.20565163)" />
    <g
       id="g8"
       inkscape:label="Front tower left (reference)"
       style="display:inline"
       transform="translate(-1.5215876e-6)" />
    <g
       id="g7"
       inkscape:label="Front tower right"
       style="display:inline"
       transform="matrix(-0.99992009,0.01264253,0.01264253,0.99992009,413.93058,-3.2947463)" />
    <g
       id="g6"
       inkscape:label="Crown bottom"
       style="display:inline" />
    <g
       id="g4"
       inkscape:label="Crown walls"
       style="display:inline">
      <path
         style="color:#000000;fill:#545353;stroke-linecap:round;stroke-linejoin:round;-inkscape-stroke:none"
         d="m 183.83984,40.158203 c -0.005,0.0048 -0.1041,0.04393 -0.1152,0.03906 -0.15609,0.06119 -0.25745,0.213239 -0.25391,0.380859 -0.002,0.0016 -0.0142,0.06088 -0.012,0.119169 l 8.30079,26.9375 c 0.0214,0.06421 0.0414,0.103553 0.0664,0.16602 0.008,0.221306 0.19474,0.393789 0.41602,0.384766 10.41723,-0.392301 20.96333,-0.342426 31.45508,0.164062 0.22056,0.01015 0.40763,-0.160312 0.41796,-0.380859 0.007,-0.04489 0.0181,-0.08398 0.0273,-0.12696 l 7.02539,-27.25 c 0.0128,-0.0637 -0.001,-0.120461 -0.002,-0.183629 -0.01,-0.100857 -0.0871,-0.184372 -0.1036,-0.201175 -0.089,-0.09037 -0.23485,-0.117863 -0.25399,-0.12114 -7.70308,-0.541371 -15.47516,-0.768781 -23.3064,-0.73825 -7.83123,0.03053 -15.72205,0.318344 -23.66187,0.810577 z"
         id="path423"
         sodipodi:nodetypes="ccccccccccccscccc" />
      <path
         style="color:#000000;fill:#545353;stroke-linecap:round;stroke-linejoin:round;-inkscape-stroke:none"
         d="m 272.34961,44.095703 c -0.22079,0.01742 -0.38539,0.210919 -0.36719,0.431641 l 2.34766,29.714843 c 0.0223,0.137814 -0.001,0.28718 0.12813,0.339786 0.0209,0.05459 0.16961,0.07079 0.21171,0.111386 7.95334,1.663763 15.669,3.640921 23.05274,5.935547 0.30259,0.09494 0.50786,-0.152772 0.50786,-0.263668 5.47236,-8.684869 10.95039,-17.371712 16.42575,-26.056677 0.11854,-0.187079 0.0625,-0.434866 -0.125,-0.552735 -0.10132,-0.03735 -0.19042,-0.09363 -0.32031,-0.132816 -13.34585,-4.256418 -27.33473,-7.207004 -41.63868,-9.513631 -0.11968,-0.0024 -0.13728,-0.01026 -0.22266,-0.01367 z"
         id="path436"
         sodipodi:nodetypes="sccccccccccss" />
      <path
         style="color:#000000;fill:#545353;stroke-linecap:round;stroke-linejoin:round;-inkscape-stroke:none"
         d="m 141.73437,44.509767 c -13.39957,2.022102 -27.03396,5.486091 -40.83593,9.988281 -0.17237,0.06455 -0.25054,0.08988 -0.35156,0.14844 -0.187,0.117148 -0.2438,0.363597 -0.12696,0.550782 l 15.43555,24.669921 c 0.0355,0.01062 0.16163,0.404006 0.55275,0.281291 7.61942,-2.358643 15.72774,-4.386614 24.19532,-6.074218 0.40315,-0.07994 0.28591,-0.497297 0.32425,-0.535163 l 1.61133,-28.625 c 0.0124,-0.220598 -0.15635,-0.409493 -0.37695,-0.421875 -0.008,-0.0051 -0.33861,0.01029 -0.4278,0.01754 z"
         id="path453"
         sodipodi:nodetypes="cccccccccccc" />
    </g>
  </g>
</svg>
