<?xml version="1.0" encoding="UTF-8" standalone="no"?>
<!-- Created with Inkscape (http://www.inkscape.org/) -->

<svg
   version="1.1"
   id="svg1"
   width="413"
   height="434"
   viewBox="0 0 413 434"
   sodipodi:docname="walls_bricks.svg"
   inkscape:version="1.3.2 (091e20ef0f, 2023-11-25)"
   xmlns:inkscape="http://www.inkscape.org/namespaces/inkscape"
   xmlns:sodipodi="http://sodipodi.sourceforge.net/DTD/sodipodi-0.dtd"
   xmlns="http://www.w3.org/2000/svg"
   xmlns:svg="http://www.w3.org/2000/svg">
  <defs
     id="defs1">
    <linearGradient
       id="swatch9"
       inkscape:swatch="solid">
      <stop
         style="stop-color:#000000;stop-opacity:1;"
         offset="0"
         id="stop9" />
    </linearGradient>
    <inkscape:path-effect
       effect="bspline"
       id="path-effect2"
       is_visible="true"
       lpeversion="1.3"
       weight="33.333333"
       steps="2"
       helper_size="0"
       apply_no_weight="true"
       apply_with_weight="true"
       only_selected="false"
       uniform="false" />
    <clipPath
       clipPathUnits="userSpaceOnUse"
       id="clipPath4">
      <g
         id="g5">
        <g
           inkscape:label="Clip"
           id="use4"
           clip-path="url(#clipPath4)">
          <g
             id="g34"
             inkscape:label="g2941">
            <path
               style="display:inline;opacity:1;fill:none;fill-opacity:0.119748;fill-rule:nonzero;stroke:#471d1d;stroke-width:0.5;stroke-linecap:round;stroke-linejoin:round;stroke-dasharray:none;stroke-dashoffset:0;stroke-opacity:1"
               d="m 294.55888,155.55134 c -5.71099,-5.59677 -5.95218,-5.93872 -7.3628,-9.11843 -1.01486,-2.25108 -1.03236,-8.37201 -0.21705,-11.11643 1.11405,-3.70272 0.91035,-5.19698 9.62309,-13.84142 0.63492,0.38115 -0.51719,0.71449 1.25635,2.32728 3.58527,3.2603 6.36864,10.2375 6.52122,12.04144 0.21929,3.77811 0.32019,5.94816 -0.19775,8.83215 -0.50674,2.40553 -2.88924,6.65563 -5.18641,7.90372 -1.86834,1.0151 -2.24982,1.34904 -4.43666,2.97169 z"
               id="path33"
               sodipodi:nodetypes="ccccsccscc"
               inkscape:label="Outer cut" />
            <path
               style="display:inline;opacity:1;fill:none;fill-opacity:0;fill-rule:nonzero;stroke:#471d1d;stroke-width:0.5;stroke-linejoin:round;stroke-dasharray:none;stroke-dashoffset:0;stroke-opacity:1"
               d="m 295.54755,152.4535 c -0.73645,-0.60431 -2.3119,-1.97713 -3.07786,-2.99315 -1.77198,-2.35048 -2.87171,-6.62488 -2.9281,-7.04278 -0.23438,-2.70237 -0.2416,-1.89407 0.13984,-4.59644 1.86783,-6.34821 3.22323,-10.55589 7.86084,-14.32349 l -2.02201,1.88081 c 0.711,0.68811 1.15723,1.83718 2.8615,2.02865 0.76692,0.26677 2.19975,1.21441 3.75696,8.83215 0.49097,2.45363 0.44018,4.13384 0.26366,6.2616 0.0768,0.13215 -0.0703,3.13886 -3.92408,7.05254 -1.86597,0.59148 -1.94193,1.85211 -2.93074,2.90011 z"
               id="path34"
               sodipodi:nodetypes="cscccccccccc"
               inkscape:label="Inner cut" />
          </g>
        </g>
      </g>
    </clipPath>
  </defs>
  <sodipodi:namedview
     id="namedview1"
     pagecolor="#ffffff"
     bordercolor="#ffffff"
     borderopacity="1"
     inkscape:showpageshadow="0"
     inkscape:pageopacity="0"
     inkscape:pagecheckerboard="0"
     inkscape:deskcolor="#505050"
     inkscape:zoom="6.0325328"
     inkscape:cx="224.53255"
     inkscape:cy="45.586159"
     inkscape:window-width="2560"
     inkscape:window-height="1368"
     inkscape:window-x="0"
     inkscape:window-y="0"
     inkscape:window-maximized="1"
     inkscape:current-layer="layer3"
     showguides="false" />
  <g
     inkscape:groupmode="layer"
     id="layer3"
     inkscape:label="SVG"
     inkscape:highlight-color="#ffffff"
     style="display:inline">
    <path
       style="opacity:1;fill:#5e5d60;stroke:none;stroke-width:0;stroke-linecap:round;stroke-linejoin:round"
       d="m 103.39362,58.307622 c -1.67679,-2.685041 -1.94089,-3.157695 -1.76442,-3.157695 0.0341,0 1.2268,-0.36923 2.65056,-0.820509 1.42376,-0.45128 2.63094,-0.820509 2.68263,-0.820509 0.16982,0 2.22282,6.337862 2.07029,6.391251 -0.0767,0.02684 -0.82512,0.282134 -1.66322,0.567323 -0.83809,0.285189 -1.66459,0.573901 -1.83666,0.641583 -0.31116,0.12239 -0.32276,0.107202 -2.13918,-2.801444 z"
       id="path21" />
    <path
       style="opacity:1;fill:#5e5d60;stroke:none;stroke-width:0;stroke-linecap:round;stroke-linejoin:round"
       d="m 108.98227,56.357827 c -0.58592,-1.760311 -1.05049,-3.200565 -1.03239,-3.200565 0.0181,0 1.7938,-0.504247 3.94601,-1.120549 3.83806,-1.099061 10.09517,-2.747788 10.42646,-2.747336 0.12144,1.66e-4 0.39096,0.868062 0.97371,3.135517 0.44318,1.724408 0.83,3.201221 0.85958,3.281807 0.0299,0.08136 -0.0361,0.146519 -0.1483,0.146519 -0.58891,0 -9.07165,2.204091 -12.30983,3.198495 l -1.64995,0.506677 z"
       id="path22" />
    <path
       style="opacity:1;fill:#5e5d60;stroke:none;stroke-width:0;stroke-linecap:round;stroke-linejoin:round"
       d="m 124.21767,52.316711 c -0.46823,-1.813905 -0.83746,-3.311008 -0.8205,-3.326895 0.13675,-0.128125 10.01594,-2.201773 12.99061,-2.72674 l 1.23823,-0.218521 0.67098,3.395612 c 0.36904,1.867586 0.64544,3.421149 0.61423,3.452361 -0.0312,0.03121 -1.3387,0.283052 -2.90554,0.559645 -4.12336,0.727895 -9.87823,1.857302 -10.76084,2.111842 -0.14017,0.04042 -0.34847,-0.618092 -1.02717,-3.247304 z"
       id="path23" />
    <path
       style="opacity:1;fill:#5e5d60;stroke:none;stroke-width:0;stroke-linecap:round;stroke-linejoin:round"
       d="m 139.78838,52.195169 c -0.70222,-3.4279 -1.25492,-6.305273 -1.21116,-6.305273 0.0296,0 0.71102,-0.111047 1.51436,-0.246771 0.80334,-0.135724 1.48153,-0.225851 1.5071,-0.200281 0.0256,0.02557 -0.0405,1.63697 -0.14677,3.580889 l -0.19325,3.5344 -0.47581,0.0737 c -0.2617,0.04053 -0.56392,0.09844 -0.6716,0.128677 -0.15526,0.0436 -0.22211,-0.07346 -0.32287,-0.565337 z"
       id="path24" />
    <path
       style="opacity:1;fill:#5e5d60;stroke:none;stroke-width:0;stroke-linecap:round;stroke-linejoin:round"
       d="m 107.499,64.877381 c -0.87462,-1.400514 -1.6208,-2.626068 -1.65817,-2.723452 -0.0542,-0.141244 0.54406,-0.380464 2.95744,-1.182568 2.87705,-0.956206 7.37691,-2.304967 7.69004,-2.304967 0.0934,0 0.39532,1.006048 0.83548,2.78387 0.37908,1.531128 0.70779,2.836616 0.73045,2.901085 0.0227,0.06447 -0.68422,0.323283 -1.57088,0.575143 -1.99724,0.567331 -5.43324,1.69676 -6.55438,2.154461 l -0.83974,0.342819 z"
       id="path25" />
    <path
       style="opacity:1;fill:#5e5d60;stroke:none;stroke-width:0;stroke-linecap:round;stroke-linejoin:round"
       d="m 118.26381,61.391656 c -0.36923,-1.531129 -0.69312,-2.8427 -0.71975,-2.914603 -0.0728,-0.196501 5.90707,-1.636268 11.56889,-2.785441 1.38608,-0.28133 2.53229,-0.478739 2.54716,-0.438686 0.12714,0.342707 1.19483,5.677371 1.1506,5.74894 -0.0317,0.05132 -0.29131,0.125337 -0.57688,0.164477 -1.12122,0.153682 -6.40345,1.319108 -9.70935,2.142191 -1.91524,0.476845 -3.50635,0.866992 -3.5358,0.866992 -0.0294,0 -0.35564,-1.252742 -0.72487,-2.78387 z"
       id="path26" />
    <path
       style="opacity:1;fill:#5e5d60;stroke:none;stroke-width:0;stroke-linecap:round;stroke-linejoin:round"
       d="m 133.75704,60.610747 c -0.33619,-1.362068 -1.13346,-5.393746 -1.08935,-5.508704 0.0314,-0.08171 0.41799,-0.210014 0.85918,-0.285112 0.4412,-0.0751 2.32823,-0.399339 4.19341,-0.720535 1.86517,-0.321196 3.41046,-0.564756 3.43398,-0.541245 0.0457,0.04566 -0.2971,6.183133 -0.34809,6.232827 -0.0166,0.01622 -1.03246,0.165891 -2.25736,0.332596 -1.22491,0.166704 -2.79056,0.400254 -3.47923,0.518999 l -1.25213,0.215901 z"
       id="path27" />
    <path
       style="opacity:1;fill:#5e5d60;stroke:none;stroke-width:0;stroke-linecap:round;stroke-linejoin:round"
       d="m 111.12682,70.67087 c -1.20919,-1.925309 -1.48052,-2.432431 -1.34648,-2.51662 0.3219,-0.202181 1.87364,-0.729608 1.94288,-0.660371 0.14405,0.144053 1.56029,5.290299 1.4769,5.366685 -0.0479,0.04388 -0.19326,0.111665 -0.32302,0.150636 -0.20303,0.06098 -0.44705,-0.265303 -1.75028,-2.34033 z"
       id="path28" />
    <path
       style="opacity:1;fill:#5e5d60;stroke:none;stroke-width:0;stroke-linecap:round;stroke-linejoin:round"
       d="m 114.16865,72.480689 c -0.2423,-0.64185 -1.53809,-5.388275 -1.48027,-5.422183 0.20996,-0.123147 5.0999,-1.56349 7.34037,-2.162124 2.84305,-0.759641 5.80006,-1.470858 5.84873,-1.406731 0.0172,0.02265 0.2845,1.307117 0.59402,2.854363 0.30953,1.547245 0.58375,2.868643 0.6094,2.936438 0.0275,0.07263 -0.56876,0.258951 -1.45149,0.453588 -2.79426,0.616111 -10.53315,2.572359 -11.22213,2.836745 -0.0983,0.03772 -0.20569,-0.0028 -0.23863,-0.0901 z"
       id="path29" />
    <path
       style="opacity:1;fill:#5e5d60;stroke:none;stroke-width:0;stroke-linecap:round;stroke-linejoin:round"
       d="m 127.39313,66.26195 c -0.33344,-1.630325 -0.58623,-2.984265 -0.56174,-3.008754 0.076,-0.07597 4.0999,-0.918507 6.50132,-1.36126 2.44403,-0.450608 7.3644,-1.18253 7.42348,-1.104267 0.0196,0.02597 -0.0471,1.444848 -0.14815,3.15307 l -0.18378,3.105857 -0.7033,0.09403 c -2.01569,0.2695 -10.13895,1.704397 -11.48712,2.029092 -0.2184,0.0526 -0.2759,-0.146295 -0.84071,-2.907768 z"
       id="path30" />
    <path
       style="opacity:1;fill:#5e5d60;stroke:none;stroke-width:0;stroke-linecap:round;stroke-linejoin:round"
       d="m 116.18758,78.750964 c -1.94831,-3.099895 -2.91512,-4.668884 -2.93419,-4.761764 -0.0127,-0.06199 0.31971,-0.213421 0.73875,-0.336522 1.59947,-0.469865 6.46557,-1.760764 6.49289,-1.722459 0.0158,0.02208 0.26466,1.333753 0.55314,2.914834 l 0.52451,2.874691 -2.34938,0.688324 c -1.29215,0.378578 -2.43778,0.712069 -2.54583,0.741091 -0.13177,0.03539 -0.2898,-0.09574 -0.47989,-0.398195 z"
       id="path31" />
    <path
       style="opacity:1;fill:#5e5d60;stroke:none;stroke-width:0;stroke-linecap:round;stroke-linejoin:round"
       d="m 122.37332,77.039935 c -0.0379,-0.209523 -0.27392,-1.488011 -0.52441,-2.841085 -0.25049,-1.353073 -0.43176,-2.483806 -0.40283,-2.512739 0.22489,-0.224894 13.22279,-2.931465 13.37016,-2.784089 0.0229,0.02284 0.18885,1.235286 0.3689,2.694319 l 0.32737,2.652786 -1.35363,0.306712 c -2.29817,0.520728 -8.4251,2.02985 -9.98046,2.458286 -0.81217,0.223718 -1.53506,0.40676 -1.60641,0.40676 -0.0714,0 -0.16076,-0.171428 -0.19869,-0.38095 z"
       id="path32" />
    <path
       style="opacity:1;fill:#5e5d60;stroke:none;stroke-width:0;stroke-linecap:round;stroke-linejoin:round"
       d="m 136.3786,73.875114 c -9.5e-4,-0.08059 -0.13237,-1.201459 -0.29205,-2.490831 -0.15967,-1.289371 -0.29077,-2.4281 -0.29131,-2.53051 -8.2e-4,-0.151975 0.40794,-0.24752 2.22396,-0.519838 1.22373,-0.183502 2.25454,-0.304058 2.2907,-0.267903 0.0361,0.03615 0.002,1.226743 -0.0757,2.645752 l -0.14146,2.580015 -1.76828,0.366738 c -2.02084,0.419116 -1.94355,0.410513 -1.94583,0.216577 z"
       id="path35" />
    <path
       style="opacity:1;fill:#5e5d60;stroke:none;stroke-width:0;stroke-linecap:round;stroke-linejoin:round"
       d="m 185.53589,44.523881 c -0.58921,-1.924137 -1.06286,-3.5083 -1.05254,-3.520362 0.0805,-0.0942 11.65622,-0.622755 13.63862,-0.622755 h 1.43754 v 3.450678 3.450677 l -0.49817,0.06067 c -0.27399,0.03337 -1.52673,0.0914 -2.78386,0.12896 -2.28644,0.06831 -7.47304,0.347953 -8.90839,0.480306 l -0.7619,0.07026 z"
       id="path36" />
    <path
       style="opacity:1;fill:#5e5d60;stroke:none;stroke-width:0;stroke-linecap:round;stroke-linejoin:round"
       d="m 200.38002,43.783458 v -3.483625 l 4.54974,-0.06633 c 2.50236,-0.03648 5.61443,-0.0367 6.91572,-4.79e-4 l 2.36598,0.06585 v 1.89786 c 0,1.043823 0.0341,2.608898 0.0758,3.477945 l 0.0758,1.580086 -6.9915,0.0062 -6.9915,0.0062 z"
       id="path37" />
    <path
       style="opacity:1;fill:#5e5d60;stroke:none;stroke-width:0;stroke-linecap:round;stroke-linejoin:round"
       d="m 225.17111,47.818976 c -1.03149,-0.08055 -3.32599,-0.206911 -5.09887,-0.280796 -1.77289,-0.07388 -3.60585,-0.162993 -4.07325,-0.198018 l -0.84981,-0.06368 v -3.506467 -3.506466 l 0.7326,0.0011 c 2.2196,0.0034 14.14,0.550522 14.25722,0.654422 0.0246,0.02186 -0.35777,1.598037 -0.84982,3.502625 -0.49205,1.904588 -0.89464,3.488804 -0.89464,3.520479 0,0.08456 -1.10246,0.04242 -3.22343,-0.123209 z"
       id="path38" />
    <path
       style="opacity:1;fill:#5e5d60;stroke:none;stroke-width:0;stroke-linecap:round;stroke-linejoin:round"
       d="m 188.41729,53.834881 c -0.20389,-0.662799 -0.62618,-2.021069 -0.93844,-3.018377 -0.36505,-1.165944 -0.52415,-1.840227 -0.44564,-1.888749 0.0672,-0.0415 1.29108,-0.137663 2.71982,-0.213686 1.42875,-0.07602 2.74278,-0.161027 2.92007,-0.188897 l 0.32234,-0.05067 v 3.156578 3.156579 l -0.38095,0.05789 c -0.20952,0.03184 -1.1562,0.08861 -2.10373,0.126156 l -1.72277,0.06826 z"
       id="path39" />
    <path
       style="opacity:1;fill:#5e5d60;stroke:none;stroke-width:0;stroke-linecap:round;stroke-linejoin:round"
       d="m 193.93316,51.664324 v -3.170063 l 1.26007,-0.0758 c 1.43351,-0.08624 8.99924,-0.297892 10.72523,-0.300041 l 1.14285,-0.0014 v 3.204345 3.204346 l -5.05756,0.07811 c -2.78166,0.04296 -5.73549,0.112416 -6.56407,0.154352 l -1.50652,0.07625 z"
       id="path40" />
    <path
       style="opacity:1;fill:#5e5d60;stroke:none;stroke-width:0;stroke-linecap:round;stroke-linejoin:round"
       d="m 216.55577,54.675519 c -1.32161,-0.04365 -3.78753,-0.08663 -5.47983,-0.09551 l -3.07691,-0.01616 V 51.34042 48.116992 l 1.31868,0.002 c 1.78257,0.0028 8.84127,0.204497 10.5494,0.301509 l 1.37728,0.07822 v 3.149759 3.14976 l -1.14285,-0.0217 c -0.62857,-0.01194 -2.22417,-0.05741 -3.54577,-0.10106 z"
       id="path41" />
    <path
       style="opacity:1;fill:#5e5d60;stroke:none;stroke-width:0;stroke-linecap:round;stroke-linejoin:round"
       d="m 223.32497,54.94733 -1.14285,-0.04032 v -3.16058 -3.160575 l 0.55677,1.99e-4 c 0.57581,2.05e-4 5.34095,0.342567 5.36862,0.38572 0.009,0.01338 -0.33475,1.369384 -0.76298,3.013332 l -0.77858,2.988997 -1.04907,0.0068 c -0.57698,0.0037 -1.56334,-0.01137 -2.19191,-0.03355 z"
       id="path42" />
    <path
       style="opacity:1;fill:#5e5d60;stroke:none;stroke-width:0;stroke-linecap:round;stroke-linejoin:round"
       d="m 190.08652,59.27111 c -0.4717,-1.544274 -0.88527,-2.913432 -0.91904,-3.042575 -0.0872,-0.333269 0.0376,-0.346534 4.58986,-0.488173 2.19193,-0.0682 4.39412,-0.144838 4.89375,-0.17031 l 0.90842,-0.04631 v 3.036521 3.036521 l -0.90842,5.82e-4 c -1.00499,6.44e-4 -6.34753,0.309207 -7.17945,0.414655 l -0.52747,0.06686 z"
       id="path43" />
    <path
       style="opacity:1;fill:#5e5d60;stroke:none;stroke-width:0;stroke-linecap:round;stroke-linejoin:round"
       d="m 200.47179,58.467198 0.0332,-2.965625 h 6.97047 6.97047 l -1e-5,2.959693 -1e-5,2.959694 -7.00362,0.0059 -7.00362,0.0059 z"
       id="path44" />
    <path
       style="opacity:1;fill:#5e5d60;stroke:none;stroke-width:0;stroke-linecap:round;stroke-linejoin:round"
       d="m 221.88908,61.883429 c -1.0315,-0.08133 -2.74578,-0.181561 -3.80951,-0.222733 -1.06373,-0.04117 -2.10548,-0.10116 -2.31501,-0.133305 l -0.38095,-0.05845 v -2.98471 -2.98471 l 0.61538,0.0564 c 0.33846,0.03102 1.72307,0.08523 3.07691,0.120453 2.52281,0.06565 7.12325,0.2887 7.18417,0.348328 0.0187,0.01831 -0.31096,1.361148 -0.7326,2.984086 -0.42164,1.622938 -0.76661,2.974659 -0.76661,3.003824 0,0.07375 -0.69376,0.04254 -2.87178,-0.129189 z"
       id="path45" />
    <path
       style="opacity:1;fill:#5e5d60;stroke:none;stroke-width:0;stroke-linecap:round;stroke-linejoin:round"
       d="m 191.90257,65.172955 c -0.37239,-1.208319 -0.66126,-2.211611 -0.64192,-2.229538 0.15072,-0.13972 11.27379,-0.638737 14.30616,-0.641821 l 1.4945,-0.0015 v 2.384005 2.384004 l -6.41755,0.07681 c -3.52966,0.04225 -6.78803,0.110154 -7.24083,0.150907 l -0.82328,0.0741 z"
       id="path46" />
    <path
       style="opacity:1;fill:#5e5d60;stroke:none;stroke-width:0;stroke-linecap:round;stroke-linejoin:round"
       d="m 219.7792,67.3352 c -1.0315,-0.04508 -4.10401,-0.123534 -6.82781,-0.174344 l -4.95236,-0.09238 v -2.3842 -2.3842 l 1.72893,1.28e-4 c 3.49335,2.58e-4 11.92876,0.390643 14.17116,0.655833 l 0.60346,0.07137 -0.4638,1.775522 c -0.25509,0.976536 -0.51549,1.973322 -0.57867,2.215079 l -0.11487,0.439559 -0.8453,-0.0202 c -0.46491,-0.01111 -1.68925,-0.05708 -2.72074,-0.102162 z"
       id="path47" />
    <path
       style="opacity:1;fill:#5e5d60;stroke:none;stroke-width:0;stroke-linecap:round;stroke-linejoin:round"
       d="m 273.56587,52.129831 c -0.13818,-0.08982 -0.72281,-6.888899 -0.60268,-7.009029 0.0682,-0.06816 2.0778,0.255816 2.17217,0.350182 0.05,0.04996 -0.95804,6.037661 -1.10155,6.543426 -0.0611,0.215257 -0.24467,0.260541 -0.46794,0.115421 z"
       id="path48" />
    <path
       style="opacity:1;fill:#5e5d60;stroke:none;stroke-width:0;stroke-linecap:round;stroke-linejoin:round"
       d="m 287.70562,54.442807 c -2.49028,-0.491139 -6.82072,-1.226229 -9.94727,-1.688544 -1.50618,-0.222715 -2.75762,-0.424051 -2.78099,-0.447413 -0.038,-0.03802 1.11083,-6.686123 1.16162,-6.72203 0.12498,-0.08835 14.6233,2.699026 14.91964,2.868379 0.0891,0.05092 -0.0931,1.053339 -0.58331,3.209564 -0.556,2.445538 -0.75217,3.133287 -0.89147,3.125383 -0.0982,-0.0056 -0.94342,-0.160976 -1.87822,-0.345339 z"
       id="path49" />
    <path
       style="opacity:1;fill:#5e5d60;stroke:none;stroke-width:0;stroke-linecap:round;stroke-linejoin:round"
       d="m 303.00225,58.060178 c -2.12564,-0.643446 -6.91832,-1.863017 -9.84521,-2.505271 -1.35335,-0.296967 -2.46854,-0.549135 -2.4782,-0.560372 -0.0276,-0.03207 1.3933,-6.226818 1.44117,-6.28316 0.13061,-0.153751 14.51445,3.409008 14.76183,3.656385 0.10036,0.100364 -2.10678,6.18299 -2.23796,6.16755 -0.0648,-0.0076 -0.80354,-0.221437 -1.64163,-0.475132 z"
       id="path50" />
    <path
       style="opacity:1;fill:#5e5d60;stroke:none;stroke-width:0;stroke-linecap:round;stroke-linejoin:round"
       d="m 307.63227,59.503 c -1.06373,-0.357734 -1.94608,-0.655991 -1.96078,-0.662792 -0.0311,-0.0144 2.16725,-6.165667 2.21905,-6.209107 0.0411,-0.03449 5.59288,1.64776 5.65178,1.712559 0.0222,0.0244 -0.78337,1.349854 -1.79012,2.945451 -1.16679,1.849231 -1.89489,2.894419 -2.00817,2.8827 -0.0977,-0.01011 -1.04803,-0.311076 -2.11176,-0.668811 z"
       id="path51" />
    <path
       style="opacity:1;fill:#5e5d60;stroke:none;stroke-width:0;stroke-linecap:round;stroke-linejoin:round"
       d="m 277.21483,59.806138 c -1.74065,-0.323452 -3.17399,-0.593908 -3.18519,-0.601014 -0.0375,-0.02377 -0.51439,-6.079686 -0.48121,-6.110302 0.0343,-0.03169 5.06367,0.700399 7.3368,1.06797 1.07507,0.17384 1.3172,0.248737 1.27907,0.395656 -0.0259,0.09967 -0.35558,1.460339 -0.7327,3.023702 -0.54127,2.243818 -0.72425,2.839276 -0.86881,2.82728 -0.10073,-0.0084 -1.60731,-0.27984 -3.34796,-0.603292 z"
       id="path52" />
    <path
       style="opacity:1;fill:#5e5d60;stroke:none;stroke-width:0;stroke-linecap:round;stroke-linejoin:round"
       d="m 294.67995,63.416387 c -1.50319,-0.37738 -6.88018,-1.561153 -9.79432,-2.156267 l -3.23024,-0.659669 0.7151,-2.954921 c 0.39331,-1.625206 0.747,-2.986812 0.78598,-3.025791 0.22482,-0.224823 14.04361,2.645165 14.04361,2.916681 0,0.09921 -1.3028,5.250064 -1.47911,5.8479 -0.0689,0.233744 -0.21926,0.238375 -1.04102,0.03207 z"
       id="path53" />
    <path
       style="opacity:1;fill:#5e5d60;stroke:none;stroke-width:0;stroke-linecap:round;stroke-linejoin:round"
       d="m 303.96535,65.814753 c -1.08202,-0.307253 -3.17848,-0.867708 -4.6588,-1.245454 -1.48033,-0.377747 -2.69139,-0.739559 -2.69124,-0.804028 4.6e-4,-0.205485 1.49899,-5.934948 1.57114,-6.007101 0.14355,-0.143554 8.03394,2.156312 10.45946,3.048694 l 0.72061,0.265121 -1.61039,2.552912 c -0.88572,1.404102 -1.65834,2.596919 -1.71694,2.650706 -0.0586,0.05379 -0.99183,-0.153596 -2.07384,-0.46085 z"
       id="path54" />
    <path
       style="opacity:1;fill:#5e5d60;stroke:none;stroke-width:0;stroke-linecap:round;stroke-linejoin:round"
       d="m 285.65435,68.095666 c -0.1666,-0.06635 -6.77295,-1.255795 -9.10606,-1.639509 l -1.9559,-0.321677 -0.0628,-0.422703 c -0.11622,-0.782434 -0.44185,-5.422575 -0.38456,-5.479863 0.0922,-0.09216 12.54592,2.244964 13.16588,2.470759 0.0897,0.03268 -0.0658,0.820638 -0.4798,2.430926 -0.33692,1.310414 -0.64822,2.527625 -0.69178,2.704913 -0.074,0.301247 -0.20281,0.369534 -0.48499,0.257154 z"
       id="path55" />
    <path
       style="opacity:1;fill:#5e5d60;stroke:none;stroke-width:0;stroke-linecap:round;stroke-linejoin:round"
       d="m 299.01692,71.0256 c -1.09246,-0.30966 -7.13717,-1.683315 -9.58237,-2.177586 -1.33772,-0.270407 -2.43073,-0.522451 -2.42891,-0.5601 0.002,-0.03765 0.30511,-1.260774 0.67399,-2.718057 l 0.67068,-2.649605 2.23158,0.498175 c 4.35177,0.971483 11.26544,2.695919 11.44568,2.854828 0.0441,0.03892 -0.38798,1.152072 -0.96026,2.473678 -0.77405,1.787565 -1.09478,2.408281 -1.25241,2.423856 -0.11654,0.01152 -0.47563,-0.05382 -0.79798,-0.145189 z"
       id="path56" />
    <path
       style="opacity:1;fill:#5e5d60;stroke:none;stroke-width:0;stroke-linecap:round;stroke-linejoin:round"
       d="m 301.62497,71.711662 c -0.37069,-0.09725 -0.67399,-0.212599 -0.67399,-0.256324 0,-0.119483 1.99612,-4.746948 2.08851,-4.841657 0.0862,-0.08837 2.12322,0.456515 2.29168,0.613008 0.11782,0.109454 -2.73897,4.688707 -2.91499,4.672553 -0.0645,-0.0059 -0.42052,-0.09033 -0.79121,-0.18758 z"
       id="path57" />
    <path
       style="opacity:1;fill:#5e5d60;stroke:none;stroke-width:0;stroke-linecap:round;stroke-linejoin:round"
       d="m 276.18976,74.150056 c -0.49931,-0.112981 -0.93567,-0.233247 -0.96968,-0.267259 -0.11334,-0.113334 -0.59416,-6.776882 -0.489,-6.776882 0.19303,0 4.35191,0.71554 4.39202,0.755653 0.0219,0.02192 -0.35067,1.482838 -0.82799,3.246481 -0.59162,2.185976 -0.92031,3.213117 -1.03267,3.227025 -0.0907,0.01122 -0.57336,-0.07204 -1.07268,-0.185018 z"
       id="path58" />
    <path
       style="opacity:1;fill:#5e5d60;stroke:none;stroke-width:0;stroke-linecap:round;stroke-linejoin:round"
       d="m 290.34297,77.587603 c -1.35774,-0.400451 -7.5572,-1.967877 -9.90857,-2.505212 -1.1073,-0.253041 -2.03364,-0.480443 -2.05854,-0.505339 -0.0548,-0.05479 1.64961,-6.394135 1.74471,-6.489228 0.0903,-0.09031 2.11029,0.271294 7.29201,1.305368 5.43964,1.085544 6.03748,1.223134 6.03288,1.388428 -0.01,0.353444 -1.95167,7.035455 -2.05091,7.05739 -0.0626,0.01384 -0.53583,-0.09929 -1.05158,-0.251407 z"
       id="path59" />
    <path
       style="opacity:1;fill:#5e5d60;stroke:none;stroke-width:0;stroke-linecap:round;stroke-linejoin:round"
       d="m 296.67261,79.411162 c -0.38681,-0.124852 -1.46812,-0.44659 -2.40292,-0.714973 -0.93479,-0.268384 -1.73786,-0.521383 -1.7846,-0.56222 -0.067,-0.05855 1.82588,-7.123071 1.93885,-7.236046 0.0353,-0.03534 0.17197,-0.0031 4.00691,0.946635 1.67618,0.415094 3.16149,0.797825 3.30068,0.850514 0.23745,0.08989 0.12054,0.305628 -1.89398,3.49505 -1.18088,1.869588 -2.21783,3.41023 -2.30435,3.423648 -0.0865,0.01342 -0.47378,-0.07775 -0.86059,-0.202608 z"
       id="path60" />
  </g>
</svg>
